<?xml version="1.0" encoding="UTF-8"?>
<!DOCTYPE svg PUBLIC "-//W3C//DTD SVG 1.1//EN" "http://www.w3.org/Graphics/SVG/1.1/DTD/svg11.dtd">
<!-- Creator: CorelDRAW 2020 (64-Bit) -->
<svg xmlns="http://www.w3.org/2000/svg" xml:space="preserve" width="591px" height="591px" version="1.1" style="shape-rendering:geometricPrecision; text-rendering:geometricPrecision; image-rendering:optimizeQuality; fill-rule:evenodd; clip-rule:evenodd"
viewBox="0 0 591 591"
 xmlns:xlink="http://www.w3.org/1999/xlink"
 xmlns:xodm="http://www.corel.com/coreldraw/odm/2003">
 <defs>
  <style type="text/css">
   <![CDATA[
    .fil0 {fill:#FFF;fill-rule:nonzero}
   ]]>
  </style>
 </defs>
 <g id="Layer_x0020_1">
  <metadata id="CorelCorpID_0Corel-Layer"/>
  <path class="fil0" d="M254 270c1,7 1,14 1,21 0,32 -6,56 -20,72 -13,16 -30,24 -52,24 -21,0 -39,-8 -53,-25 -14,-17 -21,-42 -21,-74 0,-7 0,-13 1,-19 40,1 89,1 143,1zm-202 -2c3,20 8,39 16,56 12,28 28,49 48,62 20,13 42,20 67,20 35,0 65,-12 89,-37 8,-8 14,-16 19,-25l0 0c6,13 15,24 27,34 23,19 54,28 93,28 44,0 79,-14 103,-42 19,-22 28,-47 28,-76 0,-7 -1,-14 -2,-20 32,-1 51,-2 51,-3 0,-3 -132,-5 -296,-5 -163,0 -296,2 -296,5 0,1 19,2 52,3zm440 1c9,10 13,24 13,40 0,23 -8,42 -25,56 -17,14 -40,21 -70,21 -28,0 -50,-7 -65,-21 -15,-14 -23,-34 -23,-60 0,-13 2,-25 7,-36 62,0 119,-1 163,-1zm-197 -113l12 0c-5,-12 -8,-25 -8,-39 0,-28 11,-51 32,-71 21,-20 49,-30 82,-30 23,0 42,4 59,12 17,8 29,18 38,32 9,13 13,27 13,42 0,21 -8,40 -25,57 57,1 92,2 92,3 0,3 -132,5 -296,5 -163,0 -296,-2 -296,-5 0,-1 21,-2 57,-3 4,-15 9,-30 15,-43 15,-33 35,-58 58,-74 24,-16 48,-25 74,-25 27,0 49,7 67,22 15,12 23,26 23,42 0,11 -3,20 -10,27 -7,7 -15,11 -25,11 -9,0 -17,-3 -23,-9 -6,-6 -10,-13 -10,-21 0,-5 2,-11 6,-18 4,-6 6,-11 6,-15 0,-5 -2,-9 -7,-12 -7,-4 -15,-6 -27,-6 -18,0 -34,5 -48,16 -14,11 -27,30 -37,57 -6,15 -10,31 -12,49 51,-1 116,-1 187,-1zm85 0c32,0 61,0 88,1 3,-4 6,-7 8,-10 6,-11 10,-24 10,-41 0,-23 -6,-40 -19,-52 -13,-12 -31,-18 -56,-18 -24,0 -42,6 -55,17 -13,11 -20,26 -20,45 0,18 6,33 17,43 5,5 14,11 27,16z"/>
 </g>
</svg>
