<?xml version="1.0" encoding="UTF-8"?>
<!DOCTYPE svg PUBLIC "-//W3C//DTD SVG 1.1//EN" "http://www.w3.org/Graphics/SVG/1.1/DTD/svg11.dtd">
<!-- Creator: CorelDRAW 2020 (64-Bit) -->
<svg xmlns="http://www.w3.org/2000/svg" xml:space="preserve" width="591px" height="591px" version="1.1" style="shape-rendering:geometricPrecision; text-rendering:geometricPrecision; image-rendering:optimizeQuality; fill-rule:evenodd; clip-rule:evenodd"
viewBox="0 0 591 591"
 xmlns:xlink="http://www.w3.org/1999/xlink"
 xmlns:xodm="http://www.corel.com/coreldraw/odm/2003">
 <defs>
  <style type="text/css">
   <![CDATA[
    .fil0 {fill:#FFF;fill-rule:nonzero}
   ]]>
  </style>
 </defs>
 <g id="Layer_x0020_1">
  <metadata id="CorelCorpID_0Corel-Layer"/>
  <path class="fil0" d="M232 22l18 0 0 134c15,0 30,0 46,0 59,0 114,0 160,1 4,-8 8,-16 12,-23l38 -69 -147 0c-11,0 -19,4 -24,11 -5,8 -12,30 -19,68l-19 0 19 -129c18,4 37,7 58,7l169 0 0 13c-25,44 -43,80 -56,110 -2,4 -3,8 -5,12 67,1 111,2 111,4 0,3 -132,5 -296,5 -163,0 -296,-2 -296,-5 0,-2 54,-3 136,-4l97 -135zm-29 134l0 -60 -43 60c14,0 28,0 43,0zm92 104c163,0 296,2 296,5 0,2 -56,3 -141,4 -3,18 -4,37 -6,58 -2,30 -4,49 -5,56 -2,7 -5,13 -10,16 -5,4 -11,6 -19,6 -9,0 -16,-3 -21,-9 -5,-6 -8,-16 -8,-29 0,-12 2,-26 6,-44 3,-13 9,-31 18,-54 -34,0 -71,0 -110,0 -16,0 -31,0 -46,0l0 9 62 0 0 23 -62 0 0 58c0,5 2,9 6,12 6,4 12,6 20,6l23 0 0 21 -151 0 0 -21 28 0c9,0 16,-2 21,-6 4,-4 7,-10 7,-17l0 -53 -153 0 0 -26 6 -8c-35,-1 -56,-2 -56,-3 0,-3 132,-5 296,-5zm-92 9c-48,0 -90,-1 -124,-1l-7 10 131 0 0 -9z"/>
 </g>
</svg>
