<?xml version="1.0" encoding="UTF-8"?>
<!DOCTYPE svg PUBLIC "-//W3C//DTD SVG 1.1//EN" "http://www.w3.org/Graphics/SVG/1.1/DTD/svg11.dtd">
<!-- Creator: CorelDRAW 2020 (64-Bit) -->
<svg xmlns="http://www.w3.org/2000/svg" xml:space="preserve" width="591px" height="591px" version="1.1" style="shape-rendering:geometricPrecision; text-rendering:geometricPrecision; image-rendering:optimizeQuality; fill-rule:evenodd; clip-rule:evenodd"
viewBox="0 0 591 591"
 xmlns:xlink="http://www.w3.org/1999/xlink"
 xmlns:xodm="http://www.corel.com/coreldraw/odm/2003">
 <defs>
  <style type="text/css">
   <![CDATA[
    .fil0 {fill:#FFF;fill-rule:nonzero}
   ]]>
  </style>
 </defs>
 <g id="Layer_x0020_1">
  <metadata id="CorelCorpID_0Corel-Layer"/>
  <path class="fil0" d="M230 22l18 0 0 134c15,0 31,0 47,0 24,0 48,0 71,0l96 -134 18 0 0 135c68,1 111,2 111,4 0,3 -132,5 -296,5 -163,0 -296,-2 -296,-5 0,-2 53,-3 134,-4l97 -135zm-29 134l0 -60 -43 60c14,0 28,0 43,0zm93 104c163,0 296,2 296,5 0,1 -43,3 -111,4l0 10 62 0 0 23 -62 0 0 58c0,5 2,9 6,12 6,4 12,6 20,6l23 0 0 21 -151 0 0 -21 28 0c9,0 16,-2 21,-6 4,-4 7,-10 7,-17l0 -53 -153 0 0 -26 4 -6c-12,0 -25,0 -37,0l0 9 62 0 0 23 -62 0 0 58c0,5 2,9 6,12 6,4 12,6 20,6l23 0 0 21 -151 0 0 -21 28 0c9,0 16,-2 21,-6 4,-4 7,-10 7,-17l0 -53 -153 0 0 -26 6 -8c-34,-1 -54,-2 -54,-3 0,-3 132,-5 296,-5zm138 9c-37,0 -80,1 -125,1l-6 9 131 0 0 -9zm-232 0c-48,0 -90,-1 -124,-1l-7 10 131 0 0 -9zm189 -113c15,0 29,0 43,0l0 -61 -43 60z"/>
 </g>
</svg>
