<?xml version="1.0" encoding="UTF-8"?>
<!DOCTYPE svg PUBLIC "-//W3C//DTD SVG 1.1//EN" "http://www.w3.org/Graphics/SVG/1.1/DTD/svg11.dtd">
<!-- Creator: CorelDRAW 2020 (64-Bit) -->
<svg xmlns="http://www.w3.org/2000/svg" xml:space="preserve" width="591px" height="591px" version="1.1" style="shape-rendering:geometricPrecision; text-rendering:geometricPrecision; image-rendering:optimizeQuality; fill-rule:evenodd; clip-rule:evenodd"
viewBox="0 0 591 591"
 xmlns:xlink="http://www.w3.org/1999/xlink"
 xmlns:xodm="http://www.corel.com/coreldraw/odm/2003">
 <defs>
  <style type="text/css">
   <![CDATA[
    .fil0 {fill:#FFF;fill-rule:nonzero}
   ]]>
  </style>
 </defs>
 <g id="Layer_x0020_1">
  <metadata id="CorelCorpID_0Corel-Layer"/>
  <path class="fil0" d="M301 333c-5,11 -11,21 -19,30 -24,28 -58,42 -103,42 -39,0 -70,-9 -93,-28 -23,-19 -34,-42 -34,-70 0,-14 3,-27 9,-39 -39,-1 -62,-2 -62,-3 0,-3 132,-5 296,-5 163,0 296,2 296,5 0,1 -21,2 -57,3 -6,36 -17,65 -34,88 -25,33 -56,50 -92,50 -35,0 -63,-14 -87,-42 -7,-9 -14,-19 -20,-30l0 0zm-202 -65c-5,11 -7,23 -7,37 0,26 8,45 23,60 15,14 37,21 65,21 30,0 53,-7 70,-21 17,-14 25,-33 25,-56 0,-16 -4,-29 -12,-39 -62,0 -119,-1 -163,-1zm234 1c3,38 9,66 19,82 14,23 32,35 56,35 24,0 42,-11 54,-33 11,-18 17,-47 20,-86 -42,1 -93,1 -149,1zm0 -114c57,0 108,0 150,1 -3,-40 -9,-69 -19,-86 -14,-24 -33,-36 -56,-36 -24,0 -43,11 -56,34 -10,16 -16,45 -18,87zm201 2c35,1 56,2 56,3 0,3 -132,5 -296,5 -163,0 -296,-2 -296,-5 0,-1 30,-2 78,-3 -6,-12 -9,-26 -9,-41 0,-28 11,-51 32,-71 21,-20 49,-30 82,-30 23,0 42,4 59,12 17,8 29,18 38,32 9,13 13,27 13,42 0,21 -8,39 -23,55l13 0c6,-38 18,-70 37,-96 22,-30 51,-45 87,-45 35,0 65,14 88,41 21,25 35,58 40,101zm-384 -1c27,0 56,0 88,-1 3,-3 6,-6 8,-10 6,-11 10,-24 10,-41 0,-23 -6,-40 -19,-52 -13,-12 -31,-18 -56,-18 -24,0 -42,6 -55,17 -13,11 -20,26 -20,45 0,18 6,33 17,43 5,5 15,11 28,17z"/>
 </g>
</svg>
