<?xml version="1.0" encoding="UTF-8"?>
<!DOCTYPE svg PUBLIC "-//W3C//DTD SVG 1.1//EN" "http://www.w3.org/Graphics/SVG/1.1/DTD/svg11.dtd">
<!-- Creator: CorelDRAW 2020 (64-Bit) -->
<svg xmlns="http://www.w3.org/2000/svg" xml:space="preserve" width="591px" height="591px" version="1.1" style="shape-rendering:geometricPrecision; text-rendering:geometricPrecision; image-rendering:optimizeQuality; fill-rule:evenodd; clip-rule:evenodd"
viewBox="0 0 591 591"
 xmlns:xlink="http://www.w3.org/1999/xlink"
 xmlns:xodm="http://www.corel.com/coreldraw/odm/2003">
 <defs>
  <style type="text/css">
   <![CDATA[
    .fil0 {fill:#FFF;fill-rule:nonzero}
   ]]>
  </style>
 </defs>
 <g id="Layer_x0020_1">
  <metadata id="CorelCorpID_0Corel-Layer"/>
  <path class="fil0" d="M234 22l18 0 0 134c14,0 28,0 43,0 9,0 18,0 27,0l4 -49c3,-31 4,-62 4,-91 46,10 83,16 112,16 14,0 26,-1 38,-4 12,-3 21,-6 27,-9 3,-2 5,-2 6,-2 2,0 3,1 3,4 0,6 -4,15 -12,25 -8,10 -19,19 -33,25 -14,6 -30,9 -48,9 -21,0 -47,-3 -76,-10l-7 87c15,0 29,0 43,0 11,-3 21,-4 31,-4 13,0 24,1 35,4 86,1 143,2 143,4 0,3 -132,5 -296,5 -163,0 -296,-2 -296,-5 0,-2 55,-3 138,-4l97 -135zm-29 134l0 -60 -43 60c14,0 28,0 43,0zm89 104c163,0 296,2 296,5 0,1 -20,2 -53,3 0,2 0,4 0,6 0,38 -13,70 -39,94 -26,25 -59,37 -100,37 -31,0 -57,-9 -76,-27 -20,-18 -29,-39 -29,-63 0,-15 3,-26 9,-34 5,-7 12,-11 20,-12 -9,0 -19,0 -28,0 -15,0 -29,0 -43,0l0 9 62 0 0 23 -62 0 0 58c0,5 2,9 6,12 6,4 12,6 20,6l23 0 0 21 -151 0 0 -21 28 0c9,0 16,-2 21,-6 4,-4 7,-10 7,-17l0 -53 -153 0 0 -26 6 -8c-37,-1 -58,-2 -58,-3 0,-3 132,-5 296,-5zm187 8c-42,1 -94,1 -151,1 8,1 14,4 19,9 6,6 9,15 9,25 0,8 -1,14 -4,18 -3,4 -8,8 -16,11 -8,3 -12,7 -12,11 0,6 3,12 8,19 5,7 14,13 24,17 11,4 23,7 38,7 28,0 49,-9 63,-26 15,-17 22,-45 22,-84 0,-3 0,-6 0,-8zm-276 1c-48,0 -90,-1 -124,-1l-7 10 131 0 0 -9z"/>
 </g>
</svg>
