<?xml version="1.0" encoding="UTF-8"?>
<!DOCTYPE svg PUBLIC "-//W3C//DTD SVG 1.1//EN" "http://www.w3.org/Graphics/SVG/1.1/DTD/svg11.dtd">
<!-- Creator: CorelDRAW 2020 (64-Bit) -->
<svg xmlns="http://www.w3.org/2000/svg" xml:space="preserve" width="591px" height="591px" version="1.1" style="shape-rendering:geometricPrecision; text-rendering:geometricPrecision; image-rendering:optimizeQuality; fill-rule:evenodd; clip-rule:evenodd"
viewBox="0 0 591 591"
 xmlns:xlink="http://www.w3.org/1999/xlink"
 xmlns:xodm="http://www.corel.com/coreldraw/odm/2003">
 <defs>
  <style type="text/css">
   <![CDATA[
    .fil0 {fill:#FFF;fill-rule:nonzero}
   ]]>
  </style>
 </defs>
 <g id="Layer_x0020_1">
  <metadata id="CorelCorpID_0Corel-Layer"/>
  <path class="fil0" d="M80 16c18,4 37,7 58,7l169 0 0 13c-25,44 -43,80 -56,110 -2,4 -3,7 -4,11 15,0 31,0 48,0l6 0c-8,-10 -11,-23 -11,-38 0,-18 5,-35 14,-50 9,-15 24,-28 43,-37 19,-10 40,-15 62,-15 22,0 42,5 61,14 19,9 33,22 42,37 9,15 14,32 14,50 0,13 -2,25 -7,38 0,1 -1,2 -1,3 46,1 73,2 73,3 0,3 -132,5 -296,5 -163,0 -296,-2 -296,-5 0,-2 95,-4 223,-5 4,-8 8,-16 11,-22l38 -69 -147 0c-11,0 -19,4 -24,11 -5,8 -12,30 -19,68l-19 0 19 -129zm214 245c163,0 296,2 296,5 0,2 -72,4 -175,4l-37 31c-18,15 -31,28 -40,39 -8,11 33,16 122,16 13,0 23,-4 29,-11 6,-7 12,-27 20,-59l19 0 -9 113 -242 0 0 -15 79 -90c8,-9 16,-17 22,-25 -27,0 -55,0 -84,0 -27,0 -53,0 -78,0 -3,18 -4,37 -5,58 -2,30 -4,49 -5,56 -2,7 -5,13 -10,16 -5,4 -11,6 -19,6 -9,0 -16,-3 -21,-9 -5,-6 -8,-16 -8,-29 0,-12 2,-26 6,-44 3,-13 9,-31 18,-54 -102,-1 -173,-2 -173,-4 0,-3 132,-5 296,-5zm65 -104c37,0 71,0 101,1 0,-1 1,-2 1,-3 6,-16 9,-31 9,-45 0,-22 -6,-40 -18,-52 -12,-13 -29,-19 -51,-19 -24,0 -44,6 -60,18 -15,12 -23,24 -23,37 0,5 1,8 4,10 2,2 7,4 14,6 18,4 27,15 27,32 0,6 -1,11 -4,15z"/>
 </g>
</svg>
