<?xml version="1.0" encoding="UTF-8"?>
<!DOCTYPE svg PUBLIC "-//W3C//DTD SVG 1.1//EN" "http://www.w3.org/Graphics/SVG/1.1/DTD/svg11.dtd">
<!-- Creator: CorelDRAW 2020 (64-Bit) -->
<svg xmlns="http://www.w3.org/2000/svg" xml:space="preserve" width="591px" height="591px" version="1.1" style="shape-rendering:geometricPrecision; text-rendering:geometricPrecision; image-rendering:optimizeQuality; fill-rule:evenodd; clip-rule:evenodd"
viewBox="0 0 591 591"
 xmlns:xlink="http://www.w3.org/1999/xlink"
 xmlns:xodm="http://www.corel.com/coreldraw/odm/2003">
 <defs>
  <style type="text/css">
   <![CDATA[
    .fil0 {fill:#FFF;fill-rule:nonzero}
   ]]>
  </style>
 </defs>
 <g id="Layer_x0020_1">
  <metadata id="CorelCorpID_0Corel-Layer"/>
  <path class="fil0" d="M75 16c18,4 37,7 58,7l169 0 0 13c-25,44 -43,80 -56,110 -2,4 -3,7 -4,11 12,0 24,0 37,0 0,-4 0,-7 0,-11 0,-36 12,-67 37,-92 25,-25 54,-38 88,-38 37,0 69,16 94,47 19,24 31,56 36,96 37,1 58,2 58,3 0,3 -132,5 -296,5 -163,0 -296,-2 -296,-5 0,-2 92,-4 218,-5 4,-8 8,-16 11,-22l38 -69 -147 0c-11,0 -19,4 -24,11 -5,8 -12,30 -19,68l-19 0 19 -129zm220 245c163,0 296,2 296,5 0,1 -24,2 -64,3 -3,15 -8,30 -13,43 -14,32 -32,56 -55,72 -23,16 -49,23 -77,23 -28,0 -49,-6 -65,-18 -16,-12 -23,-27 -23,-44 0,-11 3,-20 10,-27 6,-7 14,-10 24,-10 9,0 16,3 23,9 6,6 9,13 9,21 0,6 -3,12 -8,19 -3,5 -5,8 -5,12 0,5 3,9 9,13 6,4 16,5 29,5 19,0 35,-5 50,-16 14,-10 26,-27 35,-51 5,-14 9,-31 11,-51 -50,1 -114,1 -183,1 -29,0 -57,0 -84,0 -3,18 -4,37 -5,58 -2,30 -4,49 -5,56 -2,7 -5,13 -10,16 -5,4 -11,6 -19,6 -9,0 -16,-3 -21,-9 -5,-6 -8,-16 -8,-29 0,-12 2,-26 6,-44 3,-13 9,-31 18,-54 -99,-1 -168,-2 -168,-4 0,-3 132,-5 296,-5zm40 -104c53,0 101,0 142,1 1,-7 1,-14 1,-22 0,-31 -7,-55 -22,-73 -15,-18 -32,-27 -53,-27 -20,0 -37,8 -50,25 -13,17 -19,42 -19,76 0,7 0,13 1,19z"/>
 </g>
</svg>
