<?xml version="1.0" encoding="UTF-8"?>
<!DOCTYPE svg PUBLIC "-//W3C//DTD SVG 1.1//EN" "http://www.w3.org/Graphics/SVG/1.1/DTD/svg11.dtd">
<!-- Creator: CorelDRAW 2020 (64-Bit) -->
<svg xmlns="http://www.w3.org/2000/svg" xml:space="preserve" width="591px" height="591px" version="1.1" style="shape-rendering:geometricPrecision; text-rendering:geometricPrecision; image-rendering:optimizeQuality; fill-rule:evenodd; clip-rule:evenodd"
viewBox="0 0 591 591"
 xmlns:xlink="http://www.w3.org/1999/xlink"
 xmlns:xodm="http://www.corel.com/coreldraw/odm/2003">
 <defs>
  <style type="text/css">
   <![CDATA[
    .fil0 {fill:none}
    .fil1 {fill:#2B2A29;fill-rule:nonzero}
   ]]>
  </style>
 </defs>
 <g id="Layer_x0020_1">
  <metadata id="CorelCorpID_0Corel-Layer"/>
  <rect class="fil0" x="-1" y="1" width="591" height="591"/>
  <path class="fil1" d="M513 118c-1,-1 -9,-9 -17,-25 -21,-39 -3,-68 10,-77 11,-7 23,-9 31,-8 8,1 19,5 27,16 9,12 22,48 -12,77 -14,12 -33,18 -35,18 0,0 -1,6 1,8 0,0 -3,0 -5,-1 0,1 0,2 0,3 0,3 -1,6 -2,9 -2,3 -4,5 -6,7 -2,2 -5,4 -7,6 -4,3 -8,6 -11,9l-4 0c2,-2 4,-4 6,-6 2,-2 5,-4 8,-6 3,-2 5,-3 7,-5 2,-2 5,-4 6,-6 2,-2 3,-5 3,-8 0,-1 0,-2 0,-3l0 0c-2,-1 -4,-2 -6,-3 1,0 3,-1 4,-2l0 -1 0 1c1,-1 2,-3 2,-3zm23 -67c0,0 -4,-9 -5,-9 -2,1 -6,8 -7,9 -2,1 -9,1 -10,3 -1,2 5,7 6,9 0,2 -2,10 0,11 2,1 8,-4 10,-3 2,0 9,5 10,5 2,-1 0,-9 1,-11 1,-2 7,-6 7,-8 0,-2 -9,-3 -10,-4z"/>
  <path class="fil1" d="M404 53c0,0 19,-12 19,-26 0,-7 -3,-12 -10,-11 -7,1 -9,6 -9,6 0,0 -2,-4 -9,-3 -6,1 -11,5 -11,14 0,13 19,20 19,20z"/>
  <path class="fil1" d="M84 84c0,0 16,-10 16,-21 0,-6 -2,-10 -8,-9 -6,1 -7,5 -7,5 0,0 -2,-3 -7,-3 -5,1 -9,4 -9,11 0,10 16,16 16,16z"/>
  <path class="fil1" d="M104 34c0,0 9,-6 9,-12 0,-3 -1,-6 -5,-5 -3,0 -4,3 -4,3 0,0 -1,-2 -4,-1 -3,0 -5,2 -5,6 0,6 9,9 9,9z"/>
  <path class="fil1" d="M470 78c0,0 -5,-12 -7,-11 -3,1 -7,10 -9,11 -2,1 -12,1 -13,3 -1,2 7,9 7,11 0,2 -3,12 0,13 2,1 10,-5 12,-4 2,0 11,7 13,6 3,-1 0,-12 1,-14 1,-2 9,-7 9,-10 0,-2 -11,-4 -13,-5z"/>
  <path class="fil1" d="M39 47c0,0 3,-9 2,-10 -2,-1 -9,2 -11,2 -2,-1 -7,-5 -9,-5 -2,1 -1,9 -2,10 -1,1 -8,6 -7,8 1,2 8,3 9,4 1,1 3,9 4,10 2,1 6,-7 7,-7 2,-1 9,1 10,-1 1,-1 -4,-8 -5,-9z"/>
  <path class="fil1" d="M205 143l0 1c1,1 3,1 4,1 -1,1 -3,2 -4,3l0 0c0,1 0,2 0,3 1,2 2,5 4,6 2,1 3,3 5,4l-4 0c-1,-1 -2,-2 -3,-2 -2,-2 -3,-5 -4,-7 0,-1 0,-2 0,-2 -2,1 -4,2 -4,2 1,-2 0,-7 0,-7 -1,0 -18,-1 -32,-8 -33,-18 -29,-49 -24,-61 5,-11 13,-16 20,-18 6,-2 17,-3 27,1 13,5 33,26 23,61 -4,14 -8,22 -9,23 0,0 0,1 2,2l0 0zm-17 -48c0,0 3,-9 2,-10 -2,-1 -9,2 -11,2 -2,-1 -7,-5 -9,-5 -2,1 -1,9 -2,10 -1,1 -8,6 -7,8 1,2 8,3 9,4 1,1 3,9 4,10 2,1 6,-7 7,-7 2,-1 9,1 10,-1 1,-1 -4,-8 -5,-9z"/>
  <path class="fil1" d="M42 360c0,0 3,-9 2,-9 -2,-1 -9,2 -10,2 -1,-1 -7,-5 -8,-4 -2,1 -1,8 -1,9 -1,1 -7,5 -7,7 1,2 8,3 9,4 1,1 3,9 4,9 2,1 6,-7 7,-7 1,-1 8,1 10,-1 1,-1 -4,-7 -5,-9z"/>
  <path class="fil1" d="M98 297c0,0 -16,-15 -29,-15 -14,0 -24,18 -12,24 11,6 25,-7 14,-15 -10,-8 -39,-11 -49,9l4 3c0,0 3,-11 19,-14 15,-3 26,4 23,11 -3,7 -12,3 -11,-3 1,-6 6,-20 41,-1z"/>
  <path class="fil1" d="M148 339c0,0 -25,-23 -37,-15l-1 7c0,0 14,-5 39,9z"/>
  <polygon class="fil1" points="73,348 77,333 65,339 "/>
  <polygon class="fil1" points="29,314 26,327 18,322 "/>
  <path class="fil1" d="M50 391c0,2 1,5 3,5 2,0 5,-1 5,-3 0,-2 -1,-5 -3,-5 -2,0 -5,1 -5,3z"/>
  <path class="fil1" d="M383 409c0,0 13,-42 54,-52 41,-10 42,-21 43,-32l9 2c0,0 -2,23 -31,31 -29,8 -55,20 -75,51z"/>
  <path class="fil1" d="M466 377c0,0 23,-17 41,-14 18,2 28,28 12,34 -16,6 -31,-14 -16,-23 15,-9 53,-8 62,21l-6 3c0,0 -2,-15 -22,-22 -20,-7 -35,0 -32,11 3,10 15,6 15,-2 0,-8 -4,-27 -54,-8z"/>
  <path class="fil1" d="M403 311c0,0 23,-39 41,-34l4 8c0,0 -19,-1 -46,25z"/>
  <path class="fil1" d="M187 360c0,0 -5,-7 -4,-8 1,-1 9,-1 10,-2 1,-1 5,-7 7,-7 2,0 3,8 4,9 1,1 9,3 9,5 0,2 -7,5 -7,6 -1,1 0,9 -1,10 -2,1 -7,-5 -9,-5 -2,0 -8,3 -10,1 -1,-1 2,-8 2,-10z"/>
  <polygon class="fil1" points="387,297 376,280 394,283 "/>
  <polygon class="fil1" points="501,293 490,277 508,279 "/>
  <polygon class="fil1" points="421,343 438,325 444,336 "/>
  <path class="fil1" d="M390 337c1,3 0,6 -2,8 -3,1 -6,0 -8,-2 -1,-3 0,-6 2,-8 3,-1 6,0 8,2z"/>
  <path class="fil1" d="M546 339c1,3 0,6 -2,8 -3,1 -6,0 -8,-2 -1,-3 0,-6 2,-8 3,-1 6,0 8,2z"/>
  <path class="fil1" d="M125 113c0,0 -18,22 -36,24 -18,3 -34,-20 -20,-30 14,-10 33,5 21,18 -12,12 -49,21 -65,-4l5 -4c0,0 6,14 27,15 21,1 34,-9 28,-19 -5,-9 -16,-2 -14,6 2,8 11,25 54,-6z"/>
  <polygon class="fil1" points="200,34 204,19 192,25 "/>
  <path class="fil1" d="M399 134c0,0 18,-29 32,-25l3 6c0,0 -14,-1 -35,18z"/>
  <path class="fil1" d="M404 108c0,0 13,-42 31,-41l6 7c0,0 -18,4 -37,34z"/>
  <path class="fil1" d="M381 80c1,3 0,6 -2,8 -3,1 -6,0 -8,-2 -1,-3 0,-6 2,-8 3,-1 6,0 8,2z"/>
  <path class="fil1" d="M230 326c0,0 16,-10 16,-21 0,-6 -2,-10 -8,-9 -6,1 -7,5 -7,5 0,0 -2,-3 -7,-3 -5,1 -9,4 -9,11 0,10 16,16 16,16z"/>
  <path class="fil1" d="M331 334c0,0 -3,-9 -2,-10 2,-1 9,2 11,2 2,-1 7,-5 9,-5 2,1 1,9 2,10 1,1 8,6 7,8 -1,2 -8,3 -9,4 -1,1 -3,9 -4,10 -2,1 -6,-7 -7,-7 -2,-1 -9,1 -10,-1 -1,-1 4,-8 5,-9z"/>
  <polygon class="fil1" points="266,377 271,362 258,368 "/>
  <polygon class="fil1" points="329,311 318,294 336,297 "/>
  <path class="fil1" d="M361 371c1,3 0,6 -2,8 -3,1 -6,0 -8,-2 -1,-3 0,-6 2,-8 3,-1 6,0 8,2z"/>
  <path class="fil1" d="M331 354c0,0 -17,12 -30,11 -13,-2 -20,-20 -9,-25 12,-5 23,10 12,17 -11,7 -39,6 -46,-15l4 -2c0,0 2,11 16,16 15,5 26,0 24,-8 -2,-8 -11,-5 -11,1 0,6 3,20 40,6z"/>
 </g>
</svg>
