<?xml version="1.0" encoding="UTF-8"?>
<!DOCTYPE svg PUBLIC "-//W3C//DTD SVG 1.1//EN" "http://www.w3.org/Graphics/SVG/1.1/DTD/svg11.dtd">
<!-- Creator: CorelDRAW 2020 (64-Bit) -->
<svg xmlns="http://www.w3.org/2000/svg" xml:space="preserve" width="591px" height="591px" version="1.1" style="shape-rendering:geometricPrecision; text-rendering:geometricPrecision; image-rendering:optimizeQuality; fill-rule:evenodd; clip-rule:evenodd"
viewBox="0 0 591 591"
 xmlns:xlink="http://www.w3.org/1999/xlink"
 xmlns:xodm="http://www.corel.com/coreldraw/odm/2003">
 <defs>
  <style type="text/css">
   <![CDATA[
    .fil1 {fill:#FFF;fill-rule:nonzero}
    .fil0 {fill:#FFF;fill-rule:nonzero}
   ]]>
  </style>
 </defs>
 <g id="Layer_x0020_1">
  <metadata id="CorelCorpID_0Corel-Layer"/>
  <path class="fil0" d="M111 119c0,0 -3,9 -2,10 2,1 9,-2 11,-2 2,1 7,5 9,5 2,-1 1,-9 2,-10 1,-1 8,-6 7,-8 -1,-2 -8,-3 -9,-4 -1,-1 -3,-9 -4,-10 -2,-1 -6,7 -7,7 -2,1 -9,-1 -10,1 -1,1 4,8 5,9z"/>
  <path class="fil0" d="M526 366c0,0 -4,12 -2,13 3,1 12,-3 14,-2 2,1 9,7 12,6 2,-1 1,-12 2,-13 1,-2 10,-7 9,-10 -1,-3 -11,-4 -12,-5 -1,-1 -4,-12 -6,-13 -3,-1 -8,9 -10,10 -2,1 -12,-1 -14,2 -1,2 6,10 7,13z"/>
  <path class="fil0" d="M361 68c0,0 -5,8 -4,9 2,1 9,0 11,1 1,1 6,7 8,6 2,-1 2,-8 3,-9 1,-1 9,-4 8,-6 0,-2 -8,-4 -8,-5 -1,-1 -1,-10 -2,-11 -2,-1 -7,6 -9,6 -2,0 -9,-2 -10,-1 -1,1 3,8 3,10z"/>
  <path class="fil0" d="M35 70c0,0 3,-9 2,-10 -2,-1 -9,2 -11,2 -2,-1 -7,-5 -9,-5 -2,1 -1,9 -2,10 -1,1 -8,6 -7,8 1,2 8,3 9,4 1,1 3,9 4,10 2,1 6,-7 7,-7 2,-1 9,1 10,-1 1,-1 -4,-8 -5,-9z"/>
  <path class="fil0" d="M360 386c0,0 4,-12 2,-13 -3,-1 -12,3 -14,2 -2,-1 -9,-7 -12,-6 -2,1 -1,12 -2,13 -1,2 -10,7 -9,10 1,3 11,4 12,5 1,1 4,12 6,13 3,1 8,-9 10,-10 2,-1 12,1 14,-2 1,-2 -6,-10 -7,-13z"/>
  <path class="fil0" d="M115 25c0,0 5,-8 4,-9 -2,-1 -9,0 -11,-1 -1,-1 -6,-7 -8,-6 -2,1 -2,8 -3,9 -1,1 -9,4 -8,6 0,2 8,4 8,5 1,1 1,10 2,11 2,1 7,-6 9,-6 2,0 9,2 10,1 1,-1 -3,-8 -3,-10z"/>
  <path class="fil0" d="M88 133c1,3 0,6 -2,8 -3,1 -6,0 -8,-2 -1,-3 0,-6 2,-8 3,-1 6,0 8,2z"/>
  <path class="fil0" d="M108 77c1,3 0,6 -2,8 -3,1 -6,0 -8,-2 -1,-3 0,-6 2,-8 3,-1 6,0 8,2z"/>
  <path class="fil0" d="M195 61c1,3 0,6 -2,8 -3,1 -6,0 -8,-2 -1,-3 0,-6 2,-8 3,-1 6,0 8,2z"/>
  <path class="fil0" d="M479 301c1,3 0,6 -2,8 -3,1 -6,0 -8,-2 -1,-3 0,-6 2,-8 3,-1 6,0 8,2z"/>
  <path class="fil0" d="M532 307c1,3 0,6 -2,8 -3,1 -6,0 -8,-2 -1,-3 0,-6 2,-8 3,-1 6,0 8,2z"/>
  <path class="fil0" d="M304 365c1,3 0,6 -2,8 -3,1 -6,0 -8,-2 -1,-3 0,-6 2,-8 3,-1 6,0 8,2z"/>
  <path class="fil0" d="M378 30c1,3 0,6 -2,8 -3,1 -6,0 -8,-2 -1,-3 0,-6 2,-8 3,-1 6,0 8,2z"/>
  <path class="fil0" d="M299 327c0,0 23,-17 41,-14 18,2 28,28 12,34 -16,6 -31,-14 -16,-23 15,-9 53,-8 62,21l-6 3c0,0 -2,-15 -22,-22 -20,-7 -35,0 -32,11 3,10 15,6 15,-2 0,-8 -4,-27 -54,-8z"/>
  <path class="fil0" d="M148 132c0,0 12,-26 28,-33 17,-7 38,10 28,24 -11,13 -34,4 -25,-12 8,-15 42,-33 64,-13l-3 5c0,0 -9,-12 -30,-8 -20,4 -30,18 -23,25 7,8 16,-2 12,-9 -4,-7 -17,-21 -51,20z"/>
  <path class="fil0" d="M460 28c0,0 -10,21 -23,27 -14,6 -31,-8 -22,-19 9,-11 27,-3 20,9 -7,12 -34,27 -52,11l3 -4c0,0 8,10 24,6 17,-3 24,-14 18,-21 -6,-6 -13,2 -10,7 3,6 14,17 41,-16z"/>
  <polygon class="fil0" points="266,377 271,362 258,368 "/>
  <polygon class="fil0" points="19,138 23,123 11,129 "/>
  <polygon class="fil0" points="17,336 14,349 6,344 "/>
  <path class="fil0" d="M70 398c0,2 1,5 3,5 2,0 5,-1 5,-3 0,-2 -1,-5 -3,-5 -2,0 -5,1 -5,3z"/>
  <polygon class="fil0" points="387,297 376,280 394,283 "/>
  <polygon class="fil0" points="501,293 490,277 508,279 "/>
  <polygon class="fil0" points="421,343 438,325 444,336 "/>
  <polygon class="fil0" points="200,34 204,19 192,25 "/>
  <polygon class="fil0" points="310,350 299,334 317,336 "/>
  <path class="fil0" d="M202 354c0,0 -5,8 -4,9 2,1 9,0 11,1 1,1 6,7 8,6 2,-1 2,-8 3,-9 1,-1 9,-4 8,-6 0,-2 -8,-4 -8,-5 -1,-1 -1,-10 -2,-11 -2,-1 -7,6 -9,6 -2,0 -9,-2 -10,-1 -1,1 3,8 3,10z"/>
  <path class="fil1" d="M521 139l60 -11 -34 -41 34 -62 -91 23 31 16 0 75zm-37 -87l-1 21 30 -7 -29 -14zm33 109l-3 -87 -218 42c61,-14 122,-28 184,-42l0 -30c37,-8 73,-17 110,-25l-33 67 32 45 -67 15 0 15 -4 0z"/>
  <path class="fil1" d="M62 265l24 25 -35 63 91 -23 -31 -15 0 -48 4 0 4 39 203 -39 1 0c-57,13 -113,26 -170,39l0 30c-37,8 -73,17 -110,25l33 -67 -19 -27 5 0zm84 60l3 -20 -30 7 27 13z"/>
  <polygon class="fil0" points="563,301 568,286 555,292 "/>
  <path class="fil0" d="M248 299c1,3 0,6 -2,8 -3,1 -6,0 -8,-2 -1,-3 0,-6 2,-8 3,-1 6,0 8,2z"/>
  <polygon class="fil0" points="308,296 312,282 300,288 "/>
  <path class="fil0" d="M44 297c0,0 3,-9 2,-10 -2,-1 -9,2 -11,2 -2,-1 -7,-5 -9,-5 -2,1 -1,9 -2,10 -1,1 -8,6 -7,8 1,2 8,3 9,4 1,1 3,9 4,10 2,1 6,-7 7,-7 2,-1 9,1 10,-1 1,-1 -4,-8 -5,-9z"/>
 </g>
</svg>
