<?xml version="1.0" encoding="UTF-8"?>
<!DOCTYPE svg PUBLIC "-//W3C//DTD SVG 1.1//EN" "http://www.w3.org/Graphics/SVG/1.1/DTD/svg11.dtd">
<!-- Creator: CorelDRAW 2020 (64-Bit) -->
<svg xmlns="http://www.w3.org/2000/svg" xml:space="preserve" width="591px" height="591px" version="1.1" style="shape-rendering:geometricPrecision; text-rendering:geometricPrecision; image-rendering:optimizeQuality; fill-rule:evenodd; clip-rule:evenodd"
viewBox="0 0 591 591"
 xmlns:xlink="http://www.w3.org/1999/xlink"
 xmlns:xodm="http://www.corel.com/coreldraw/odm/2003">
 <defs>
  <style type="text/css">
   <![CDATA[
    .fil0 {fill:#FFF;fill-rule:nonzero}
   ]]>
  </style>
 </defs>
 <g id="Layer_x0020_1">
  <metadata id="CorelCorpID_0Corel-Layer"/>
  <path class="fil0" d="M306 27c4,2 10,1 13,-1 10,-5 14,-15 26,-15 1,0 2,0 3,0 4,0 7,4 7,7 0,1 -1,3 -2,4 -1,1 -1,1 -2,1 -1,0 -2,0 -3,0 2,-2 -3,-4 -3,-1 0,3 3,4 6,4 7,0 9,-8 7,-12 -1,-3 -4,-4 -7,-5 -2,-1 -9,-1 -10,1 1,-2 0,-3 2,-5 0,0 -5,0 -5,0 -2,0 -4,1 -6,2 -3,2 -6,5 -5,8 -2,-2 -8,-4 -5,-7 0,0 0,0 0,0 -3,2 -2,6 -3,9 -3,5 -15,8 -18,3 -2,-3 -2,-7 1,-10 2,-1 7,-2 8,1 -2,0 -3,3 -1,3 4,1 4,-5 1,-6 -3,-2 -6,-2 -9,-1 -6,3 -5,12 -1,16 1,1 2,2 4,2zm-125 346c0,0 1,0 1,0 2,0 4,0 7,0 5,1 9,2 13,4 0,0 0,-1 0,-1 -1,-7 -6,-18 -6,-18 0,0 7,6 10,15 1,2 2,5 2,8 2,2 4,4 5,6 0,-8 -1,-20 -6,-33 -9,-21 -31,-25 -31,-25 0,0 5,16 5,22 0,5 -1,13 0,22zm118 19c0,0 0,0 0,0 0,0 0,0 0,0 0,0 0,0 0,0 0,0 0,0 0,0zm6 -13c11,-6 27,-3 39,12 7,9 15,13 21,9 1,-1 2,-2 3,-3 -4,0 -8,-1 -9,-2 -1,-2 4,-1 11,-3 0,-2 0,-4 -1,-6 -2,-2 -5,-4 -7,-3 -1,0 -2,1 -3,2 -1,1 0,2 -1,3 -1,1 -2,0 -2,-1 0,-2 2,-4 4,-5 4,-1 9,1 11,4 0,1 2,3 1,6 2,-1 4,-1 6,-2l-4 3c0,1 0,1 0,2l6 3c0,0 -3,0 -7,0 -1,1 -2,2 -4,3 -2,1 -4,2 -7,2 -1,0 -2,0 -4,0 0,2 2,2 4,2 -3,3 -7,2 -10,0 -4,-2 -5,-3 -6,-7 0,0 0,-1 -1,-1 -1,1 -1,2 -1,4 0,1 -1,1 -2,0 -6,-6 -4,-13 -10,-18 -7,-6 -19,-6 -26,-2 -3,2 -5,4 -6,7 9,-11 20,-9 24,-5 5,4 7,11 4,16 -4,5 -10,5 -13,3 -3,-2 -4,-6 -2,-9 2,-3 5,-3 8,-2 3,2 2,5 0,6 -1,1 -2,1 -1,2 1,1 3,1 5,-2 3,-3 2,-10 -3,-13 -4,-3 -17,-5 -23,7 3,-3 6,-2 9,0 1,1 1,1 0,1 0,0 -1,0 -1,0 0,0 0,0 0,1 1,3 1,5 -3,7 -1,0 -1,0 0,-1 1,0 3,-3 1,-5 -2,-2 -4,-2 -7,-1 0,0 0,0 0,0 0,0 -2,-1 -2,-1 1,-6 5,-10 9,-12zm-13 13c0,0 0,0 0,0 0,0 0,0 0,0 0,0 0,0 0,0 0,0 0,0 0,0zm-6 -13c-10,-6 -27,-3 -39,12 -7,9 -15,13 -21,9 -1,-1 -2,-2 -3,-3 4,0 8,-1 9,-2 1,-2 -4,-1 -11,-3 -1,-2 0,-5 1,-7 2,-2 5,-4 7,-3 1,0 2,1 3,2 1,1 0,2 1,3 1,1 2,0 2,-1 0,-2 -2,-4 -4,-5 -4,-1 -9,1 -11,4 0,1 -2,3 -1,6 -2,-1 -4,-1 -6,-2l4 3c0,1 0,1 0,2l-6 3c0,0 3,0 7,0 1,1 2,2 3,2 2,1 4,2 7,2 1,0 2,0 4,0 0,2 -2,2 -4,2 3,3 7,2 10,0 4,-2 5,-3 6,-7 0,0 0,-1 1,-1 1,1 1,2 1,4 0,1 1,1 2,0 6,-6 5,-13 10,-18 7,-6 19,-6 26,-2 3,2 5,4 6,7 -9,-11 -20,-9 -24,-5 -5,4 -8,11 -4,16 4,5 10,5 13,3 3,-2 4,-6 2,-9 -2,-3 -5,-3 -8,-2 -3,2 -2,5 0,6 1,1 2,1 1,2 -1,1 -3,1 -5,-2 -3,-3 -2,-10 3,-13 4,-3 17,-5 23,7 -3,-3 -6,-2 -9,0 -1,1 -1,1 0,1 0,0 1,0 1,0 0,0 0,0 0,1 -1,3 -1,5 3,7 1,0 1,0 0,-1 -1,0 -3,-3 -1,-5 2,-2 4,-2 7,0 0,0 0,0 0,0 0,0 2,-1 2,-1 -1,-6 -5,-10 -8,-12zm172 -337l5 0 -3 -6c0,0 12,10 11,12 -1,2 -5,-4 -14,-6zm-27 -9c-5,-4 -7,-8 -10,-11 -1,-1 -2,-3 -3,-4 -3,-4 -12,-13 -12,-13l-1 -1 1 -1c0,0 17,-8 33,2 2,2 5,3 7,5 13,11 17,23 17,23l1 3 -2 -2c0,0 -10,-10 -14,-13 -4,-3 -9,-4 -12,-3 3,1 7,4 9,6 6,5 13,14 13,14l1 1 -1 0c0,0 -12,5 -24,-3 -1,-1 -3,-2 -4,-3zm-2 1c0,0 1,1 1,1 1,1 3,2 4,3 3,2 7,3 10,4 0,0 -1,1 -1,1 -4,3 -13,8 -13,8 0,0 8,0 14,-4 2,-1 4,-2 6,-4 2,0 5,0 6,-1 -4,5 -11,12 -21,17 -16,9 -32,-1 -32,-1 0,0 11,-7 15,-11 3,-3 6,-8 11,-13zm75 41l5 2 -1 -7c0,0 8,14 7,16 -1,2 -3,-5 -11,-11zm-23 -18c-3,-5 -4,-10 -5,-15 0,-2 -1,-3 -1,-5 -2,-5 -7,-17 -7,-17l0 -1 1 0c0,0 19,-2 31,14 2,2 3,5 5,8 9,15 8,28 8,29l0 3 -2 -3c0,0 -6,-13 -9,-18 -3,-4 -7,-7 -10,-8 2,2 6,7 7,9 4,6 8,18 8,19l0 1 -1 0c-1,0 -13,0 -22,-11 -1,-1 -2,-3 -3,-4zm-2 0c0,0 0,1 1,1 1,2 2,3 3,5 2,3 5,6 8,7 0,0 -1,0 -1,0 -5,2 -15,3 -15,3 0,0 8,3 15,1 2,0 4,-1 7,-2 2,1 4,1 6,2 -6,4 -14,8 -26,9 -19,3 -31,-12 -31,-12 0,0 13,-3 18,-6 4,-2 8,-6 15,-9zm57 73l4 4 2 -7c0,0 3,16 1,17 -2,1 -1,-6 -7,-14zm-16 -25c-1,-6 -1,-11 0,-16 0,-2 0,-3 0,-5 0,-5 -1,-18 -1,-18l0 -1 1 0c0,0 19,5 25,24 1,3 2,6 2,9 3,18 -2,29 -2,30l-1 3 0 -3c0,0 -1,-15 -2,-20 -1,-5 -5,-9 -7,-11 1,3 3,8 4,11 2,7 1,20 1,20l0 1 -1 0c-1,0 -13,-4 -17,-18 -1,-2 -1,-3 -1,-5zm-2 -1c0,0 0,1 0,1 0,2 1,4 1,6 1,4 3,7 5,10 0,0 -1,0 -1,0 -6,0 -15,-3 -15,-3 0,0 6,5 14,6 2,0 4,1 7,1 2,2 4,3 5,4 -7,1 -16,2 -28,0 -18,-4 -25,-22 -25,-22 0,0 14,2 19,1 4,0 10,-3 17,-3zm24 55c1,-6 3,-11 5,-15 1,-2 1,-3 2,-5 2,-5 6,-18 6,-18l0 -1 1 1c0,0 17,12 16,32 0,3 0,6 -1,8l-10 0c-1,-2 -1,-4 -2,-5 0,1 0,3 0,5l-17 0c0,-1 0,-1 0,-2zm-2 -2c0,0 0,1 0,1 0,1 0,1 0,2l-32 0c-3,-8 -3,-14 -3,-14 0,0 13,6 18,8 4,1 11,1 18,3zm-2 108c-1,2 -3,3 -3,3 -1,0 -1,-1 0,-3l3 0zm-33 47l-1 6 7 -2c0,0 -14,12 -16,11 -2,-1 5,-5 10,-15zm15 -30c5,-4 11,-7 15,-9 2,-1 3,-2 5,-2 2,-1 6,-4 10,-6l10 0c1,7 1,22 -10,33 -2,3 -5,5 -7,7 -15,13 -29,15 -30,15l-4 0 3 -2c0,0 13,-9 18,-14 4,-4 6,-10 6,-13 -2,3 -6,8 -8,10 -6,6 -18,12 -19,12l-1 1 0 -1c0,-1 -3,-15 8,-27 1,-2 3,-3 4,-4zm-1 -3c0,0 -1,1 -1,1 -2,1 -3,3 -5,4 -3,3 -5,7 -7,11 0,0 0,-1 -1,-1 -3,-6 -6,-17 -6,-17 0,0 -1,9 2,17 1,2 2,5 3,7 0,3 -1,5 -1,7 -5,-6 -11,-15 -15,-28 -2,-6 -2,-12 -1,-17l19 0c3,4 8,8 12,15zm-72 82l-3 6 8 0c0,0 -18,6 -19,5 -2,-2 7,-3 15,-11zm25 -23c7,-2 13,-3 17,-3 2,0 4,0 5,-1 6,-1 21,-5 21,-5l1 0 0 1c0,0 -2,23 -22,33 -3,2 -6,3 -10,4 -19,7 -33,4 -34,4l-4 -1 3 -1c0,0 16,-4 22,-7 5,-2 10,-7 11,-10 -3,2 -9,5 -11,7 -8,3 -22,5 -22,5l-1 0 0 -1c0,-1 2,-15 17,-23 2,-1 4,-2 6,-3zm0 -3c0,0 -1,0 -1,0 -2,1 -4,2 -6,3 -4,2 -8,5 -10,8 0,0 0,-1 0,-1 -1,-6 0,-19 0,-19 0,0 -5,8 -4,17 0,2 0,5 1,8 -1,3 -2,5 -3,7 -3,-7 -6,-18 -5,-32 1,-22 20,-33 20,-33 0,0 1,16 3,22 1,5 5,11 7,20zm-64 40c7,0 13,2 18,3 2,1 4,1 6,1 6,1 21,3 22,3l1 0 -1 1c0,0 -10,22 -33,25 -4,0 -7,1 -11,1 -21,0 -34,-8 -34,-8l-3 -2 4 0c0,0 17,2 24,1 6,0 12,-3 14,-6 -4,1 -10,2 -13,2 -9,0 -23,-3 -24,-3l-1 0 1 -1c0,-1 8,-14 25,-16 2,0 4,0 6,0zm1 -3c0,0 -1,0 -1,0 -2,0 -4,0 -7,0 -5,1 -9,2 -13,4 0,0 0,-1 0,-1 1,-7 6,-18 6,-18 0,0 -7,6 -10,15 -1,2 -2,5 -2,8 -2,2 -4,4 -5,6 0,-8 1,-20 6,-33 9,-21 31,-25 31,-25 0,0 -5,16 -5,22 0,5 1,13 0,22zm-277 -331l-5 0 3 -6c0,0 -12,10 -11,12 1,2 5,-4 14,-6zm27 -9c-1,1 -3,2 -4,3 -12,8 -23,3 -24,3l-1 0 1 -1c0,0 7,-10 13,-14 2,-2 7,-4 9,-6 -3,-1 -8,1 -12,3 -4,3 -14,13 -14,13l-2 2 1 -3c0,0 4,-12 17,-23 2,-2 5,-4 7,-5 16,-10 33,-2 33,-2l1 1 -1 1c0,0 -9,9 -12,13 -1,1 -2,2 -3,4 -2,3 -5,8 -10,11zm2 1c0,0 -1,1 -1,1 -1,1 -3,2 -4,3 -3,2 -7,3 -10,4 0,0 1,1 1,1 4,3 13,8 13,8 0,0 -8,0 -14,-4 -2,-1 -4,-2 -6,-4 -2,0 -5,0 -6,-1 4,5 11,12 21,17 16,9 32,-1 32,-1 0,0 -11,-7 -15,-11 -3,-3 -6,-8 -11,-13zm-75 41l-5 2 1 -7c0,0 -8,14 -7,16 1,2 3,-5 11,-11zm23 -18c-1,2 -2,3 -3,4 -9,11 -21,11 -22,11l-1 0 0 -1c0,-1 4,-12 8,-19 1,-2 5,-7 7,-9 -3,0 -8,3 -10,8 -3,5 -9,18 -9,18l-2 3 0 -3c0,-1 0,-13 8,-29 1,-3 3,-5 5,-8 12,-16 31,-14 31,-14l1 0 0 1c0,0 -5,12 -7,17 0,1 -1,3 -1,5 -1,4 -2,9 -5,15zm2 0c0,0 0,1 -1,1 -1,2 -2,3 -3,5 -3,3 -5,6 -8,7 0,0 1,0 1,0 5,2 15,3 15,3 0,0 -8,3 -15,1 -2,0 -4,-1 -7,-2 -2,1 -4,1 -6,2 6,4 14,8 26,9 19,3 31,-12 31,-12 0,0 -13,-3 -18,-6 -4,-2 -8,-6 -15,-9zm-57 73l-4 4 -2 -7c0,0 -3,16 -1,17 2,1 1,-6 7,-14zm16 -25c0,2 -1,4 -1,5 -4,14 -16,18 -17,18l-1 0 0 -1c0,-1 -1,-13 1,-20 1,-3 2,-8 4,-11 -2,1 -6,6 -7,11 -1,6 -2,20 -2,20l0 3 -1 -3c0,-1 -5,-12 -2,-30 1,-3 1,-6 2,-9 6,-19 24,-24 25,-24l1 0 0 1c0,0 -1,13 -1,18 0,1 0,3 0,5 0,4 1,9 0,16zm2 -1c0,0 0,1 0,1 0,2 -1,4 -1,6 -1,4 -3,7 -5,10 0,0 1,0 1,0 6,0 15,-3 15,-3 0,0 -6,5 -14,6 -2,0 -4,1 -7,1 -2,2 -4,3 -5,4 7,1 16,2 28,0 18,-4 25,-22 25,-22 0,0 -14,2 -19,1 -4,0 -10,-3 -17,-3zm-24 55c0,1 0,1 0,2l-17 0c0,-2 0,-3 0,-5 -1,1 -2,3 -2,5l-10 0c0,-3 -1,-5 -1,-8 -1,-20 15,-32 16,-32l1 -1 0 1c0,0 4,13 6,18 1,1 1,3 2,5 2,4 4,9 5,15zm2 -2c0,0 0,1 0,1 0,1 0,1 0,2l32 0c3,-8 3,-14 3,-14 0,0 -13,6 -18,8 -4,1 -11,1 -18,3zm2 108c1,2 3,3 3,3 1,0 1,-1 0,-3l-3 0zm33 47l1 6 -7 -2c0,0 14,12 16,11 2,-1 -5,-5 -10,-15zm-15 -30c2,1 3,3 4,4 11,12 8,26 8,27l0 1 -1 -1c-1,0 -12,-7 -19,-12 -2,-2 -6,-7 -8,-10 0,3 2,9 6,13 5,4 18,14 18,14l3 2 -4 0c-1,0 -15,-2 -30,-15 -3,-2 -5,-5 -7,-7 -11,-12 -11,-26 -10,-33l10 0c3,2 7,5 10,6 1,1 3,2 5,2 4,2 10,5 15,9zm1 -3c0,0 1,1 1,1 2,1 3,3 5,4 3,3 5,7 7,11 0,0 0,-1 1,-1 3,-6 6,-17 6,-17 0,0 1,9 -2,17 -1,2 -2,5 -3,7 1,3 1,5 1,7 5,-6 11,-15 15,-28 2,-6 2,-12 1,-17l-19 0c-3,4 -8,8 -12,15zm72 82l3 6 -8 0c0,0 18,6 19,5 2,-2 -7,-3 -15,-11zm-25 -23c2,1 4,2 6,3 15,8 17,23 17,23l0 1 -1 0c-1,0 -14,-2 -22,-5 -3,-1 -8,-4 -11,-7 1,3 5,8 11,10 6,3 22,7 22,7l3 1 -4 1c-1,0 -15,3 -34,-4 -3,-1 -6,-3 -10,-4 -20,-10 -22,-33 -22,-33l0 -1 1 0c0,0 15,4 21,5 2,0 3,0 5,1 5,0 11,1 17,3zm0 -3c0,0 1,0 1,0 2,1 4,2 6,3 4,2 8,5 10,8 0,0 0,-1 0,-1 1,-6 0,-19 0,-19 0,0 5,8 4,17 0,2 0,5 -1,8 1,3 2,5 3,7 3,-7 6,-18 5,-32 -1,-22 -20,-33 -20,-33 0,0 -1,16 -3,22 -1,5 -5,11 -7,20zm64 40c2,0 4,0 6,0 17,2 24,16 25,16l1 1 -1 0c-1,0 -15,3 -24,3 -3,0 -10,-1 -13,-2 2,3 8,6 14,6 7,0 24,-1 24,-1l4 0 -3 2c-1,0 -13,8 -34,8 -4,0 -7,0 -11,-1 -23,-3 -33,-24 -33,-25l-1 -1 1 0c0,0 15,-2 22,-3 2,0 3,-1 6,-1 5,-1 11,-3 18,-3zm113 -369c0,2 0,4 0,7 0,-3 0,-5 0,-7l0 8c0,17 -4,44 -28,39 -1,0 -1,0 0,0 6,5 20,6 23,-3 -5,9 2,14 4,22l0 5c0,-1 0,-3 0,-4 0,1 0,2 0,4l0 -5c2,-8 9,-12 5,-22 3,9 16,8 23,3 1,0 1,0 0,0 -24,4 -27,-23 -27,-39l0 -8zm-39 50c1,1 3,2 4,1 1,-1 1,-2 1,-3 -1,-1 -1,-1 -2,0 -1,0 -1,1 0,1 0,0 1,1 2,0 0,0 1,0 1,0 0,1 -2,2 -4,0 -1,-1 -1,-4 1,-5 2,-1 4,-2 6,-2 3,0 6,0 9,0 5,-1 10,-5 13,-9 2,-2 3,-4 4,-7 0,-1 3,-7 2,-7l-3 -2c2,1 0,7 -1,9 -1,3 -3,6 -6,8 -5,5 -12,8 -20,6 -6,-1 -12,-5 -13,-11 -1,-4 0,-9 4,-11 3,-1 8,-1 8,2 1,3 -1,7 -5,8 5,1 8,-3 8,-6 2,2 4,5 7,5 2,0 3,0 4,-1 1,-1 1,-2 2,-3 -4,3 -8,1 -10,-2 -4,-4 -9,-6 -15,-3 -4,2 -6,7 -5,11 1,7 7,12 15,14 -2,0 -3,1 -5,2 -3,2 -3,5 -2,6l0 0zm29 -30c-4,2 -10,1 -13,-1 -10,-5 -14,-15 -26,-15 -1,0 -2,0 -3,0 -4,0 -7,3 -7,7 0,1 1,3 2,4 1,1 1,1 2,1 1,0 2,0 3,0 -2,-2 3,-4 3,-1 0,3 -3,4 -6,4 -7,0 -9,-8 -7,-12 1,-3 4,-4 7,-5 2,-1 9,-1 10,1 -1,-2 0,-3 -2,-5 0,0 5,0 5,0 2,0 4,1 6,2 3,2 6,5 5,8 2,-2 8,-4 5,-7 0,0 0,0 0,0 3,2 2,6 3,9 3,5 14,9 18,3 2,-3 2,-7 -1,-10 -2,-1 -7,-2 -8,1 2,0 3,3 1,3 -4,1 -4,-5 -1,-6 3,-2 6,-2 9,-1 6,3 5,12 1,16 -1,1 -2,2 -4,2zm50 30c-1,1 -3,2 -4,1 -1,-1 -1,-2 -1,-3 1,-1 1,-1 2,0 1,0 1,1 0,1 0,0 -1,1 -2,0 0,0 -1,0 -1,0 0,1 2,2 4,0 1,-1 1,-4 -1,-5 -2,-2 -4,-2 -6,-2 -3,0 -6,0 -9,0 -5,-1 -10,-5 -13,-9 -2,-2 -3,-4 -4,-7 0,-1 -3,-7 -2,-7 0,0 3,-2 3,-2 -2,1 0,7 1,9 1,3 3,6 5,8 5,5 12,8 20,6 6,-1 12,-5 13,-11 1,-4 0,-9 -4,-11 -3,-1 -8,-1 -8,2 -1,3 1,7 5,8 -5,1 -8,-3 -8,-6 -2,2 -4,5 -7,5 -2,0 -3,0 -4,-1 -1,-1 -1,-2 -2,-3 4,3 8,1 10,-2 4,-4 9,-6 15,-3 4,2 6,7 5,11 -1,7 -7,12 -15,14 2,0 3,1 5,2 3,2 3,5 2,6l0 0z"/>
 </g>
</svg>
