<?xml version="1.0" encoding="UTF-8"?>
<!DOCTYPE svg PUBLIC "-//W3C//DTD SVG 1.1//EN" "http://www.w3.org/Graphics/SVG/1.1/DTD/svg11.dtd">
<!-- Creator: CorelDRAW 2020 (64-Bit) -->
<svg xmlns="http://www.w3.org/2000/svg" xml:space="preserve" width="591px" height="591px" version="1.1" style="shape-rendering:geometricPrecision; text-rendering:geometricPrecision; image-rendering:optimizeQuality; fill-rule:evenodd; clip-rule:evenodd"
viewBox="0 0 591 591"
 xmlns:xlink="http://www.w3.org/1999/xlink"
 xmlns:xodm="http://www.corel.com/coreldraw/odm/2003">
 <defs>
  <style type="text/css">
   <![CDATA[
    .fil0 {fill:#FFF}
    .fil1 {fill:#FFF;fill-rule:nonzero}
   ]]>
  </style>
 </defs>
 <g id="Layer_x0020_1">
  <metadata id="CorelCorpID_0Corel-Layer"/>
  <path class="fil0" d="M232 65c2,0 4,2 4,4l0 23 25 -14c2,-1 4,0 5,1 1,2 0,4 -1,5l0 0 -28 16 0 48 42 -24 0 -32 0 0c0,-2 2,-4 3,-4 2,0 4,2 4,3l0 28 20 -11 0 0c2,-1 4,0 5,1 1,2 0,4 -1,5l-20 11 24 15c2,1 2,3 1,5 -1,2 -3,2 -5,1l0 0 -28 -17 -42 24 13 7 -14 0 -2 -1 0 1 -7 0 0 -1 -2 1 -14 0 13 -7 -42 -24 -28 17 0 0c-2,1 -4,0 -5,-1 -1,-2 0,-4 1,-5l24 -15 -20 -11 0 0c-2,-1 -2,-3 -1,-5 1,-2 3,-2 5,-1l20 11 0 -28c0,-2 2,-3 4,-3 2,0 3,2 3,4l0 0 0 32 42 24 0 -48 -28 -16 0 0c-2,-1 -2,-3 -1,-5 1,-2 3,-2 5,-1l25 14 0 -23 0 0c0,-2 2,-4 4,-4z"/>
  <polygon class="fil0" points="154,29 161,46 180,47 166,59 170,77 154,67 139,77 143,59 129,47 147,46 "/>
  <polygon class="fil0" points="471,73 476,86 490,87 479,96 483,110 471,102 459,110 462,96 451,87 465,86 "/>
  <polygon class="fil0" points="226,293 233,310 252,311 237,323 242,341 226,331 211,341 215,323 201,311 219,310 "/>
  <polygon class="fil0" points="88,265 89,266 107,268 93,279 97,297 82,288 66,297 71,279 57,268 75,266 75,265 "/>
  <polygon class="fil0" points="550,304 555,317 569,318 558,327 562,341 550,333 538,341 541,327 530,318 544,317 "/>
  <circle class="fil0" cx="52" cy="41" r="16"/>
  <circle class="fil0" cx="71" cy="66" r="8"/>
  <circle class="fil0" cx="126" cy="313" r="16"/>
  <circle class="fil0" cx="56" cy="359" r="7"/>
  <circle class="fil0" cx="156" cy="344" r="7"/>
  <circle class="fil0" cx="311" cy="330" r="10"/>
  <circle class="fil0" cx="517" cy="360" r="7"/>
  <circle class="fil0" cx="391" cy="117" r="7"/>
  <circle class="fil0" cx="528" cy="30" r="16"/>
  <circle class="fil0" cx="562" cy="55" r="8"/>
  <path class="fil0" d="M439 112c3,0 5,2 5,5l0 32 35 -19c2,-1 5,0 7,2 1,2 0,5 -2,7l0 0 -39 22 0 0 -10 0 0 0 -39 -22 0 0c-2,-1 -3,-4 -2,-7 1,-2 4,-3 7,-2l35 19 0 -32 0 0c0,-3 2,-5 5,-5zm62 48l0 -12 0 0c0,-3 2,-5 5,-5 3,0 5,2 5,5l0 12 -10 0zm-2 104l7 4 7 -4 19 0 -16 10 28 16c2,1 3,4 2,7 -1,2 -4,3 -7,2l0 0 -28 -16 -1 40c0,3 -2,5 -5,5 -3,0 -5,-2 -5,-5l0 0 1 -45 -22 -12 20 0zm-56 0l0 46 39 22 0 0c2,1 3,4 2,7 -1,2 -4,3 -7,2l-35 -19 0 32c0,3 -2,5 -5,5 -3,0 -5,-2 -5,-5l0 0 0 -32 -35 19c-2,1 -5,0 -7,-2 -1,-2 0,-5 2,-7l0 0 39 -22 0 -46 10 0zm-46 0l-22 12 1 45 0 0c0,3 -2,5 -5,5 -3,0 -5,-2 -5,-5l-1 -40 -28 16c-2,1 -5,1 -7,-2 -1,-2 -1,-5 2,-7l0 0 28 -16 -16 -10 19 0 7 4 7 -4 20 0zm-31 -104l0 -12c0,-3 2,-5 5,-5 3,0 5,2 5,5l0 0 0 12 -10 0z"/>
  <path class="fil1" d="M442 16c0,0 -12,26 -28,33 -17,7 -38,-10 -28,-24 11,-13 34,-4 25,12 -8,15 -42,33 -64,13l3 -5c0,0 9,12 30,8 20,-4 30,-18 23,-25 -7,-8 -16,2 -12,9 4,7 17,21 51,-20z"/>
  <path class="fil1" d="M29 123c0,0 23,-17 41,-14 18,2 28,28 12,34 -16,6 -31,-14 -16,-23 15,-9 53,-8 62,21l-6 3c0,0 -2,-15 -22,-22 -20,-7 -35,0 -32,11 3,10 15,6 15,-2 0,-8 -4,-27 -54,-8z"/>
 </g>
</svg>
