<?xml version="1.0" encoding="UTF-8"?>
<!DOCTYPE svg PUBLIC "-//W3C//DTD SVG 1.1//EN" "http://www.w3.org/Graphics/SVG/1.1/DTD/svg11.dtd">
<!-- Creator: CorelDRAW 2020 (64-Bit) -->
<svg xmlns="http://www.w3.org/2000/svg" xml:space="preserve" width="591px" height="591px" version="1.1" style="shape-rendering:geometricPrecision; text-rendering:geometricPrecision; image-rendering:optimizeQuality; fill-rule:evenodd; clip-rule:evenodd"
viewBox="0 0 591 591"
 xmlns:xlink="http://www.w3.org/1999/xlink"
 xmlns:xodm="http://www.corel.com/coreldraw/odm/2003">
 <defs>
  <style type="text/css">
   <![CDATA[
    .fil0 {fill:#2B2A29;fill-rule:nonzero}
   ]]>
  </style>
 </defs>
 <g id="Layer_x0020_1">
  <metadata id="CorelCorpID_0Corel-Layer"/>
  <path class="fil0" d="M288 344c-5,11 -13,21 -23,29 -25,22 -58,33 -98,33 -24,0 -45,-4 -63,-12 -17,-8 -31,-19 -39,-32 -9,-14 -13,-29 -13,-46 0,-14 3,-25 10,-33 7,-8 15,-12 25,-12 9,0 16,3 22,9 6,6 8,14 8,25 0,7 -1,12 -4,17 -3,5 -8,9 -15,13 -8,4 -11,8 -11,12 0,5 3,11 8,18 6,7 14,12 24,16 11,4 24,6 41,6 28,0 49,-7 63,-21 14,-14 20,-36 20,-67 0,-11 -1,-21 -2,-30 -138,0 -242,-2 -242,-5 0,-3 132,-5 296,-5 163,0 296,2 296,5 0,1 -20,2 -54,3 1,6 2,13 2,20 0,29 -9,54 -28,76 -24,28 -58,42 -103,42 -39,0 -70,-9 -93,-28 -12,-10 -21,-21 -26,-33l0 0 0 0zm38 -74c-4,10 -7,22 -7,36 0,26 8,45 23,60 15,14 37,21 65,21 30,0 53,-7 70,-21 17,-14 25,-33 25,-56 0,-17 -4,-30 -13,-40 -45,1 -101,1 -163,1zm-32 -114l10 0c-5,-12 -8,-25 -8,-39 0,-28 11,-51 32,-71 21,-20 49,-30 82,-30 23,0 42,4 59,12 17,8 29,18 38,32 9,13 13,27 13,42 0,21 -8,40 -25,56 58,1 95,2 95,3 0,3 -132,5 -296,5 -163,0 -296,-2 -296,-5 0,-2 97,-4 228,-5 4,-10 6,-22 6,-37 0,-30 -6,-51 -17,-64 -11,-13 -28,-19 -50,-19 -20,0 -36,4 -48,11 -12,7 -18,14 -18,20 0,4 3,9 10,16 10,9 14,18 14,28 0,7 -3,14 -8,19 -5,5 -12,8 -21,8 -9,0 -16,-3 -22,-10 -6,-7 -9,-16 -9,-29 0,-19 7,-36 21,-51 20,-21 48,-31 84,-31 34,0 61,9 82,27 20,18 30,41 30,68 0,17 -4,32 -13,45 8,0 17,0 25,0zm82 0c32,0 61,0 88,1 3,-3 6,-7 8,-10 6,-11 10,-24 10,-41 0,-23 -6,-40 -19,-52 -13,-12 -31,-18 -56,-18 -24,0 -42,6 -55,17 -13,11 -20,26 -20,45 0,18 6,33 17,43 5,5 14,11 27,16z"/>
 </g>
</svg>
