<?xml version="1.0" encoding="UTF-8"?>
<!DOCTYPE svg PUBLIC "-//W3C//DTD SVG 1.1//EN" "http://www.w3.org/Graphics/SVG/1.1/DTD/svg11.dtd">
<!-- Creator: CorelDRAW 2020 (64-Bit) -->
<svg xmlns="http://www.w3.org/2000/svg" xml:space="preserve" width="591px" height="591px" version="1.1" style="shape-rendering:geometricPrecision; text-rendering:geometricPrecision; image-rendering:optimizeQuality; fill-rule:evenodd; clip-rule:evenodd"
viewBox="0 0 591 591"
 xmlns:xlink="http://www.w3.org/1999/xlink"
 xmlns:xodm="http://www.corel.com/coreldraw/odm/2003">
 <defs>
  <style type="text/css">
   <![CDATA[
    .fil0 {fill:#2B2A29;fill-rule:nonzero}
   ]]>
  </style>
 </defs>
 <g id="Layer_x0020_1">
  <metadata id="CorelCorpID_0Corel-Layer"/>
  <path class="fil0" d="M74 16c18,4 37,7 58,7l169 0 0 13c-25,44 -43,80 -56,110 -2,4 -3,7 -4,11 14,0 29,0 44,0 4,-14 9,-28 15,-41 15,-33 35,-58 58,-74 24,-16 48,-25 74,-25 26,0 49,7 67,22 15,12 23,26 23,42 0,11 -3,20 -10,27 -7,7 -15,11 -25,11 -9,0 -17,-3 -23,-9 -6,-6 -10,-13 -10,-21 0,-5 2,-11 6,-18 4,-6 6,-11 6,-15 0,-5 -2,-9 -7,-12 -7,-4 -15,-6 -27,-6 -18,0 -34,5 -48,16 -14,11 -27,30 -37,57 -6,15 -10,31 -12,48 144,0 255,2 255,5 0,3 -132,5 -296,5 -163,0 -296,-2 -296,-5 0,-2 92,-4 217,-5 4,-8 8,-16 11,-22l38 -69 -147 0c-11,0 -19,4 -24,11 -5,8 -12,30 -19,68l-19 0 19 -129zm221 245c163,0 296,2 296,5 0,1 -21,2 -56,3 0,2 0,5 0,8 0,37 -12,68 -36,93 -24,25 -54,37 -89,37 -25,0 -47,-7 -67,-20 -20,-13 -35,-34 -48,-62 -7,-16 -12,-34 -15,-54 -24,0 -47,0 -70,0 -3,18 -4,37 -5,58 -2,30 -4,49 -5,56 -2,7 -5,13 -10,16 -5,4 -11,6 -19,6 -9,0 -16,-3 -21,-9 -5,-6 -8,-16 -8,-29 0,-12 2,-26 6,-44 3,-13 9,-31 18,-54 -99,-1 -167,-2 -167,-4 0,-3 132,-5 296,-5zm186 8c-40,1 -89,1 -143,1 -1,6 -1,12 -1,18 0,32 7,57 21,74 14,17 32,25 53,25 21,0 39,-8 52,-24 13,-16 20,-40 20,-72 0,-8 0,-15 -1,-22z"/>
 </g>
</svg>
