<?xml version="1.0" encoding="UTF-8"?>
<!DOCTYPE svg PUBLIC "-//W3C//DTD SVG 1.1//EN" "http://www.w3.org/Graphics/SVG/1.1/DTD/svg11.dtd">
<!-- Creator: CorelDRAW 2020 (64-Bit) -->
<svg xmlns="http://www.w3.org/2000/svg" xml:space="preserve" width="591px" height="591px" version="1.1" style="shape-rendering:geometricPrecision; text-rendering:geometricPrecision; image-rendering:optimizeQuality; fill-rule:evenodd; clip-rule:evenodd"
viewBox="0 0 591 591"
 xmlns:xlink="http://www.w3.org/1999/xlink"
 xmlns:xodm="http://www.corel.com/coreldraw/odm/2003">
 <defs>
  <style type="text/css">
   <![CDATA[
    .fil0 {fill:#2B2A29;fill-rule:nonzero}
   ]]>
  </style>
 </defs>
 <g id="Layer_x0020_1">
  <metadata id="CorelCorpID_0Corel-Layer"/>
  <path class="fil0" d="M422 269c1,6 1,12 1,18 0,29 -9,54 -28,76 -24,28 -58,42 -103,42 -39,0 -70,-9 -93,-28 -23,-19 -34,-42 -34,-70 0,-14 3,-26 8,-38 -103,-1 -175,-2 -175,-4 0,-3 132,-5 296,-5 163,0 296,2 296,5 0,2 -69,3 -168,4zm-210 0c-5,10 -7,22 -7,36 0,26 8,45 23,60 15,14 37,21 65,21 30,0 53,-7 70,-21 17,-14 25,-33 25,-56 0,-16 -4,-29 -12,-39 -26,0 -53,0 -81,0 -29,0 -56,0 -83,0zm83 -114c19,0 38,0 57,0 3,-3 6,-6 8,-10 6,-11 10,-24 10,-41 0,-23 -6,-40 -19,-52 -13,-12 -31,-18 -56,-18 -24,0 -42,6 -55,17 -13,11 -20,26 -20,45 0,18 6,33 17,43 5,5 14,10 27,16 11,0 21,0 32,0zm88 0c120,1 208,2 208,4 0,3 -132,5 -296,5 -163,0 -296,-2 -296,-5 0,-2 79,-4 191,-4 -5,-12 -8,-25 -8,-40 0,-28 11,-51 32,-71 21,-20 49,-30 82,-30 23,0 42,4 59,12 17,8 29,18 38,32 9,13 13,27 13,42 0,21 -8,39 -24,55z"/>
 </g>
</svg>
