<?xml version="1.0" encoding="UTF-8"?>
<!DOCTYPE svg PUBLIC "-//W3C//DTD SVG 1.1//EN" "http://www.w3.org/Graphics/SVG/1.1/DTD/svg11.dtd">
<!-- Creator: CorelDRAW 2020 (64-Bit) -->
<svg xmlns="http://www.w3.org/2000/svg" xml:space="preserve" width="591px" height="591px" version="1.1" style="shape-rendering:geometricPrecision; text-rendering:geometricPrecision; image-rendering:optimizeQuality; fill-rule:evenodd; clip-rule:evenodd"
viewBox="0 0 591 591"
 xmlns:xlink="http://www.w3.org/1999/xlink"
 xmlns:xodm="http://www.corel.com/coreldraw/odm/2003">
 <defs>
  <style type="text/css">
   <![CDATA[
    .fil0 {fill:#2B2A29;fill-rule:nonzero}
   ]]>
  </style>
 </defs>
 <g id="Layer_x0020_1">
  <metadata id="CorelCorpID_0Corel-Layer"/>
  <path class="fil0" d="M296 328c-6,15 -15,28 -26,40 -24,25 -54,37 -89,37 -25,0 -47,-7 -67,-20 -20,-13 -35,-34 -48,-62 -7,-17 -13,-36 -16,-56 -32,-1 -51,-2 -51,-3 0,-3 132,-5 296,-5 163,0 296,2 296,5 0,1 -22,2 -60,3 -6,36 -17,65 -34,88 -25,33 -56,50 -92,50 -35,0 -63,-14 -87,-42 -9,-10 -16,-22 -22,-36zm-187 -59c-1,6 -1,12 -1,19 0,32 7,57 21,74 14,17 32,25 53,25 21,0 39,-8 52,-24 13,-16 20,-40 20,-72 0,-7 0,-14 -1,-21 -54,0 -103,0 -143,-1zm221 1c3,38 9,66 19,82 14,23 32,35 56,35 24,0 42,-11 54,-33 11,-18 17,-47 20,-86 -42,1 -93,1 -149,1zm0 -114c56,0 108,0 150,1 -3,-40 -9,-69 -19,-86 -14,-24 -33,-36 -56,-36 -24,0 -43,11 -56,34 -10,16 -16,45 -18,87zm201 2c37,1 59,2 59,3 0,3 -132,5 -296,5 -163,0 -296,-2 -296,-5 0,-1 21,-2 56,-3 4,-15 9,-30 15,-43 15,-33 35,-58 58,-74 24,-16 48,-25 74,-25 27,0 49,7 67,22 15,12 23,26 23,42 0,11 -3,20 -10,27 -7,7 -15,11 -25,11 -9,0 -17,-3 -23,-9 -6,-6 -10,-13 -10,-21 0,-5 2,-11 6,-18 4,-6 6,-11 6,-15 0,-5 -2,-9 -7,-12 -7,-4 -15,-6 -27,-6 -18,0 -34,5 -48,16 -14,11 -27,30 -37,57 -6,15 -10,31 -12,49 47,-1 107,-1 173,-1 6,-38 18,-70 37,-96 22,-30 51,-45 87,-45 35,0 65,14 88,41 21,25 35,58 40,101z"/>
 </g>
</svg>
