<?xml version="1.0" encoding="UTF-8"?>
<!DOCTYPE svg PUBLIC "-//W3C//DTD SVG 1.1//EN" "http://www.w3.org/Graphics/SVG/1.1/DTD/svg11.dtd">
<!-- Creator: CorelDRAW 2020 (64-Bit) -->
<svg xmlns="http://www.w3.org/2000/svg" xml:space="preserve" width="591px" height="591px" version="1.1" style="shape-rendering:geometricPrecision; text-rendering:geometricPrecision; image-rendering:optimizeQuality; fill-rule:evenodd; clip-rule:evenodd"
viewBox="0 0 591 591"
 xmlns:xlink="http://www.w3.org/1999/xlink"
 xmlns:xodm="http://www.corel.com/coreldraw/odm/2003">
 <defs>
  <style type="text/css">
   <![CDATA[
    .fil0 {fill:#2B2A29;fill-rule:nonzero}
   ]]>
  </style>
 </defs>
 <g id="Layer_x0020_1">
  <metadata id="CorelCorpID_0Corel-Layer"/>
  <path class="fil0" d="M296 270c3,9 4,19 4,29 0,31 -11,56 -33,75 -25,22 -58,33 -98,33 -24,0 -45,-4 -63,-12 -17,-8 -31,-19 -39,-32 -9,-14 -13,-29 -13,-46 0,-14 3,-25 10,-33 7,-8 15,-12 25,-12 9,0 16,3 22,9 6,6 8,14 8,25 0,7 -1,12 -4,17 -3,5 -8,9 -15,13 -8,4 -11,8 -11,12 0,5 3,11 8,18 6,7 14,12 24,16 11,4 24,6 41,6 28,0 49,-7 63,-21 14,-14 20,-36 20,-67 0,-11 -1,-21 -2,-30 -139,0 -244,-2 -244,-5 0,-3 132,-5 296,-5 163,0 296,2 296,5 0,1 -23,2 -62,3 -3,15 -8,30 -13,43 -14,32 -32,56 -55,72 -23,16 -49,23 -77,23 -28,0 -49,-6 -65,-18 -16,-12 -23,-27 -23,-44 0,-11 3,-20 10,-27 6,-7 14,-10 24,-10 9,0 16,3 23,9 6,6 9,13 9,21 0,6 -3,12 -8,19 -3,5 -5,8 -5,12 0,5 3,9 9,13 6,4 16,5 29,5 19,0 35,-5 50,-16 14,-10 26,-27 35,-51 5,-14 9,-31 11,-51 -50,1 -114,1 -184,1zm42 -114c53,0 102,0 142,1 1,-7 1,-14 1,-22 0,-31 -7,-55 -22,-73 -15,-18 -32,-27 -53,-27 -20,0 -37,8 -50,25 -13,17 -19,42 -19,76 0,7 0,13 1,19zm197 2c35,1 56,2 56,3 0,3 -132,5 -296,5 -163,0 -296,-2 -296,-5 0,-2 98,-4 230,-5 4,-10 6,-22 6,-37 0,-30 -6,-51 -17,-64 -11,-13 -28,-19 -50,-19 -20,0 -36,4 -48,11 -12,7 -18,14 -18,20 0,4 3,9 10,16 10,9 14,18 14,28 0,7 -3,14 -8,19 -5,5 -12,8 -21,8 -9,0 -16,-3 -22,-10 -6,-7 -9,-16 -9,-29 0,-19 7,-36 21,-51 20,-21 48,-31 84,-31 34,0 61,9 82,27 20,18 30,41 30,68 0,17 -4,32 -13,45l9 0c0,-4 0,-7 0,-11 0,-36 12,-67 37,-92 25,-25 54,-38 88,-38 37,0 69,16 94,47 19,24 31,56 36,96z"/>
 </g>
</svg>
