<?xml version="1.0" encoding="UTF-8"?>
<!DOCTYPE svg PUBLIC "-//W3C//DTD SVG 1.1//EN" "http://www.w3.org/Graphics/SVG/1.1/DTD/svg11.dtd">
<!-- Creator: CorelDRAW 2020 (64-Bit) -->
<svg xmlns="http://www.w3.org/2000/svg" xml:space="preserve" width="591px" height="591px" version="1.1" style="shape-rendering:geometricPrecision; text-rendering:geometricPrecision; image-rendering:optimizeQuality; fill-rule:evenodd; clip-rule:evenodd"
viewBox="0 0 591 591"
 xmlns:xlink="http://www.w3.org/1999/xlink"
 xmlns:xodm="http://www.corel.com/coreldraw/odm/2003">
 <defs>
  <style type="text/css">
   <![CDATA[
    .fil0 {fill:#2B2A29;fill-rule:nonzero}
   ]]>
  </style>
 </defs>
 <g id="Layer_x0020_1">
  <metadata id="CorelCorpID_0Corel-Layer"/>
  <path class="fil0" d="M298 270c3,9 4,19 4,29 0,31 -11,56 -33,75 -25,22 -58,33 -98,33 -24,0 -45,-4 -63,-12 -17,-8 -31,-19 -39,-32 -9,-14 -13,-29 -13,-46 0,-14 3,-25 10,-33 7,-8 15,-12 25,-12 9,0 16,3 22,9 6,6 8,14 8,25 0,7 -1,12 -4,17 -3,5 -8,9 -15,13 -8,4 -11,8 -11,12 0,5 3,11 8,18 6,7 14,12 24,16 11,4 24,6 41,6 28,0 49,-7 63,-21 14,-14 20,-36 20,-67 0,-11 -1,-21 -2,-30 -140,0 -246,-2 -246,-5 0,-3 132,-5 296,-5 163,0 296,2 296,5 0,1 -21,2 -57,3 0,2 0,4 0,6 0,38 -13,70 -39,94 -26,25 -59,37 -100,37 -31,0 -57,-9 -76,-27 -20,-18 -29,-39 -29,-63 0,-15 3,-26 9,-34 5,-7 12,-11 20,-12 -7,0 -14,0 -20,0zm179 -1c-42,1 -94,1 -151,1 8,1 14,4 19,9 6,6 9,15 9,25 0,8 -1,14 -4,18 -3,4 -8,8 -16,11 -8,3 -12,7 -12,11 0,6 3,12 8,19 5,7 14,13 24,17 11,4 23,7 38,7 28,0 49,-9 63,-26 15,-17 22,-45 22,-84 0,-3 0,-6 0,-8zm-183 -113c8,0 15,0 23,0l4 -49c3,-31 4,-62 4,-91 46,10 83,16 112,16 14,0 26,-1 38,-4 12,-3 21,-6 27,-9 3,-2 5,-2 6,-2 2,0 3,1 3,4 0,6 -4,15 -12,25 -8,10 -19,19 -33,25 -14,6 -30,9 -48,9 -21,0 -47,-3 -76,-10l-7 87c15,0 29,0 43,0 11,-3 21,-4 31,-4 12,0 24,1 35,4 88,1 147,2 147,4 0,3 -132,5 -296,5 -163,0 -296,-2 -296,-5 0,-2 99,-4 232,-5 4,-10 6,-22 6,-37 0,-30 -6,-51 -17,-64 -11,-13 -28,-19 -50,-19 -20,0 -36,4 -48,11 -12,7 -18,14 -18,20 0,4 3,9 10,16 10,9 14,18 14,28 0,7 -3,14 -8,19 -5,5 -12,8 -21,8 -9,0 -16,-3 -22,-10 -6,-7 -9,-16 -9,-29 0,-19 7,-36 21,-51 20,-21 48,-31 84,-31 34,0 61,9 82,27 20,18 30,41 30,68 0,17 -4,32 -13,45 7,0 14,0 21,0z"/>
 </g>
</svg>
