<?xml version="1.0" encoding="UTF-8"?>
<!DOCTYPE svg PUBLIC "-//W3C//DTD SVG 1.1//EN" "http://www.w3.org/Graphics/SVG/1.1/DTD/svg11.dtd">
<!-- Creator: CorelDRAW 2020 (64-Bit) -->
<svg xmlns="http://www.w3.org/2000/svg" xml:space="preserve" width="591px" height="591px" version="1.1" style="shape-rendering:geometricPrecision; text-rendering:geometricPrecision; image-rendering:optimizeQuality; fill-rule:evenodd; clip-rule:evenodd"
viewBox="0 0 591 591"
 xmlns:xlink="http://www.w3.org/1999/xlink"
 xmlns:xodm="http://www.corel.com/coreldraw/odm/2003">
 <defs>
  <style type="text/css">
   <![CDATA[
    .fil0 {fill:#2B2A29;fill-rule:nonzero}
   ]]>
  </style>
 </defs>
 <g id="Layer_x0020_1">
  <metadata id="CorelCorpID_0Corel-Layer"/>
  <path class="fil0" d="M73 16c18,4 37,7 58,7l169 0 0 13c-25,44 -43,80 -56,110 -2,4 -3,7 -4,11 18,0 36,0 55,0 22,0 44,0 65,0l96 -134 18 0 0 135c71,1 117,2 117,4 0,3 -132,5 -296,5 -163,0 -296,-2 -296,-5 0,-2 91,-4 216,-5 4,-8 8,-16 11,-22l38 -69 -147 0c-11,0 -19,4 -24,11 -5,8 -12,30 -19,68l-19 0 19 -129zm221 245c163,0 296,2 296,5 0,2 -46,3 -117,4l0 10 62 0 0 23 -62 0 0 58c0,5 2,9 6,12 6,4 12,6 20,6l23 0 0 21 -151 0 0 -21 28 0c9,0 16,-2 21,-6 4,-4 7,-10 7,-17l0 -53 -153 0 0 -26 4 -6c-24,0 -47,0 -68,0 -3,18 -4,37 -5,58 -2,30 -4,49 -5,56 -2,7 -5,13 -10,16 -5,4 -11,6 -19,6 -9,0 -16,-3 -21,-9 -5,-6 -8,-16 -8,-29 0,-12 2,-26 6,-44 3,-13 9,-31 18,-54 -98,-1 -166,-2 -166,-4 0,-3 132,-5 296,-5zm132 9c-38,0 -80,0 -125,0l-6 9 131 0 0 -9zm-43 -113c15,0 29,0 43,0l0 -60 -43 60z"/>
 </g>
</svg>
