<?xml version="1.0" encoding="UTF-8"?>
<!DOCTYPE svg PUBLIC "-//W3C//DTD SVG 1.1//EN" "http://www.w3.org/Graphics/SVG/1.1/DTD/svg11.dtd">
<!-- Creator: CorelDRAW 2020 (64-Bit) -->
<svg xmlns="http://www.w3.org/2000/svg" xml:space="preserve" width="591px" height="591px" version="1.1" style="shape-rendering:geometricPrecision; text-rendering:geometricPrecision; image-rendering:optimizeQuality; fill-rule:evenodd; clip-rule:evenodd"
viewBox="0 0 591 591"
 xmlns:xlink="http://www.w3.org/1999/xlink"
 xmlns:xodm="http://www.corel.com/coreldraw/odm/2003">
 <defs>
  <style type="text/css">
   <![CDATA[
    .fil0 {fill:#2B2A29;fill-rule:nonzero}
   ]]>
  </style>
 </defs>
 <g id="Layer_x0020_1">
  <metadata id="CorelCorpID_0Corel-Layer"/>
  <path class="fil0" d="M346 22l18 0 0 134c130,0 227,2 227,5 0,3 -132,5 -296,5 -163,0 -296,-2 -296,-5 0,-2 109,-4 250,-5l96 -134zm-29 134l0 -60 -43 60c7,0 14,0 21,0 8,0 15,0 23,0zm-23 104c163,0 296,2 296,5 0,2 -97,4 -227,5l0 9 62 0 0 23 -62 0 0 58c0,5 2,9 6,12 6,4 12,6 20,6l23 0 0 21 -151 0 0 -21 28 0c9,0 16,-2 21,-6 4,-4 7,-10 7,-17l0 -53 -153 0 0 -26 5 -6c-100,-1 -169,-2 -169,-4 0,-3 132,-5 296,-5zm23 9c-7,0 -15,0 -23,0 -36,0 -70,0 -102,0l-6 9 131 0 0 -9z"/>
 </g>
</svg>
