<?xml version="1.0" encoding="UTF-8"?>
<!DOCTYPE svg PUBLIC "-//W3C//DTD SVG 1.1//EN" "http://www.w3.org/Graphics/SVG/1.1/DTD/svg11.dtd">
<!-- Creator: CorelDRAW 2020 (64-Bit) -->
<svg xmlns="http://www.w3.org/2000/svg" xml:space="preserve" width="171px" height="39px" version="1.1" style="shape-rendering:geometricPrecision; text-rendering:geometricPrecision; image-rendering:optimizeQuality; fill-rule:evenodd; clip-rule:evenodd"
viewBox="0 0 164.275 37.377"
 xmlns:xlink="http://www.w3.org/1999/xlink"
 xmlns:xodm="http://www.corel.com/coreldraw/odm/2003">
 <defs>
  <style type="text/css">
   <![CDATA[
    .fil0 {fill:#B3B3B3}
    .fil1 {fill:#B3B3B3;fill-rule:nonzero}
   ]]>
  </style>
 </defs>
 <g id="Layer_x0020_1">
  <metadata id="CorelCorpID_0Corel-Layer"/>
  <g id="_1652639530256">
   <path class="fil0" d="M0 0l36.505 0 0 36.506 -36.505 0 0 -36.506zm7.394 6.093l22.63 0 0 2.331 -22.63 0 0 -2.331zm2.445 4.463l20.072 0 0 2.332 -20.072 0 0 -2.332zm0 4.464l15.067 0 0 2.331 -15.067 0 0 -2.331zm0 4.463l15.067 0 0 2.332 -15.067 0 0 -2.332zm0 4.464l7.334 0 0 2.331 -7.334 0 0 -2.331zm-2.445 4.464l12.907 0 0 2.331 -12.907 0 0 -2.331z"/>
   <path class="fil1" d="M42.553 24.253c-0.305,0 -0.573,-0.093 -0.802,-0.278 -0.229,-0.186 -0.344,-0.421 -0.344,-0.704l0 -21.352c0,-0.655 0.382,-0.982 1.146,-0.982l13.721 0c0.306,0 0.546,0.12 0.721,0.36 0.174,0.24 0.262,0.502 0.262,0.786l0 2.816c0,0.284 -0.098,0.546 -0.295,0.786 -0.196,0.24 -0.425,0.36 -0.688,0.36l-9.136 0 0 4.094 7.663 0c0.655,0 0.982,0.382 0.982,1.146l0 2.816c0,0.35 -0.092,0.628 -0.278,0.835 -0.186,0.208 -0.42,0.311 -0.704,0.311l-7.663 0 0 8.024c0,0.262 -0.12,0.491 -0.36,0.687 -0.24,0.197 -0.502,0.295 -0.786,0.295l-3.439 0zm34.713 -11.658c0,1.288 -0.011,2.161 -0.033,2.62 -0.022,0.458 -0.093,1.179 -0.213,2.161 -0.12,0.983 -0.355,1.812 -0.704,2.489 -0.35,0.676 -0.819,1.332 -1.408,1.964 -1.66,1.747 -3.821,2.62 -6.484,2.62 -2.686,0 -4.869,-0.873 -6.55,-2.62 -0.742,-0.763 -1.299,-1.691 -1.67,-2.783 -0.371,-1.092 -0.578,-1.992 -0.622,-2.702 -0.044,-0.709 -0.065,-1.741 -0.065,-3.094l0 -1.474c0,-2.292 0.163,-4.033 0.491,-5.223 0.327,-1.19 0.949,-2.254 1.866,-3.193 1.66,-1.747 3.821,-2.62 6.484,-2.62 2.685,0 4.869,0.873 6.55,2.62 1.571,1.638 2.358,4.028 2.358,7.172l0 2.063zm-11.167 -5.731c-0.568,0.742 -0.852,2.325 -0.852,4.748l0 1.605c0,2.663 0.284,4.355 0.852,5.076 0.567,0.698 1.331,1.048 2.292,1.048 0.961,0 1.725,-0.35 2.292,-1.048 0.568,-0.721 0.852,-2.413 0.852,-5.076l0 -1.605c0,-2.423 -0.284,-4.006 -0.852,-4.748 -0.546,-0.677 -1.31,-1.015 -2.292,-1.015 -0.982,0 -1.747,0.338 -2.292,1.015zm25.887 3.259c0.469,-0.448 0.703,-1.01 0.703,-1.687 0,-0.677 -0.234,-1.239 -0.703,-1.687 -0.47,-0.447 -1.065,-0.671 -1.785,-0.671l-3.242 0 0 4.716 3.242 0c0.72,0 1.315,-0.224 1.785,-0.671zm7.057 12.918c0.152,0.284 0.229,0.524 0.229,0.721 0,0.327 -0.295,0.491 -0.884,0.491l-4.257 0c-0.765,0 -1.299,-0.327 -1.605,-0.982l-3.635 -7.696 -1.932 0 0 7.696c0,0.283 -0.115,0.518 -0.344,0.704 -0.229,0.185 -0.497,0.278 -0.802,0.278l-3.439 0c-0.305,0 -0.573,-0.093 -0.802,-0.278 -0.229,-0.186 -0.344,-0.421 -0.344,-0.704l0 -21.352c0,-0.655 0.382,-0.982 1.146,-0.982l8.089 0c2.314,0 4.219,0.704 5.714,2.112 1.496,1.408 2.243,3.193 2.243,5.354 0,1.769 -0.567,3.286 -1.702,4.552 -0.459,0.502 -1.158,1.026 -2.096,1.572l4.421 8.514zm25.28 0.23c0,0.283 -0.114,0.518 -0.343,0.704 -0.229,0.185 -0.497,0.278 -0.803,0.278l-3.438 0c-0.306,0 -0.573,-0.093 -0.803,-0.278 -0.229,-0.186 -0.343,-0.421 -0.343,-0.704l0 -10.185 -2.882 5.01c-0.284,0.502 -0.666,0.754 -1.146,0.754l-2.161 0c-0.524,0 -0.928,-0.241 -1.212,-0.721l-2.882 -5.043 0 10.185c0,0.283 -0.115,0.518 -0.344,0.704 -0.229,0.185 -0.497,0.278 -0.802,0.278l-3.439 0c-0.305,0 -0.573,-0.093 -0.802,-0.278 -0.229,-0.186 -0.344,-0.421 -0.344,-0.704l0 -21.352c0,-0.655 0.382,-0.982 1.146,-0.982l3.603 0c0.589,0 1.026,0.273 1.309,0.818l4.814 9.464 4.814 -9.464c0.284,-0.545 0.721,-0.818 1.31,-0.818l3.602 0c0.764,0 1.146,0.327 1.146,0.982l0 21.352zm15.163 -7.27l-1.965 -6.222 -2.096 6.222 4.061 0zm8.186 7.106c0.066,0.196 0.099,0.371 0.099,0.524 0,0.415 -0.317,0.622 -0.95,0.622l-3.668 0c-0.436,0 -0.747,-0.076 -0.933,-0.229 -0.186,-0.153 -0.333,-0.404 -0.442,-0.753l-0.786 -2.489 -7.172 0 -0.818 2.489c-0.11,0.349 -0.257,0.6 -0.443,0.753 -0.185,0.153 -0.496,0.229 -0.933,0.229l-3.667 0c-0.634,0 -0.95,-0.207 -0.95,-0.622 0,-0.153 0.032,-0.328 0.098,-0.524l7.827 -21.483c0.174,-0.458 0.567,-0.687 1.179,-0.687l2.521 0c0.349,0 0.611,0.049 0.786,0.147 0.175,0.098 0.328,0.322 0.458,0.671l7.794 21.352zm16.603 -18.208c0,0.306 -0.082,0.573 -0.245,0.803 -0.164,0.229 -0.41,0.343 -0.737,0.343l-4.749 0 0 17.226c0,0.283 -0.114,0.518 -0.343,0.704 -0.229,0.185 -0.497,0.278 -0.803,0.278l-3.438 0c-0.306,0 -0.573,-0.093 -0.803,-0.278 -0.229,-0.186 -0.343,-0.421 -0.343,-0.704l0 -17.226 -4.749 0c-0.327,0 -0.573,-0.114 -0.736,-0.343 -0.164,-0.23 -0.246,-0.497 -0.246,-0.803l0 -2.816c0,-0.328 0.087,-0.601 0.262,-0.819 0.175,-0.218 0.415,-0.327 0.72,-0.327l15.228 0c0.305,0 0.546,0.109 0.72,0.327 0.175,0.218 0.262,0.491 0.262,0.819l0 2.816z"/>
   <path class="fil1" d="M43.17 30.251l-1.761 0 0 6.091 1.232 0 0 -1.958 0.529 0c1.258,0 2.004,-0.765 2.004,-2.062 0,-1.305 -0.746,-2.071 -2.004,-2.071zm-0.017 2.959l-0.512 0 0 -1.784 0.512 0c0.495,0 0.755,0.304 0.755,0.896 0,0.583 -0.26,0.888 -0.755,0.888zm7.126 1.957l0 -1.348 1.726 0 0 -1.131 -1.726 0 0 -1.262 1.9 0 0 -1.175 -3.132 0 0 6.091 3.219 0 0 -1.175 -1.987 0zm8.679 1.175l1.388 0 -1.805 -3.428 1.544 -2.663 -1.405 0 -0.85 1.653 -0.313 0.679 0 -2.332 -1.214 0 0 6.091 1.214 0 0 -1.757 0.339 -0.549 1.102 2.306zm5.694 -6.091c-0.122,2.558 -0.174,3.559 -0.286,4.177 -0.148,0.774 -0.338,0.905 -0.703,0.905l0 1.114c1.006,0 1.648,-0.235 1.882,-1.697 0.113,-0.696 0.2,-1.714 0.287,-3.333l0.997 0 0 4.925 1.232 0 0 -6.091 -3.409 0zm10.127 6.091l1.276 0 -1.458 -6.091 -1.318 0 -1.458 6.091 1.275 0 0.2 -1.009 1.284 0 0.199 1.009zm-1.24 -2.184l0.139 -0.696c0.086,-0.435 0.182,-1.175 0.243,-1.671l0.034 0c0.061,0.496 0.165,1.236 0.243,1.671l0.139 0.696 -0.798 0zm10.257 -3.907l-0.954 2.306c-0.121,0.305 -0.33,0.835 -0.399,1.062l-0.035 0c-0.069,-0.227 -0.277,-0.757 -0.399,-1.062l-0.954 -2.306 -1.24 0 0 6.091 1.197 0 0 -1.497c-0.026,-0.739 -0.061,-1.479 -0.087,-2.218l0.043 -0.018 0.547 1.601 0.304 0.827 1.214 0 0.303 -0.827 0.547 -1.601 0.044 0.018c-0.035,0.739 -0.061,1.479 -0.096,2.218l0 1.497 1.206 0 0 -6.091 -1.241 0zm8.002 0l0 2.437 -1.249 0 0 -2.437 -1.24 0 0 6.091 1.24 0 0 -2.48 1.249 0 0 2.48 1.241 0 0 -6.091 -1.241 0zm7.959 6.091l1.275 0 -1.457 -6.091 -1.319 0 -1.457 6.091 1.275 0 0.2 -1.009 1.283 0 0.2 1.009zm-1.241 -2.184l0.139 -0.696c0.087,-0.435 0.182,-1.175 0.243,-1.671l0.035 0c0.061,0.496 0.165,1.236 0.243,1.671l0.138 0.696 -0.798 0zm15.663 2.184l1.275 0 -1.458 -6.091 -1.318 0 -1.458 6.091 1.275 0 0.2 -1.009 1.284 0 0.2 1.009zm-1.241 -2.184l0.139 -0.696c0.086,-0.435 0.182,-1.175 0.243,-1.671l0.034 0c0.061,0.496 0.165,1.236 0.243,1.671l0.139 0.696 -0.798 0zm9.338 -3.907l-3.063 0 0 6.091 1.232 0 0 -4.916 1.831 0 0 -1.175zm5.096 4.916l0 -1.348 1.726 0 0 -1.131 -1.726 0 0 -1.262 1.899 0 0 -1.175 -3.131 0 0 6.091 3.218 0 0 -1.175 -1.986 0zm8.514 -4.916l0 2.437 -1.25 0 0 -2.437 -1.24 0 0 6.091 1.24 0 0 -2.48 1.25 0 0 2.48 1.24 0 0 -6.091 -1.24 0zm8.565 7.127l1.215 0 0 -2.211 -0.564 0 0 -4.916 -1.241 0 0 4.916 -1.223 0 0 -4.916 -1.24 0 0 6.091 3.053 0 0 1.036zm10.044 -1.036l1.345 0 0.972 -1.975 0.434 0 0 1.975 1.231 0 0 -6.091 -1.761 0c-1.206,0 -1.917,0.757 -1.917,2.062 0,0.844 0.304,1.462 0.841,1.784l-1.145 2.245zm2.239 -3.15c-0.434,0 -0.668,-0.304 -0.668,-0.879 0,-0.583 0.234,-0.887 0.668,-0.887l0.512 0 0 1.766 -0.512 0zm-7.248 -2.941l0 6.091 1.232 0 0 -6.091 -1.232 0z"/>
  </g>
 </g>
</svg>
