<?xml version="1.0" encoding="UTF-8"?>
<!DOCTYPE svg PUBLIC "-//W3C//DTD SVG 1.1//EN" "http://www.w3.org/Graphics/SVG/1.1/DTD/svg11.dtd">
<!-- Creator: CorelDRAW 2020 (64-Bit) -->
<svg xmlns="http://www.w3.org/2000/svg" xml:space="preserve" width="178px" height="39px" version="1.1" style="shape-rendering:geometricPrecision; text-rendering:geometricPrecision; image-rendering:optimizeQuality; fill-rule:evenodd; clip-rule:evenodd"
viewBox="0 0 178 39"
 xmlns:xlink="http://www.w3.org/1999/xlink"
 xmlns:xodm="http://www.corel.com/coreldraw/odm/2003">
 <defs>
  <style type="text/css">
   <![CDATA[
    .fil2 {fill:#2B2A29}
    .fil0 {fill:#FECC00}
    .fil3 {fill:#2B2A29;fill-rule:nonzero}
    .fil1 {fill:#2B2A29;fill-rule:nonzero}
   ]]>
  </style>
 </defs>
 <g id="Layer_x0020_1">
  <metadata id="CorelCorpID_0Corel-Layer"/>
  <polygon class="fil0" points="0,0.5 38,0.5 38,38.499 0,38.499 "/>
  <path class="fil1" d="M44.295 25.745c-0.318,0 -0.596,-0.096 -0.835,-0.289 -0.238,-0.193 -0.358,-0.438 -0.358,-0.733l0 -22.225c0,-0.682 0.398,-1.023 1.193,-1.023l14.283 0c0.318,0 0.568,0.125 0.75,0.375 0.182,0.25 0.273,0.523 0.273,0.818l0 2.932c0,0.295 -0.103,0.568 -0.307,0.818 -0.205,0.25 -0.443,0.375 -0.716,0.375l-9.511 0 0 4.261 7.977 0c0.682,0 1.023,0.397 1.023,1.193l0 2.931c0,0.364 -0.097,0.654 -0.29,0.87 -0.193,0.216 -0.437,0.323 -0.733,0.323l-7.977 0 0 8.352c0,0.273 -0.124,0.511 -0.374,0.716 -0.25,0.204 -0.523,0.306 -0.818,0.306l-3.58 0zm36.134 -12.135c0,1.341 -0.012,2.25 -0.035,2.727 -0.022,0.478 -0.096,1.227 -0.221,2.25 -0.125,1.023 -0.369,1.886 -0.733,2.591 -0.364,0.704 -0.852,1.386 -1.466,2.045 -1.727,1.818 -3.977,2.727 -6.749,2.727 -2.795,0 -5.068,-0.909 -6.818,-2.727 -0.773,-0.795 -1.352,-1.761 -1.738,-2.897 -0.387,-1.137 -0.602,-2.074 -0.648,-2.813 -0.045,-0.738 -0.068,-1.812 -0.068,-3.221l0 -1.534c0,-2.386 0.17,-4.198 0.511,-5.437 0.341,-1.238 0.989,-2.346 1.943,-3.324 1.727,-1.818 3.977,-2.727 6.749,-2.727 2.796,0 5.068,0.909 6.818,2.727 1.636,1.705 2.455,4.193 2.455,7.466l0 2.147zm-11.624 -5.965c-0.591,0.772 -0.887,2.42 -0.887,4.943l0 1.67c0,2.772 0.296,4.533 0.887,5.283 0.59,0.728 1.386,1.091 2.386,1.091 1,0 1.795,-0.363 2.386,-1.091 0.591,-0.75 0.886,-2.511 0.886,-5.283l0 -1.67c0,-2.523 -0.295,-4.171 -0.886,-4.943 -0.568,-0.705 -1.364,-1.057 -2.386,-1.057 -1.023,0 -1.818,0.352 -2.386,1.057zm26.946 3.392c0.489,-0.466 0.733,-1.051 0.733,-1.756 0,-0.704 -0.244,-1.29 -0.733,-1.756 -0.489,-0.465 -1.108,-0.698 -1.858,-0.698l-3.374 0 0 4.908 3.374 0c0.75,0 1.369,-0.233 1.858,-0.698zm7.346 13.447c0.159,0.296 0.239,0.546 0.239,0.75 0,0.341 -0.307,0.511 -0.921,0.511l-4.431 0c-0.796,0 -1.352,-0.34 -1.671,-1.022l-3.783 -8.011 -2.011 0 0 8.011c0,0.295 -0.12,0.54 -0.358,0.733 -0.239,0.193 -0.518,0.289 -0.836,0.289l-3.579 0c-0.318,0 -0.596,-0.096 -0.835,-0.289 -0.239,-0.193 -0.358,-0.438 -0.358,-0.733l0 -22.225c0,-0.682 0.398,-1.023 1.193,-1.023l8.42 0c2.409,0 4.392,0.733 5.948,2.199 1.557,1.465 2.335,3.323 2.335,5.573 0,1.841 -0.59,3.42 -1.772,4.738 -0.478,0.523 -1.205,1.068 -2.182,1.636l4.602 8.863zm26.316 0.239c0,0.295 -0.12,0.54 -0.358,0.733 -0.239,0.193 -0.517,0.289 -0.835,0.289l-3.579 0c-0.319,0 -0.597,-0.096 -0.836,-0.289 -0.238,-0.193 -0.358,-0.438 -0.358,-0.733l0 -10.601 -2.999 5.215c-0.296,0.523 -0.693,0.784 -1.194,0.784l-2.249 0c-0.545,0 -0.966,-0.25 -1.262,-0.75l-2.999 -5.249 0 10.601c0,0.295 -0.119,0.54 -0.358,0.733 -0.239,0.193 -0.517,0.289 -0.835,0.289l-3.58 0c-0.318,0 -0.596,-0.096 -0.835,-0.289 -0.238,-0.193 -0.358,-0.438 -0.358,-0.733l0 -22.225c0,-0.682 0.398,-1.023 1.193,-1.023l3.75 0c0.614,0 1.068,0.284 1.364,0.852l5.011 9.851 5.01 -9.851c0.296,-0.568 0.751,-0.852 1.364,-0.852l3.75 0c0.795,0 1.193,0.341 1.193,1.023l0 22.225zm15.782 -7.568l-2.045 -6.476 -2.181 6.476 4.226 0zm8.523 7.397c0.068,0.205 0.102,0.387 0.102,0.546 0,0.432 -0.33,0.647 -0.989,0.647l-3.818 0c-0.454,0 -0.778,-0.079 -0.971,-0.238 -0.193,-0.159 -0.347,-0.421 -0.46,-0.784l-0.818 -2.591 -7.466 0 -0.852 2.591c-0.113,0.363 -0.267,0.625 -0.46,0.784 -0.193,0.159 -0.517,0.238 -0.972,0.238l-3.817 0c-0.659,0 -0.989,-0.215 -0.989,-0.647 0,-0.159 0.034,-0.341 0.102,-0.546l8.147 -22.361c0.182,-0.477 0.591,-0.716 1.227,-0.716l2.625 0c0.364,0 0.636,0.051 0.818,0.153 0.182,0.103 0.341,0.336 0.478,0.699l8.113 22.225zm17.282 -18.952c0,0.318 -0.085,0.596 -0.256,0.835 -0.17,0.238 -0.426,0.358 -0.767,0.358l-4.942 0 0 17.93c0,0.295 -0.12,0.54 -0.358,0.733 -0.239,0.193 -0.517,0.289 -0.835,0.289l-3.58 0c-0.318,0 -0.596,-0.096 -0.835,-0.289 -0.238,-0.193 -0.358,-0.438 -0.358,-0.733l0 -17.93 -4.942 0c-0.341,0 -0.597,-0.12 -0.767,-0.358 -0.171,-0.239 -0.256,-0.517 -0.256,-0.835l0 -2.932c0,-0.341 0.091,-0.625 0.273,-0.852 0.182,-0.227 0.431,-0.341 0.75,-0.341l15.85 0c0.318,0 0.568,0.114 0.75,0.341 0.182,0.227 0.273,0.511 0.273,0.852l0 2.932z"/>
  <path class="fil2" d="M7.696 6.842l23.557 0 0 2.427 -23.557 0 0 -2.427zm2.546 4.646l20.893 0 0 2.427 -20.893 0 0 -2.427zm0 4.647l15.684 0 0 2.426 -15.684 0 0 -2.426zm0 4.646l15.684 0 0 2.426 -15.684 0 0 -2.426zm0 4.646l7.635 0 0 2.427 -7.635 0 0 -2.427zm-2.546 4.646l13.436 0 0 2.427 -13.436 0 0 -2.427z"/>
  <path class="fil3" d="M44.938 31.989l-1.833 0 0 6.341 1.282 0 0 -2.038 0.551 0c1.309,0 2.086,-0.797 2.086,-2.147 0,-1.359 -0.777,-2.156 -2.086,-2.156zm-0.018 3.08l-0.533 0 0 -1.857 0.533 0c0.514,0 0.785,0.317 0.785,0.933 0,0.607 -0.271,0.924 -0.785,0.924zm7.417 2.038l0 -1.404 1.797 0 0 -1.178 -1.797 0 0 -1.313 1.978 0 0 -1.223 -3.26 0 0 6.341 3.35 0 0 -1.223 -2.068 0zm9.034 1.223l1.445 0 -1.878 -3.569 1.607 -2.772 -1.463 0 -0.885 1.721 -0.325 0.707 0 -2.428 -1.264 0 0 6.341 1.264 0 0 -1.83 0.352 -0.571 1.147 2.401zm5.928 -6.341c-0.127,2.663 -0.181,3.705 -0.298,4.348 -0.154,0.806 -0.352,0.942 -0.732,0.942l0 1.159c1.048,0 1.716,-0.244 1.96,-1.766 0.117,-0.725 0.207,-1.784 0.298,-3.469l1.038 0 0 5.127 1.282 0 0 -6.341 -3.548 0zm10.542 6.341l1.327 0 -1.517 -6.341 -1.373 0 -1.517 6.341 1.328 0 0.207 -1.051 1.337 0 0.208 1.051zm-1.292 -2.274l0.145 -0.724c0.09,-0.453 0.189,-1.223 0.253,-1.74l0.036 0c0.063,0.517 0.171,1.287 0.252,1.74l0.145 0.724 -0.831 0zm10.678 -4.067l-0.994 2.4c-0.126,0.318 -0.343,0.87 -0.415,1.106l-0.036 0c-0.072,-0.236 -0.289,-0.788 -0.416,-1.106l-0.993 -2.4 -1.291 0 0 6.341 1.246 0 0 -1.558c-0.027,-0.77 -0.063,-1.54 -0.09,-2.31l0.045 -0.018 0.569 1.667 0.316 0.86 1.264 0 0.316 -0.86 0.569 -1.667 0.045 0.018c-0.036,0.77 -0.063,1.54 -0.099,2.31l0 1.558 1.255 0 0 -6.341 -1.291 0zm8.329 0l0 2.536 -1.3 0 0 -2.536 -1.291 0 0 6.341 1.291 0 0 -2.582 1.3 0 0 2.582 1.291 0 0 -6.341 -1.291 0zm8.285 6.341l1.327 0 -1.517 -6.341 -1.373 0 -1.517 6.341 1.328 0 0.207 -1.051 1.337 0 0.208 1.051zm-1.292 -2.274l0.145 -0.724c0.09,-0.453 0.189,-1.223 0.252,-1.74l0.037 0c0.063,0.517 0.171,1.287 0.253,1.74l0.144 0.724 -0.831 0zm16.304 2.274l1.327 0 -1.517 -6.341 -1.373 0 -1.517 6.341 1.327 0 0.208 -1.051 1.337 0 0.208 1.051zm-1.292 -2.274l0.145 -0.724c0.09,-0.453 0.189,-1.223 0.252,-1.74l0.036 0c0.064,0.517 0.172,1.287 0.253,1.74l0.145 0.724 -0.831 0zm9.72 -4.067l-3.187 0 0 6.341 1.282 0 0 -5.118 1.905 0 0 -1.223zm5.305 5.118l0 -1.404 1.797 0 0 -1.178 -1.797 0 0 -1.313 1.977 0 0 -1.223 -3.26 0 0 6.341 3.351 0 0 -1.223 -2.068 0zm8.862 -5.118l0 2.536 -1.3 0 0 -2.536 -1.292 0 0 6.341 1.292 0 0 -2.582 1.3 0 0 2.582 1.291 0 0 -6.341 -1.291 0zm8.916 7.419l1.265 0 0 -2.301 -0.587 0 0 -5.118 -1.292 0 0 5.118 -1.273 0 0 -5.118 -1.291 0 0 6.341 3.178 0 0 1.078zm10.456 -1.078l1.4 0 1.011 -2.056 0.451 0 0 2.056 1.283 0 0 -6.341 -1.833 0c-1.256,0 -1.996,0.788 -1.996,2.147 0,0.878 0.316,1.522 0.876,1.857l-1.192 2.337zm2.33 -3.279c-0.452,0 -0.696,-0.317 -0.696,-0.915 0,-0.607 0.244,-0.924 0.696,-0.924l0.532 0 0 1.839 -0.532 0zm-7.544 -3.062l0 6.341 1.282 0 0 -6.341 -1.282 0z"/>
 </g>
</svg>
