<?xml version="1.0" encoding="utf-8"?>
<!-- Generator: Adobe Illustrator 16.0.0, SVG Export Plug-In . SVG Version: 6.00 Build 0)  -->
<!DOCTYPE svg PUBLIC "-//W3C//DTD SVG 1.1//EN" "http://www.w3.org/Graphics/SVG/1.1/DTD/svg11.dtd">
<svg version="1.1" id="Layer_1" xmlns="http://www.w3.org/2000/svg" xmlns:xlink="http://www.w3.org/1999/xlink" x="0px" y="0px"
	 width="1024px" height="1024px" viewBox="0 0 1024 1024" enable-background="new 0 0 1024 1024" xml:space="preserve">
<g>
	<polygon fill="#ffffff" points="348.938,803.688 439.979,723.813 377.542,686.271 	"/>
	<path fill="#ffffff" d="M987.792,189.271c-2.708-3.063-6.917-4.292-10.958-3.209L41.229,456.146c-4.021,1.166-7,4.563-7.604,8.729
		c-0.604,4.104,1.271,8.229,4.813,10.479l204.25,131.042l50.292,223.583c1.104,4.875,5.396,8.333,10.375,8.333
		c0.021,0,0.021,0,0.042,0c4.958,0,9.25-3.416,10.396-8.208l46.104-197.042L704,836.875c2.646,1.521,5.813,1.896,8.75,0.938
		c2.917-0.938,5.292-3.125,6.5-5.938l270.375-631.354C991.25,196.729,990.542,192.354,987.792,189.271z M333.875,607.521
		l-32,137.458l-37.333-161.458l708.75-382.813L333.875,607.521z"/>
</g>
</svg>
