<?xml version="1.0" encoding="utf-8"?>
<!-- Generator: Adobe Illustrator 16.0.0, SVG Export Plug-In . SVG Version: 6.00 Build 0)  -->
<!DOCTYPE svg PUBLIC "-//W3C//DTD SVG 1.1//EN" "http://www.w3.org/Graphics/SVG/1.1/DTD/svg11.dtd">
<svg version="1.1" id="Layer_1" xmlns="http://www.w3.org/2000/svg" xmlns:xlink="http://www.w3.org/1999/xlink" x="0px" y="0px"
	 width="1024px" height="1024px" viewBox="0 0 1024 1024" enable-background="new 0 0 1024 1024" xml:space="preserve">
<g>
	<path fill-rule="evenodd" clip-rule="evenodd" fill="#ffffff" d="M768.169,812.854H256.123c-7.438,0-13.459,6.021-13.459,13.458
		s6.021,13.459,13.459,13.459h59.384v41.396c0,7.146,5.781,12.938,12.938,12.938h47.646c7.125,0,12.906-5.792,12.906-12.938v-41.396
		h249.581v41.396c0,7.146,5.771,12.938,12.896,12.938h47.655c7.125,0,12.959-5.792,12.959-12.938v-41.396h56.082
		c7.458,0,13.458-6.021,13.458-13.459S775.627,812.854,768.169,812.854z"/>
	<path fill-rule="evenodd" clip-rule="evenodd" fill="#ffffff" d="M813.002,397.584h-26.166c-2.334,0-4.542,0.75-6.625,1.771
		v-75.021v-160c0-19.021-15.416-34.438-34.458-34.438H279.56c-19.011,0-34.448,15.416-34.448,34.438v235.729
		c-2.448-1.5-5.104-2.479-7.969-2.479h-26.167c-10.489,0-18.958,11.041-18.958,24.729v80.521c0,13.604,8.469,24.75,18.958,24.75
		h26.167c10.438,0,18.958-11.146,18.958-24.75v-47.271l18.698-113.979c7.573-47.542,67.52-42.917,67.52-42.917l366.684,0.833
		c34.5,4.209,39.542,38.709,39.542,38.709l19.333,130.438v34.188c0,13.604,8.541,24.75,18.958,24.75h26.166
		c10.5,0,18.959-11.146,18.959-24.75v-80.521C831.961,408.625,823.502,397.584,813.002,397.584z"/>
	<path fill-rule="evenodd" clip-rule="evenodd" fill="#ffffff" d="M736.92,767.354c17.125,0,30.958-13.833,30.958-30.917
		l-0.084-178.333L734.962,348.25c-3-13.625-10.5-32.75-32.792-32.75H323.893c-23.594,0-30.511,19.125-33.636,32.75l-33.708,209.854
		v178.333c0,17.084,13.854,30.917,30.948,30.917H736.92z M597.952,711.188h-167.3c-7.448,0-13.469-6.021-13.469-13.458
		s6.021-13.458,13.469-13.458h167.3c7.438,0,13.458,6.021,13.458,13.458S605.39,711.188,597.952,711.188z M597.952,650.979h-167.3
		c-7.448,0-13.469-6.021-13.469-13.479c0-7.438,6.021-13.458,13.469-13.458h167.3c7.438,0,13.458,6.021,13.458,13.458
		C611.41,644.959,605.39,650.979,597.952,650.979z M706.295,639.709c0,13.583-11.083,24.625-24.667,24.625h-13.447
		c-13.624,0-24.687-11.042-24.687-24.625c0-13.646,11.063-24.75,24.687-24.75h13.447
		C695.212,614.959,706.295,626.063,706.295,639.709z M362.486,392.917c0-2.063,1.5-3.583,3.375-3.583h296.883
		c1.853,0,3.353,1.521,3.353,3.583l20.198,139.354c0,1.938-1.542,3.583-3.417,3.583H345.694c-1.844,0-3.375-1.646-3.375-3.583
		L362.486,392.917z M335.778,614.959h13.438c13.594,0,24.666,11.104,24.666,24.75c0,13.583-11.072,24.625-24.666,24.625h-13.438
		c-13.625,0-24.698-11.042-24.698-24.625C311.08,626.063,322.153,614.959,335.778,614.959z"/>
</g>
</svg>
