<?xml version="1.0" encoding="utf-8"?>
<!-- Generator: Adobe Illustrator 16.0.0, SVG Export Plug-In . SVG Version: 6.00 Build 0)  -->
<!DOCTYPE svg PUBLIC "-//W3C//DTD SVG 1.1//EN" "http://www.w3.org/Graphics/SVG/1.1/DTD/svg11.dtd">
<svg version="1.1" id="Layer_1" xmlns="http://www.w3.org/2000/svg" xmlns:xlink="http://www.w3.org/1999/xlink" x="0px" y="0px"
	 width="48px" height="48px" viewBox="0 0 48 48" enable-background="new 0 0 48 48" xml:space="preserve">
<g>
	<path fill="#414042" d="M40.59,5.735H12.546v4.886H40.59c1.238,0,2.242-0.803,2.242-1.794V7.53
		C42.832,6.54,41.828,5.735,40.59,5.735z"/>
	<circle fill="#414042" cx="10.528" cy="26.071" r="1.646"/>
	<path fill="#414042" d="M40.99,11.591H5.005v29.213H40.59c1.238,0,2.242-1.002,2.242-2.242V10.429
		C42.832,11.429,40.99,11.591,40.99,11.591z M15.05,27.546c0,0.994-0.806,1.797-1.798,1.797H6.005V22.8h7.247
		c0.992,0,1.798,0.807,1.798,1.799V27.546z"/>
</g>
</svg>
