<?xml version="1.0" encoding="utf-8"?>
<!-- Generator: Adobe Illustrator 16.0.0, SVG Export Plug-In . SVG Version: 6.00 Build 0)  -->
<!DOCTYPE svg PUBLIC "-//W3C//DTD SVG 1.1//EN" "http://www.w3.org/Graphics/SVG/1.1/DTD/svg11.dtd">
<svg version="1.1" id="Layer_1" xmlns="http://www.w3.org/2000/svg" xmlns:xlink="http://www.w3.org/1999/xlink" x="0px" y="0px"
	 width="48px" height="48px" viewBox="0 0 48 48" enable-background="new 0 0 48 48" xml:space="preserve">
<g>
	<path fill="#414042" d="M33.962,17.177c0-7.131-6.342-12.931-14.137-12.931c-7.797,0-14.141,5.8-14.141,12.931
		c0,2.456,0.893,5.182,2.396,7.317l-3.188,8.132c-0.074,0.19-0.025,0.409,0.124,0.548c0.095,0.089,0.218,0.136,0.342,0.136
		c0.072,0,0.146-0.017,0.213-0.049l8.065-3.806c2.007,0.643,6.017,0.65,6.188,0.65C27.62,30.105,33.962,24.306,33.962,17.177z"/>
	<path fill="#414042" d="M42.928,42.626l-3.186-8.132c1.501-2.135,2.396-4.863,2.396-7.317c0-4.315-2.344-8.268-6.139-10.65
		c0.007,0.18,0.029,0.358,0.029,0.54c0,8.207-7.256,14.885-16.175,14.885c-0.364,0-2.944-0.014-5.146-0.352
		c1.988,5.045,7.22,8.506,13.289,8.506c0.172,0,4.182-0.008,6.188-0.649l8.064,3.805c0.067,0.032,0.141,0.049,0.213,0.049
		c0.124,0,0.247-0.047,0.342-0.136C42.953,43.035,43.002,42.818,42.928,42.626z"/>
</g>
</svg>
