<?xml version="1.0" encoding="utf-8"?>
<!-- Generator: Adobe Illustrator 16.0.0, SVG Export Plug-In . SVG Version: 6.00 Build 0)  -->
<!DOCTYPE svg PUBLIC "-//W3C//DTD SVG 1.1//EN" "http://www.w3.org/Graphics/SVG/1.1/DTD/svg11.dtd">
<svg version="1.1" id="Layer_1" xmlns="http://www.w3.org/2000/svg" xmlns:xlink="http://www.w3.org/1999/xlink" x="0px" y="0px"
	 width="48px" height="48px" viewBox="0 0 48 48" enable-background="new 0 0 48 48" xml:space="preserve">
<g>
	<path fill="#414042" d="M42.578,13.412c-1.139-1.968-3.551-3.008-6.977-3.008c-1.309,0-2.727,0.162-4.209,0.447
		c-1.789-5.133-4.586-8.396-7.795-8.396c-3.209,0-6.008,3.263-7.795,8.397c-1.484-0.287-2.903-0.448-4.211-0.448
		c-3.426,0-5.837,1.041-6.975,3.009C3.011,16.195,4.442,20.254,8,24.372c-3.558,4.12-4.989,8.179-3.383,10.96
		c1.137,1.967,3.549,3.008,6.974,3.008c1.308,0,2.727-0.162,4.211-0.449c1.787,5.135,4.585,8.398,7.795,8.398
		c3.209,0,6.008-3.264,7.795-8.398c1.484,0.287,2.902,0.449,4.211,0.449c3.424,0,5.836-1.041,6.973-3.01
		c1.605-2.781,0.176-6.842-3.381-10.959C42.752,20.254,44.184,16.195,42.578,13.412z M35.602,12.404
		c2.633,0,4.496,0.713,5.244,2.008c1.064,1.845-0.016,5.023-2.992,8.51c-1.355-1.379-2.938-2.745-4.719-4.059
		c-0.246-2.189-0.635-4.235-1.148-6.092C33.271,12.532,34.488,12.404,35.602,12.404z M27.521,31.17
		c-1.297,0.75-2.612,1.422-3.923,2.023c-1.312-0.602-2.628-1.273-3.926-2.023c-1.336-0.771-2.577-1.568-3.729-2.381
		c-0.126-1.402-0.197-2.875-0.197-4.417c0-1.543,0.071-3.018,0.198-4.42c1.151-0.812,2.393-1.61,3.729-2.382
		c1.297-0.749,2.613-1.419,3.924-2.021c1.312,0.602,2.628,1.273,3.927,2.022c1.336,0.771,2.576,1.569,3.727,2.38
		c0.127,1.403,0.199,2.877,0.199,4.421c0,1.542-0.072,3.015-0.197,4.417C30.1,29.602,28.857,30.398,27.521,31.17z M30.926,31.414
		c-0.227,1.482-0.518,2.863-0.865,4.127c-1.297-0.338-2.645-0.773-4.014-1.305c0.826-0.418,1.652-0.859,2.475-1.334
		C29.355,32.422,30.15,31.922,30.926,31.414z M21.148,34.236c-1.37,0.531-2.717,0.967-4.014,1.305
		c-0.349-1.262-0.64-2.645-0.866-4.127c0.776,0.508,1.571,1.008,2.404,1.488C19.496,33.377,20.322,33.818,21.148,34.236z
		 M13.833,27.195c-1.176-0.941-2.231-1.887-3.152-2.824c0.921-0.937,1.976-1.884,3.152-2.826c-0.051,0.926-0.087,1.865-0.087,2.827
		S13.782,26.271,13.833,27.195z M16.269,17.327c0.226-1.482,0.517-2.863,0.866-4.124c1.296,0.336,2.642,0.772,4.011,1.302
		c-0.826,0.417-1.651,0.858-2.473,1.333C17.839,16.319,17.044,16.819,16.269,17.327z M26.047,14.504
		c1.369-0.53,2.717-0.966,4.014-1.302c0.348,1.261,0.639,2.642,0.865,4.125c-0.775-0.507-1.57-1.007-2.402-1.488
		C27.699,15.364,26.873,14.923,26.047,14.504z M33.361,21.545c1.176,0.942,2.232,1.889,3.152,2.826
		c-0.92,0.938-1.977,1.885-3.152,2.826c0.051-0.926,0.088-1.863,0.088-2.825C33.449,23.41,33.412,22.471,33.361,21.545z
		 M23.598,4.455c2.125,0,4.336,2.519,5.867,6.832c-1.889,0.493-3.863,1.19-5.868,2.066c-2.004-0.875-3.979-1.573-5.868-2.066
		C19.261,6.974,21.471,4.455,23.598,4.455z M6.348,14.413c0.749-1.295,2.61-2.009,5.243-2.009c1.113,0,2.331,0.128,3.617,0.368
		c-0.512,1.857-0.901,3.903-1.147,6.092c-1.78,1.314-3.363,2.68-4.719,4.059C6.364,19.436,5.285,16.257,6.348,14.413z M11.591,36.34
		c-2.632,0-4.494-0.715-5.242-2.008c-1.064-1.844,0.016-5.023,2.992-8.512c1.356,1.379,2.938,2.744,4.719,4.057
		c0.247,2.191,0.635,4.236,1.148,6.094C13.921,36.211,12.704,36.34,11.591,36.34z M23.598,44.289c-2.127,0-4.337-2.52-5.869-6.834
		c1.89-0.492,3.865-1.189,5.87-2.066c2.003,0.877,3.978,1.574,5.867,2.066C27.934,41.77,25.723,44.289,23.598,44.289z M40.846,34.33
		c-0.75,1.295-2.611,2.01-5.242,2.01c-1.113,0-2.33-0.129-3.617-0.369c0.514-1.857,0.902-3.904,1.148-6.094
		c1.781-1.313,3.363-2.678,4.719-4.057C40.83,29.307,41.908,32.486,40.846,34.33z"/>
	<circle fill="#414042" cx="23.603" cy="24.372" r="2.302"/>
</g>
</svg>
