<?xml version="1.0" encoding="utf-8"?>
<!-- Generator: Adobe Illustrator 16.0.0, SVG Export Plug-In . SVG Version: 6.00 Build 0)  -->
<!DOCTYPE svg PUBLIC "-//W3C//DTD SVG 1.1//EN" "http://www.w3.org/Graphics/SVG/1.1/DTD/svg11.dtd">
<svg version="1.1" id="Layer_1" xmlns="http://www.w3.org/2000/svg" xmlns:xlink="http://www.w3.org/1999/xlink" x="0px" y="0px"
	 width="1024px" height="1024px" viewBox="0 0 1024 1024" enable-background="new 0 0 1024 1024" xml:space="preserve">
<g>
	<path fill="#ffffff" d="M586.141,340.323c153.298-46.339,183.574-118.355,184.381-120.5
		c32.25-66.313-10.771-125.292-38.834-147.979c-36.646-35.635-73.625-43.166-98.25-43.166c-19.896,0-33.229,4.938-34.688,5.5
		c-0.708,0.281-1.416,0.614-2.083,0.947c-43.685,22.585-69.479,69.367-84.661,118.933c-15.175-49.604-40.951-96.349-84.589-118.922
		c-0.688-0.344-1.396-0.677-2.125-0.958c-1.438-0.563-14.771-5.5-34.667-5.5c-24.646,0-61.646,7.531-98.291,43.166
		c-28.063,22.709-71.104,81.667-39.438,146.5c1.356,3.446,31.666,75.622,185.001,121.979h-327.23v133.375h802.667V340.323H586.141z
		 M614.875,73.761c6.604-2,46.146-11.594,87.709,29.292c0.5,0.51,1.104,1.041,1.666,1.479c2.209,1.771,53.584,43.875,27.25,98.104
		c-0.291,0.708-31.65,68.732-198.113,107.666c-0.007-2.312-0.03-4.832-0.073-7.542C534.371,235.213,549.788,109.063,614.875,73.761z
		 M291.896,201.136c-25.688-52.729,25.666-94.833,27.791-96.542c0.625-0.469,1.209-1,1.75-1.541
		c26.646-26.209,52.313-31.709,69.188-31.709c9.521,0,16.334,1.75,18.521,2.396c64.925,35.187,80.421,160.789,81.536,229.355
		c-0.039,2.584-0.058,4.982-0.063,7.176C324.631,271.412,292.709,202.958,291.896,201.136z"/>
	<rect x="199.771" y="514.323" fill="#ffffff" width="293.563" height="221.823"/>
	<rect x="199.771" y="773.479" fill="#ffffff" width="293.563" height="221.854"/>
	<rect x="533.354" y="514.323" fill="#ffffff" width="290.875" height="221.823"/>
	<rect x="533.354" y="773.479" fill="#ffffff" width="290.875" height="221.854"/>
</g>
</svg>
