<?xml version="1.0" encoding="UTF-8"?>
<!DOCTYPE svg PUBLIC "-//W3C//DTD SVG 1.1//EN" "http://www.w3.org/Graphics/SVG/1.1/DTD/svg11.dtd">
<!-- Creator: CorelDRAW 2020 (64-Bit) -->
<svg xmlns="http://www.w3.org/2000/svg" xml:space="preserve" width="591px" height="591px" version="1.1" style="shape-rendering:geometricPrecision; text-rendering:geometricPrecision; image-rendering:optimizeQuality; fill-rule:evenodd; clip-rule:evenodd"
viewBox="0 0 591 591"
 xmlns:xlink="http://www.w3.org/1999/xlink"
 xmlns:xodm="http://www.corel.com/coreldraw/odm/2003">
 <defs>
  <style type="text/css">
   <![CDATA[
    .fil0 {fill:#FFF;fill-rule:nonzero}
   ]]>
  </style>
 </defs>
 <g id="Layer_x0020_1">
  <metadata id="CorelCorpID_0Corel-Layer"/>
  <path class="fil0" d="M288.38 0.72l18.9 0 60.91 155.47c127.69,0.52 222.09,2.35 222.09,4.53 0,2.59 -132.3,4.69 -295.5,4.69 -163.2,0 -295.5,-2.1 -295.5,-4.69 0,-2.21 96.85,-4.06 227.04,-4.55l62.06 -155.45zm22.99 155.33l-30.49 -78.16 -31.23 78.21c14.71,-0.04 29.78,-0.06 45.13,-0.06l16.59 0.01zm-16.59 104.42c163.2,0 295.5,2.1 295.5,4.68 0,1.93 -73.13,3.58 -177.71,4.3l38.48 98.21c5.75,14.73 17.6,22.14 35.48,22.14l12.51 0 0 20.56 -160.08 0 0 -20.56 12.79 0c16.58,0 28.34,-1.76 35.2,-5.37 4.72,-2.6 7.13,-6.49 7.13,-11.68 0,-3.05 -0.65,-6.3 -1.94,-9.72l-33.17 -84.95 -158.59 0 -18.81 48.73c-4.91,12.96 -7.41,23.25 -7.41,30.84 0,8.8 4.17,16.4 12.42,22.7 8.24,6.3 20.19,9.45 35.94,9.45l13.62 0 0 20.56 -145.63 0 0 -20.56c15.57,0 27.89,-3.43 36.96,-10.19 9.08,-6.76 17.42,-19.55 25.02,-38.54l28.58 -71.59c-106.75,-0.71 -181.79,-2.38 -181.79,-4.33 0,-2.58 132.3,-4.68 295.5,-4.68z"/>
 </g>
</svg>
