<?xml version="1.0" encoding="UTF-8"?>
<!DOCTYPE svg PUBLIC "-//W3C//DTD SVG 1.1//EN" "http://www.w3.org/Graphics/SVG/1.1/DTD/svg11.dtd">
<!-- Creator: CorelDRAW 2020 (64-Bit) -->
<svg xmlns="http://www.w3.org/2000/svg" xml:space="preserve" width="591px" height="591px" version="1.1" style="shape-rendering:geometricPrecision; text-rendering:geometricPrecision; image-rendering:optimizeQuality; fill-rule:evenodd; clip-rule:evenodd"
viewBox="0 0 591 591"
 xmlns:xlink="http://www.w3.org/1999/xlink"
 xmlns:xodm="http://www.corel.com/coreldraw/odm/2003">
 <defs>
  <style type="text/css">
   <![CDATA[
    .fil0 {fill:#FFF;fill-rule:nonzero}
   ]]>
  </style>
 </defs>
 <g id="Layer_x0020_1">
  <metadata id="CorelCorpID_0Corel-Layer"/>
  <path class="fil0" d="M467 320l0 97 -17 0c-1,-53 -31,-80 -90,-80l-237 0 0 -17 24 0c8,0 14,-2 17,-5 3,-4 4,-12 4,-25l0 -20c-100,-1 -169,-2 -169,-4 0,-3 132,-5 296,-5 163,0 296,2 296,5 0,2 -73,4 -178,4l0 23c0,12 3,19 9,23 6,3 12,5 20,5l26 0zm-251 -50l0 49 149 0 0 -49c-22,0 -46,0 -70,0 -27,0 -54,0 -79,0zm79 -114c24,0 48,0 70,0l0 -102c0,-11 -1,-17 -2,-19 -1,-2 -3,-4 -6,-6 -3,-2 -8,-3 -14,-3l-26 0 0 -17 141 0 0 17 -27 0c-6,0 -10,1 -12,3 -2,2 -4,4 -5,6 -1,2 -2,9 -2,20l0 101c105,1 178,2 178,4 0,3 -132,5 -296,5 -163,0 -296,-2 -296,-5 0,-2 69,-3 169,-4l0 -103c0,-10 0,-16 -1,-19 -1,-3 -3,-5 -8,-7 -4,-2 -9,-3 -15,-3l-21 0 0 -17 139 0 0 17 -24 0c-9,0 -15,2 -18,6 -3,4 -4,12 -4,24l0 101c25,0 52,0 79,0z"/>
 </g>
</svg>
