<?xml version="1.0" encoding="UTF-8"?>
<!DOCTYPE svg PUBLIC "-//W3C//DTD SVG 1.1//EN" "http://www.w3.org/Graphics/SVG/1.1/DTD/svg11.dtd">
<!-- Creator: CorelDRAW 2020 (64-Bit) -->
<svg xmlns="http://www.w3.org/2000/svg" xml:space="preserve" width="591px" height="591px" version="1.1" style="shape-rendering:geometricPrecision; text-rendering:geometricPrecision; image-rendering:optimizeQuality; fill-rule:evenodd; clip-rule:evenodd"
viewBox="0 0 591 591"
 xmlns:xlink="http://www.w3.org/1999/xlink"
 xmlns:xodm="http://www.corel.com/coreldraw/odm/2003">
 <defs>
  <style type="text/css">
   <![CDATA[
    .fil0 {fill:#FFF;fill-rule:nonzero}
   ]]>
  </style>
 </defs>
 <g id="Layer_x0020_1">
  <metadata id="CorelCorpID_0Corel-Layer"/>
  <path class="fil0" d="M371 40l24 -35 20 0 2 146 -18 0c-11,-45 -28,-77 -50,-98 -22,-21 -47,-31 -76,-31 -24,0 -43,7 -59,21 -15,14 -23,32 -23,52 0,13 3,24 9,34 6,10 14,18 26,24 2,1 5,2 8,4 19,0 40,0 60,0 163,0 296,2 296,5 0,3 -132,5 -296,5 -163,0 -296,-2 -296,-5 0,-2 66,-3 161,-4 -3,-11 -5,-22 -5,-35 0,-35 11,-64 34,-87 23,-23 51,-34 86,-34 17,0 33,3 48,9 15,6 31,16 47,30zm-76 221c163,0 296,2 296,5 0,2 -62,3 -153,4 1,7 2,15 2,23 0,36 -12,66 -37,90 -24,24 -56,36 -94,36 -41,0 -77,-13 -108,-40l-31 37 -19 0 0 -146c-90,-1 -151,-2 -151,-4 0,-3 132,-5 296,-5zm84 9c-27,0 -55,0 -84,0 -44,0 -86,0 -123,0 8,38 25,69 49,91 26,25 56,37 89,37 27,0 49,-8 65,-24 17,-16 25,-35 25,-58 0,-13 -3,-24 -10,-34 -3,-5 -7,-9 -12,-13z"/>
 </g>
</svg>
