<?xml version="1.0" encoding="UTF-8"?>
<!DOCTYPE svg PUBLIC "-//W3C//DTD SVG 1.1//EN" "http://www.w3.org/Graphics/SVG/1.1/DTD/svg11.dtd">
<!-- Creator: CorelDRAW 2020 (64-Bit) -->
<svg xmlns="http://www.w3.org/2000/svg" xml:space="preserve" width="591px" height="591px" version="1.1" style="shape-rendering:geometricPrecision; text-rendering:geometricPrecision; image-rendering:optimizeQuality; fill-rule:evenodd; clip-rule:evenodd"
viewBox="0 0 591 591"
 xmlns:xlink="http://www.w3.org/1999/xlink"
 xmlns:xodm="http://www.corel.com/coreldraw/odm/2003">
 <defs>
  <style type="text/css">
   <![CDATA[
    .fil0 {fill:#FFF;fill-rule:nonzero}
   ]]>
  </style>
 </defs>
 <g id="Layer_x0020_1">
  <metadata id="CorelCorpID_0Corel-Layer"/>
  <path class="fil0" d="M375 309c2,6 5,14 7,24 5,19 10,32 14,38 5,6 10,9 16,9 6,0 10,-3 14,-9 4,-6 6,-16 7,-31l13 0c0,26 -5,45 -15,58 -10,12 -23,18 -39,18 -15,0 -27,-6 -37,-18 -9,-12 -16,-35 -19,-69 -8,2 -16,4 -23,5 -8,1 -15,1 -22,1 -27,0 -52,-7 -75,-21 -18,-11 -33,-26 -45,-44 -102,-1 -173,-2 -173,-4 0,-3 132,-5 296,-5 163,0 296,2 296,5 0,2 -74,4 -179,4 -10,14 -22,27 -37,39zm-158 -39c3,6 6,12 10,18 0,-7 0,-12 0,-16 0,-1 0,-1 0,-2l-9 0zm25 0c0,1 0,3 0,4 0,14 5,26 16,39 10,4 21,7 32,7 9,0 17,-1 25,-3 8,-2 15,-5 22,-10 0,-14 -1,-27 -3,-37 -13,0 -26,0 -39,0 -18,0 -36,0 -53,0zm118 0c1,3 2,6 3,9 2,-3 3,-6 5,-9l-8 0zm-65 -114c32,0 63,0 91,0 -1,-32 -5,-57 -12,-76 -8,-21 -19,-37 -34,-47 -15,-10 -31,-15 -49,-15 -18,0 -34,5 -48,15 -14,10 -25,26 -33,47 -7,19 -11,45 -12,76 30,0 63,0 97,0zm146 1c89,1 150,2 150,4 0,3 -132,5 -296,5 -163,0 -296,-2 -296,-5 0,-2 58,-3 144,-4 2,-43 17,-80 45,-111 28,-30 62,-45 103,-45 27,0 52,7 75,21 23,14 41,34 54,59 12,23 19,48 20,76z"/>
 </g>
</svg>
