<?xml version="1.0" encoding="UTF-8"?>
<!DOCTYPE svg PUBLIC "-//W3C//DTD SVG 1.1//EN" "http://www.w3.org/Graphics/SVG/1.1/DTD/svg11.dtd">
<!-- Creator: CorelDRAW 2020 (64-Bit) -->
<svg xmlns="http://www.w3.org/2000/svg" xml:space="preserve" width="591px" height="591px" version="1.1" style="shape-rendering:geometricPrecision; text-rendering:geometricPrecision; image-rendering:optimizeQuality; fill-rule:evenodd; clip-rule:evenodd"
viewBox="0 0 591 591"
 xmlns:xlink="http://www.w3.org/1999/xlink"
 xmlns:xodm="http://www.corel.com/coreldraw/odm/2003">
 <defs>
  <style type="text/css">
   <![CDATA[
    .fil0 {fill:#FFF;fill-rule:nonzero}
   ]]>
  </style>
 </defs>
 <g id="Layer_x0020_1">
  <metadata id="CorelCorpID_0Corel-Layer"/>
  <path class="fil0" d="M120 9l186 0 0 21 -44 0c-7,0 -12,2 -16,6 -3,4 -5,10 -5,18l0 103c17,0 35,0 54,0 163,0 296,2 296,5 0,3 -132,5 -296,5 -163,0 -296,-2 -296,-5 0,-2 76,-4 184,-4l0 -106c0,-7 -2,-12 -6,-15 -4,-3 -9,-5 -17,-5l-41 0 0 -21zm175 251c163,0 296,2 296,5 0,2 -51,3 -128,4l-9 141 -334 0 0 -21 33 0c11,0 19,-2 24,-6 5,-4 7,-11 7,-20l0 -93c-108,-1 -184,-2 -184,-4 0,-3 132,-5 296,-5zm147 9c-43,0 -94,1 -147,1 -18,0 -36,0 -54,0l0 99c0,8 2,13 6,16 4,3 13,5 26,5l56 0c30,0 55,-10 74,-30 17,-18 30,-48 39,-91z"/>
 </g>
</svg>
