<?xml version="1.0" encoding="UTF-8"?>
<!DOCTYPE svg PUBLIC "-//W3C//DTD SVG 1.1//EN" "http://www.w3.org/Graphics/SVG/1.1/DTD/svg11.dtd">
<!-- Creator: CorelDRAW 2020 (64-Bit) -->
<svg xmlns="http://www.w3.org/2000/svg" xml:space="preserve" width="591px" height="591px" version="1.1" style="shape-rendering:geometricPrecision; text-rendering:geometricPrecision; image-rendering:optimizeQuality; fill-rule:evenodd; clip-rule:evenodd"
viewBox="0 0 591 591"
 xmlns:xlink="http://www.w3.org/1999/xlink"
 xmlns:xodm="http://www.corel.com/coreldraw/odm/2003">
 <defs>
  <style type="text/css">
   <![CDATA[
    .fil0 {fill:#FFF;fill-rule:nonzero}
   ]]>
  </style>
 </defs>
 <g id="Layer_x0020_1">
  <metadata id="CorelCorpID_0Corel-Layer"/>
  <path class="fil0" d="M199 9l185 0 0 21 -32 0c-14,0 -23,2 -27,5 -4,4 -6,11 -6,22l0 99c152,0 271,2 271,5 0,3 -132,5 -296,5 -163,0 -296,-2 -296,-5 0,-2 115,-4 264,-5l0 -99c0,-11 -2,-19 -5,-21 -5,-4 -14,-6 -28,-6l-32 0 0 -21zm96 251c163,0 296,2 296,5 0,2 -119,4 -271,5l0 91c0,12 2,20 5,23 4,4 12,6 24,6l35 0 0 21 -185 0 0 -21 35 0c12,0 20,-2 24,-5 4,-4 5,-11 5,-24l0 -91c-148,0 -264,-2 -264,-5 0,-3 132,-5 296,-5z"/>
 </g>
</svg>
