<?xml version="1.0" encoding="UTF-8"?>
<!DOCTYPE svg PUBLIC "-//W3C//DTD SVG 1.1//EN" "http://www.w3.org/Graphics/SVG/1.1/DTD/svg11.dtd">
<!-- Creator: CorelDRAW 2020 (64-Bit) -->
<svg xmlns="http://www.w3.org/2000/svg" xml:space="preserve" width="591px" height="591px" version="1.1" style="shape-rendering:geometricPrecision; text-rendering:geometricPrecision; image-rendering:optimizeQuality; fill-rule:evenodd; clip-rule:evenodd"
viewBox="0 0 591 591"
 xmlns:xlink="http://www.w3.org/1999/xlink"
 xmlns:xodm="http://www.corel.com/coreldraw/odm/2003">
 <defs>
  <style type="text/css">
   <![CDATA[
    .fil0 {fill:#FFF;fill-rule:nonzero}
   ]]>
  </style>
 </defs>
 <g id="Layer_x0020_1">
  <metadata id="CorelCorpID_0Corel-Layer"/>
  <path class="fil0" d="M382 156l0 -99c0,-11 -2,-18 -5,-22 -4,-4 -13,-6 -28,-6l-25 0 0 -21 172 0 0 21 -24 0c-14,0 -23,2 -27,5 -4,4 -5,11 -5,22l0 99c90,1 151,2 151,4 0,3 -132,5 -296,5 -163,0 -296,-2 -296,-5 0,-2 65,-3 161,-4 -1,-6 -1,-12 -1,-18l0 -81c0,-11 -2,-18 -5,-22 -4,-4 -13,-6 -28,-6l-31 0 0 -21 180 0 0 21 -26 0c-14,0 -23,2 -27,5 -4,4 -6,11 -6,22l0 85c0,5 0,9 0,13 25,0 52,0 79,0 30,0 59,0 87,0zm-87 104c163,0 296,2 296,5 0,2 -61,3 -151,4l0 92c0,12 2,20 6,24 4,4 11,5 23,5l27 0 0 21 -180 0 0 -21 37 0c12,0 20,-2 24,-5 4,-4 5,-11 5,-24l0 -91c-28,0 -57,0 -87,0 -163,0 -296,-2 -296,-5 0,-3 132,-5 296,-5z"/>
 </g>
</svg>
