<?xml version="1.0" encoding="UTF-8"?>
<!DOCTYPE svg PUBLIC "-//W3C//DTD SVG 1.1//EN" "http://www.w3.org/Graphics/SVG/1.1/DTD/svg11.dtd">
<!-- Creator: CorelDRAW 2020 (64-Bit) -->
<svg xmlns="http://www.w3.org/2000/svg" xml:space="preserve" width="591px" height="591px" version="1.1" style="shape-rendering:geometricPrecision; text-rendering:geometricPrecision; image-rendering:optimizeQuality; fill-rule:evenodd; clip-rule:evenodd"
viewBox="0 0 591 591"
 xmlns:xlink="http://www.w3.org/1999/xlink"
 xmlns:xodm="http://www.corel.com/coreldraw/odm/2003">
 <defs>
  <style type="text/css">
   <![CDATA[
    .fil0 {fill:#FFF;fill-rule:nonzero}
   ]]>
  </style>
 </defs>
 <g id="Layer_x0020_1">
  <metadata id="CorelCorpID_0Corel-Layer"/>
  <path class="fil0" d="M200 311l32 -42c-11,0 -21,0 -32,0l0 42zm61 -41l-61 81c0,11 0,19 1,23 0,4 3,8 8,11 5,3 11,5 19,5l32 0 0 21 -172 0 0 -21 33 0c9,0 15,-2 18,-7 3,-5 5,-15 5,-29l0 -84c-86,-1 -143,-2 -143,-4 0,-3 132,-5 296,-5 163,0 296,2 296,5 0,2 -57,3 -143,4l0 86c0,12 1,19 2,22 1,3 4,6 9,9 5,2 11,4 18,4l26 0 0 21 -170 0 0 -21 29 0c12,0 19,-2 22,-7 3,-5 5,-15 5,-29l0 -84c-30,0 -62,0 -95,0 -11,0 -23,0 -34,0zm34 -114c8,0 16,0 23,0l72 -94 0 -7c0,-11 -2,-18 -5,-21 -3,-3 -11,-5 -22,-5l-29 0 0 -21 170 0 0 21 -30 0c-8,0 -14,2 -19,5 -5,3 -7,14 -7,33l0 90c86,1 143,2 143,4 0,3 -132,5 -296,5 -163,0 -296,-2 -296,-5 0,-2 57,-3 143,-4l0 -93c0,-14 -2,-24 -5,-28 -3,-4 -10,-6 -22,-6l-29 0 0 -21 172 0 0 21 -32 0c-11,0 -19,2 -22,6 -3,4 -5,13 -5,28l0 92c30,0 62,0 95,0zm52 0c15,0 29,0 43,0l0 -57 -43 57z"/>
 </g>
</svg>
