<?xml version="1.0" encoding="UTF-8"?>
<!DOCTYPE svg PUBLIC "-//W3C//DTD SVG 1.1//EN" "http://www.w3.org/Graphics/SVG/1.1/DTD/svg11.dtd">
<!-- Creator: CorelDRAW 2020 (64-Bit) -->
<svg xmlns="http://www.w3.org/2000/svg" xml:space="preserve" width="591px" height="591px" version="1.1" style="shape-rendering:geometricPrecision; text-rendering:geometricPrecision; image-rendering:optimizeQuality; fill-rule:evenodd; clip-rule:evenodd"
viewBox="0 0 591 591"
 xmlns:xlink="http://www.w3.org/1999/xlink"
 xmlns:xodm="http://www.corel.com/coreldraw/odm/2003">
 <defs>
  <style type="text/css">
   <![CDATA[
    .fil0 {fill:#FFF;fill-rule:nonzero}
   ]]>
  </style>
 </defs>
 <g id="Layer_x0020_1">
  <metadata id="CorelCorpID_0Corel-Layer"/>
  <path class="fil0" d="M81 9l185 0 0 21 -37 0c-10,0 -17,2 -21,5 -4,3 -6,8 -6,15l0 107c29,0 60,0 92,0 44,0 86,0 124,0l0 -56c0,-16 -1,-29 -3,-37 -2,-8 -5,-15 -10,-20 -4,-5 -10,-8 -16,-10 -7,-2 -17,-3 -33,-3l0 -21 151 0 0 21 -11 0c-17,0 -30,5 -38,14 -8,9 -12,22 -12,40l0 74c86,1 143,2 143,4 0,3 -132,5 -296,5 -163,0 -296,-2 -296,-5 0,-2 58,-3 145,-4l0 -107c0,-6 -2,-11 -6,-14 -4,-4 -11,-5 -19,-5l-38 0 0 -21zm213 251c163,0 296,2 296,5 0,2 -57,3 -143,4l0 11c0,43 -12,76 -37,99 -28,26 -64,39 -110,39 -40,0 -71,-6 -94,-17 -23,-11 -39,-28 -50,-49 -8,-16 -12,-36 -12,-61l0 -22c-87,-1 -145,-2 -145,-4 0,-3 132,-5 296,-5zm124 9c-38,0 -80,0 -124,0 -32,0 -63,0 -92,0l0 6c0,24 2,42 6,54 6,18 17,32 34,43 16,11 38,16 64,16 37,0 64,-9 83,-28 19,-19 29,-44 29,-76l0 -15z"/>
 </g>
</svg>
