<?xml version="1.0" encoding="UTF-8"?>
<!DOCTYPE svg PUBLIC "-//W3C//DTD SVG 1.1//EN" "http://www.w3.org/Graphics/SVG/1.1/DTD/svg11.dtd">
<!-- Creator: CorelDRAW 2020 (64-Bit) -->
<svg xmlns="http://www.w3.org/2000/svg" xml:space="preserve" width="591px" height="591px" version="1.1" style="shape-rendering:geometricPrecision; text-rendering:geometricPrecision; image-rendering:optimizeQuality; fill-rule:evenodd; clip-rule:evenodd"
viewBox="0 0 591 591"
 xmlns:xlink="http://www.w3.org/1999/xlink"
 xmlns:xodm="http://www.corel.com/coreldraw/odm/2003">
 <defs>
  <style type="text/css">
   <![CDATA[
    .fil0 {fill:#FFF;fill-rule:nonzero}
   ]]>
  </style>
 </defs>
 <g id="Layer_x0020_1">
  <metadata id="CorelCorpID_0Corel-Layer"/>
  <path class="fil0" d="M464 319l0 98 -17 0c-1,-17 -4,-31 -9,-43 -5,-12 -15,-22 -31,-28 -16,-7 -32,-10 -49,-10l-130 0c-24,0 -44,6 -60,17 -16,11 -24,32 -25,64l-17 0 3 -99c19,-1 34,-4 45,-10 10,-6 21,-19 32,-38 -120,-1 -207,-2 -207,-4 0,-3 132,-5 296,-5 163,0 296,2 296,5 0,2 -70,4 -172,4l0 22c0,19 9,28 26,28l19 0zm-236 -49c-14,25 -29,41 -47,48l191 0 0 -48c-24,0 -50,0 -77,0 -23,0 -45,0 -67,0zm67 -114c26,0 52,0 77,0l0 -130 -56 0c-18,0 -30,3 -38,8 -7,5 -12,12 -14,22 -2,10 -3,30 -5,61 -1,14 -1,27 -3,40 12,0 25,0 38,0zm124 0c101,1 172,2 172,4 0,3 -132,5 -296,5 -163,0 -296,-2 -296,-5 0,-2 101,-4 236,-5 2,-21 3,-44 3,-69 0,-24 -4,-40 -11,-49 -7,-9 -18,-14 -32,-14l-5 0 0 -15 273 0 0 17 -24 0c-8,0 -14,2 -17,5 -3,4 -4,12 -4,25l0 100z"/>
 </g>
</svg>
