<?xml version="1.0" encoding="UTF-8"?>
<!DOCTYPE svg PUBLIC "-//W3C//DTD SVG 1.1//EN" "http://www.w3.org/Graphics/SVG/1.1/DTD/svg11.dtd">
<!-- Creator: CorelDRAW 2020 (64-Bit) -->
<svg xmlns="http://www.w3.org/2000/svg" xml:space="preserve" width="591px" height="591px" version="1.1" style="shape-rendering:geometricPrecision; text-rendering:geometricPrecision; image-rendering:optimizeQuality; fill-rule:evenodd; clip-rule:evenodd"
viewBox="0 0 591 591"
 xmlns:xlink="http://www.w3.org/1999/xlink"
 xmlns:xodm="http://www.corel.com/coreldraw/odm/2003">
 <defs>
  <style type="text/css">
   <![CDATA[
    .fil0 {fill:#FFF;fill-rule:nonzero}
   ]]>
  </style>
 </defs>
 <g id="Layer_x0020_1">
  <metadata id="CorelCorpID_0Corel-Layer"/>
  <path class="fil0" d="M133 9l325 0 8 148c75,1 125,2 125,4 0,3 -132,5 -296,5 -163,0 -296,-2 -296,-5 0,-2 49,-3 125,-4l9 -148zm314 148c-13,-87 -45,-130 -96,-130 -10,0 -18,2 -22,5 -4,4 -6,10 -6,18l0 106c45,0 87,0 123,1zm-180 -1l0 -108c0,-7 -2,-12 -6,-16 -4,-4 -11,-5 -20,-5 -26,0 -48,12 -65,37 -14,20 -24,51 -30,93 36,0 78,-1 122,-1zm28 104c163,0 296,2 296,5 0,2 -117,4 -267,5l0 101c0,6 2,11 6,14 4,3 10,5 19,5l41 0 0 21 -187 0 0 -21 46 0c6,0 11,-2 14,-5 3,-3 5,-7 5,-12l0 -103c-150,0 -267,-2 -267,-5 0,-3 132,-5 296,-5z"/>
 </g>
</svg>
