<?xml version="1.0" encoding="UTF-8"?>
<!DOCTYPE svg PUBLIC "-//W3C//DTD SVG 1.1//EN" "http://www.w3.org/Graphics/SVG/1.1/DTD/svg11.dtd">
<!-- Creator: CorelDRAW 2020 (64-Bit) -->
<svg xmlns="http://www.w3.org/2000/svg" xml:space="preserve" width="591px" height="591px" version="1.1" style="shape-rendering:geometricPrecision; text-rendering:geometricPrecision; image-rendering:optimizeQuality; fill-rule:evenodd; clip-rule:evenodd"
viewBox="0 0 591 591"
 xmlns:xlink="http://www.w3.org/1999/xlink"
 xmlns:xodm="http://www.corel.com/coreldraw/odm/2003">
 <defs>
  <style type="text/css">
   <![CDATA[
    .fil0 {fill:#FFF;fill-rule:nonzero}
   ]]>
  </style>
 </defs>
 <g id="Layer_x0020_1">
  <metadata id="CorelCorpID_0Corel-Layer"/>
  <path class="fil0" d="M450 269c4,10 6,21 6,34 0,33 -16,60 -47,82 -31,22 -72,33 -123,33 -46,0 -82,-13 -109,-39 -27,-26 -42,-56 -43,-91l19 0c2,26 14,50 36,73 22,23 53,34 93,34 38,0 65,-9 82,-28 17,-19 26,-41 26,-68 0,-11 -1,-20 -4,-29 -29,0 -59,0 -91,0 -163,0 -296,-2 -296,-5 0,-3 132,-5 296,-5 163,0 296,2 296,5 0,2 -56,3 -140,4zm-155 -113c25,0 48,0 71,0 6,-12 9,-27 9,-44 0,-24 -6,-45 -19,-63 -13,-18 -34,-27 -65,-27 -69,0 -111,40 -127,121l-18 0 6 -143 17 0 19 38c32,-25 69,-38 109,-38 27,0 52,5 75,14 23,9 40,22 51,39 11,17 16,34 16,52 0,20 -6,37 -18,51 100,1 169,2 169,4 0,3 -132,5 -296,5 -163,0 -296,-2 -296,-5 0,-3 132,-5 296,-5z"/>
 </g>
</svg>
