<?xml version="1.0" encoding="UTF-8"?>
<!DOCTYPE svg PUBLIC "-//W3C//DTD SVG 1.1//EN" "http://www.w3.org/Graphics/SVG/1.1/DTD/svg11.dtd">
<!-- Creator: CorelDRAW 2020 (64-Bit) -->
<svg xmlns="http://www.w3.org/2000/svg" xml:space="preserve" width="591px" height="591px" version="1.1" style="shape-rendering:geometricPrecision; text-rendering:geometricPrecision; image-rendering:optimizeQuality; fill-rule:evenodd; clip-rule:evenodd"
viewBox="0 0 591 591"
 xmlns:xlink="http://www.w3.org/1999/xlink"
 xmlns:xodm="http://www.corel.com/coreldraw/odm/2003">
 <defs>
  <style type="text/css">
   <![CDATA[
    .fil0 {fill:#FFF;fill-rule:nonzero}
   ]]>
  </style>
 </defs>
 <g id="Layer_x0020_1">
  <metadata id="CorelCorpID_0Corel-Layer"/>
  <path class="fil0" d="M384 41l22 -40 18 0 10 156c93,1 156,2 156,4 0,3 -132,5 -296,5 -163,0 -296,-2 -296,-5 0,-1 42,-3 107,-4 4,-19 11,-37 19,-53 17,-32 40,-57 69,-75 29,-19 59,-28 89,-28 17,0 33,3 49,9 15,6 33,16 53,32zm32 115c-13,-44 -29,-76 -47,-95 -23,-26 -50,-39 -81,-39 -23,0 -44,7 -63,20 -18,13 -33,33 -42,59 -6,15 -10,34 -12,56 38,0 79,0 123,0 43,0 84,0 121,0zm-121 104c163,0 296,2 296,5 0,2 -61,3 -152,4l0 150 -18 0c-6,-24 -13,-47 -20,-68 -14,22 -30,39 -48,50 -19,11 -40,17 -64,17 -34,0 -65,-9 -94,-26 -29,-17 -52,-42 -68,-73 -8,-16 -14,-32 -19,-50 -66,-1 -107,-2 -107,-4 0,-3 132,-5 296,-5zm89 9c-28,0 -58,0 -89,0 -44,0 -86,0 -123,0 2,20 6,37 12,51 10,26 23,45 41,58 17,12 38,19 61,19 32,0 56,-9 73,-26 17,-18 26,-40 26,-68l0 -32z"/>
 </g>
</svg>
