<?xml version="1.0" encoding="UTF-8"?>
<!DOCTYPE svg PUBLIC "-//W3C//DTD SVG 1.1//EN" "http://www.w3.org/Graphics/SVG/1.1/DTD/svg11.dtd">
<!-- Creator: CorelDRAW 2020 (64-Bit) -->
<svg xmlns="http://www.w3.org/2000/svg" xml:space="preserve" width="591px" height="591px" version="1.1" style="shape-rendering:geometricPrecision; text-rendering:geometricPrecision; image-rendering:optimizeQuality; fill-rule:evenodd; clip-rule:evenodd"
viewBox="0 0 591 591"
 xmlns:xlink="http://www.w3.org/1999/xlink"
 xmlns:xodm="http://www.corel.com/coreldraw/odm/2003">
 <defs>
  <style type="text/css">
   <![CDATA[
    .fil0 {fill:#FFF;fill-rule:nonzero}
   ]]>
  </style>
 </defs>
 <g id="Layer_x0020_1">
  <metadata id="CorelCorpID_0Corel-Layer"/>
  <path class="fil0" d="M129 9l326 0 6 139 -19 0c-8,-48 -20,-79 -35,-93 -17,-17 -42,-25 -73,-25l-64 0c-6,0 -11,1 -14,4 -3,3 -4,7 -4,13l0 109c14,0 29,0 44,0 16,0 32,0 47,0 5,-11 7,-25 8,-42l19 0 0 42c127,1 221,2 221,5 0,3 -132,5 -296,5 -163,0 -296,-2 -296,-5 0,-2 81,-4 194,-4l0 -107c0,-7 -2,-12 -6,-15 -4,-3 -10,-5 -19,-5l-39 0 0 -21zm166 251c163,0 296,2 296,5 0,2 -94,4 -221,5l0 26 -19 0c0,-10 -1,-18 -3,-26 -17,0 -35,0 -53,0 -15,0 -29,0 -44,0l0 95c0,9 2,15 6,19 4,4 12,6 22,6l42 0 0 21 -193 0 0 -21 41 0c8,0 14,-2 18,-5 4,-3 5,-9 5,-16l0 -99c-113,-1 -194,-2 -194,-4 0,-3 132,-5 296,-5z"/>
 </g>
</svg>
