<?xml version="1.0" encoding="UTF-8"?>
<!DOCTYPE svg PUBLIC "-//W3C//DTD SVG 1.1//EN" "http://www.w3.org/Graphics/SVG/1.1/DTD/svg11.dtd">
<!-- Creator: CorelDRAW 2020 (64-Bit) -->
<svg xmlns="http://www.w3.org/2000/svg" xml:space="preserve" width="591px" height="591px" version="1.1" style="shape-rendering:geometricPrecision; text-rendering:geometricPrecision; image-rendering:optimizeQuality; fill-rule:evenodd; clip-rule:evenodd"
viewBox="0 0 591 591"
 xmlns:xlink="http://www.w3.org/1999/xlink"
 xmlns:xodm="http://www.corel.com/coreldraw/odm/2003">
 <defs>
  <style type="text/css">
   <![CDATA[
    .fil0 {fill:#FFF;fill-rule:nonzero}
   ]]>
  </style>
 </defs>
 <g id="Layer_x0020_1">
  <metadata id="CorelCorpID_0Corel-Layer"/>
  <path class="fil0" d="M106 9l207 0c40,0 71,9 93,27 22,18 33,42 33,72 0,18 -4,33 -13,47l-1 1c97,1 164,2 164,4 0,3 -132,5 -296,5 -163,0 -296,-2 -296,-5 0,-2 70,-4 171,-4l0 -106c0,-7 -2,-12 -6,-15 -4,-3 -10,-5 -19,-5l-39 0 0 -21zm262 147c6,-12 9,-26 9,-45 0,-21 -3,-38 -10,-50 -7,-12 -16,-21 -27,-25 -11,-5 -33,-7 -65,-7 -21,0 -35,1 -40,4 -5,3 -8,8 -8,15l0 107c21,0 44,0 66,0 25,0 50,0 74,0zm-74 104c163,0 296,2 296,5 0,2 -82,4 -196,4 4,12 9,29 14,50 5,24 11,40 18,49 5,7 10,10 15,10 6,0 11,-4 16,-12 5,-8 8,-23 9,-44l18 0c-3,62 -26,92 -68,92 -13,0 -25,-3 -34,-10 -10,-7 -17,-17 -22,-30 -4,-10 -8,-35 -13,-77 -1,-11 -3,-20 -5,-28 -15,0 -31,0 -47,0 -23,0 -45,0 -66,0l0 101c0,7 2,11 5,14 4,3 11,5 20,5l38 0 0 21 -186 0 0 -21 39 0c9,0 15,-2 19,-5 4,-3 6,-8 6,-14l0 -101c-101,-1 -171,-2 -171,-4 0,-3 132,-5 296,-5z"/>
 </g>
</svg>
