<?xml version="1.0" encoding="UTF-8"?>
<!DOCTYPE svg PUBLIC "-//W3C//DTD SVG 1.1//EN" "http://www.w3.org/Graphics/SVG/1.1/DTD/svg11.dtd">
<!-- Creator: CorelDRAW 2020 (64-Bit) -->
<svg xmlns="http://www.w3.org/2000/svg" xml:space="preserve" width="591px" height="591px" version="1.1" style="shape-rendering:geometricPrecision; text-rendering:geometricPrecision; image-rendering:optimizeQuality; fill-rule:evenodd; clip-rule:evenodd"
viewBox="0 0 591 591"
 xmlns:xlink="http://www.w3.org/1999/xlink"
 xmlns:xodm="http://www.corel.com/coreldraw/odm/2003">
 <defs>
  <style type="text/css">
   <![CDATA[
    .fil0 {fill:#2B2A29;fill-rule:nonzero}
   ]]>
  </style>
 </defs>
 <g id="Layer_x0020_1">
  <metadata id="CorelCorpID_0Corel-Layer"/>
  <path class="fil0" d="M137 9l310 0 5 138 -19 0c-9,-51 -22,-84 -40,-97 -18,-14 -41,-20 -69,-20l-57 0c-12,0 -18,6 -18,18l0 109c15,0 29,0 44,0 163,0 296,2 296,5 0,3 -132,5 -296,5 -163,0 -296,-2 -296,-5 0,-2 80,-4 193,-4l0 -107c0,-13 -8,-20 -25,-20l-31 0 0 -21zm158 251c163,0 296,2 296,5 0,3 -132,5 -296,5 -15,0 -30,0 -44,0l0 95c0,10 2,16 7,19 5,3 12,5 22,5l42 0 0 21 -184 0 0 -21 33 0c15,0 23,-7 23,-21l0 -99c-113,-1 -193,-2 -193,-4 0,-3 132,-5 296,-5z"/>
 </g>
</svg>
