<?xml version="1.0" encoding="UTF-8"?>
<!DOCTYPE svg PUBLIC "-//W3C//DTD SVG 1.1//EN" "http://www.w3.org/Graphics/SVG/1.1/DTD/svg11.dtd">
<!-- Creator: CorelDRAW 2020 (64-Bit) -->
<svg xmlns="http://www.w3.org/2000/svg" xml:space="preserve" width="591px" height="591px" version="1.1" style="shape-rendering:geometricPrecision; text-rendering:geometricPrecision; image-rendering:optimizeQuality; fill-rule:evenodd; clip-rule:evenodd"
viewBox="0 0 591 591"
 xmlns:xlink="http://www.w3.org/1999/xlink"
 xmlns:xodm="http://www.corel.com/coreldraw/odm/2003">
 <defs>
  <style type="text/css">
   <![CDATA[
    .fil0 {fill:#2B2A29;fill-rule:nonzero}
   ]]>
  </style>
 </defs>
 <g id="Layer_x0020_1">
  <metadata id="CorelCorpID_0Corel-Layer"/>
  <path class="fil0" d="M95 9l176 0 0 21 -19 0c-16,0 -27,1 -31,4 -5,3 -7,6 -7,11 0,5 1,9 4,13l64 99 15 0c19,0 37,0 55,0l42 -76c3,-6 5,-13 5,-20 0,-9 -3,-17 -9,-22 -6,-6 -15,-8 -26,-8l-19 0 0 -21 153 0 0 21c-18,0 -31,3 -42,9 -10,6 -20,18 -29,35l-45 83c122,1 212,2 212,4 0,3 -132,5 -296,5 -163,0 -296,-2 -296,-5 0,-2 92,-4 217,-5l-67 -104c-5,-8 -12,-14 -19,-18 -7,-3 -19,-5 -36,-6l0 -21zm200 251c163,0 296,2 296,5 0,2 -113,4 -259,5l0 100c0,7 2,11 6,14 5,4 13,6 23,6l34 0 0 21 -183 0 0 -21 36 0c10,0 17,-2 21,-5 4,-4 6,-8 6,-15l0 -100c-154,0 -275,-2 -275,-5 0,-3 132,-5 296,-5z"/>
 </g>
</svg>
