<?xml version="1.0" encoding="UTF-8"?>
<!DOCTYPE svg PUBLIC "-//W3C//DTD SVG 1.1//EN" "http://www.w3.org/Graphics/SVG/1.1/DTD/svg11.dtd">
<!-- Creator: CorelDRAW 2020 (64-Bit) -->
<svg xmlns="http://www.w3.org/2000/svg" xml:space="preserve" width="591px" height="591px" version="1.1" style="shape-rendering:geometricPrecision; text-rendering:geometricPrecision; image-rendering:optimizeQuality; fill-rule:evenodd; clip-rule:evenodd"
viewBox="0 0 591 591"
 xmlns:xlink="http://www.w3.org/1999/xlink"
 xmlns:xodm="http://www.corel.com/coreldraw/odm/2003">
 <defs>
  <style type="text/css">
   <![CDATA[
    .fil0 {fill:#2B2A29;fill-rule:nonzero}
   ]]>
  </style>
 </defs>
 <g id="Layer_x0020_1">
  <metadata id="CorelCorpID_0Corel-Layer"/>
  <path class="fil0" d="M15 410l0 -21 27 0c12,0 20,-2 24,-6 4,-4 5,-12 5,-25l0 -91c-44,-1 -71,-2 -71,-3 0,-3 132,-5 296,-5 163,0 296,2 296,5 0,1 -27,2 -72,3l0 91c0,13 2,21 6,25 4,4 12,5 24,5l27 0 0 21 -560 0zm113 -141l0 116 137 0 0 -115c-51,0 -97,0 -137,-1zm195 1l0 115 137 0 0 -116c-40,0 -87,1 -137,1zm0 -114c51,0 97,0 137,1l0 -100c0,-12 -2,-19 -6,-23 -4,-3 -13,-5 -27,-5l-24 0 0 -21 170 0 0 21 -23 0c-15,0 -24,2 -28,6 -4,4 -5,11 -5,22l0 101c45,1 72,2 72,3 0,3 -132,5 -296,5 -163,0 -296,-2 -296,-5 0,-1 27,-2 71,-3l0 -101c0,-11 -2,-19 -5,-22 -4,-4 -13,-6 -28,-6l-23 0 0 -21 169 0 0 21 -24 0c-14,0 -23,2 -27,5 -4,4 -5,11 -5,23l0 100c40,0 87,-1 137,-1l0 -100c0,-11 -2,-19 -5,-22 -4,-4 -13,-6 -27,-6l-18 0 0 -21 159 0 0 21 -19 0c-14,0 -23,2 -26,5 -4,4 -5,11 -5,23l0 100z"/>
 </g>
</svg>
