<?xml version="1.0" encoding="UTF-8"?>
<!DOCTYPE svg PUBLIC "-//W3C//DTD SVG 1.1//EN" "http://www.w3.org/Graphics/SVG/1.1/DTD/svg11.dtd">
<!-- Creator: CorelDRAW 2020 (64-Bit) -->
<svg xmlns="http://www.w3.org/2000/svg" xml:space="preserve" width="591px" height="591px" version="1.1" style="shape-rendering:geometricPrecision; text-rendering:geometricPrecision; image-rendering:optimizeQuality; fill-rule:evenodd; clip-rule:evenodd"
viewBox="0 0 591 591"
 xmlns:xlink="http://www.w3.org/1999/xlink"
 xmlns:xodm="http://www.corel.com/coreldraw/odm/2003">
 <defs>
  <style type="text/css">
   <![CDATA[
    .fil0 {fill:#2B2A29;fill-rule:nonzero}
   ]]>
  </style>
 </defs>
 <g id="Layer_x0020_1">
  <metadata id="CorelCorpID_0Corel-Layer"/>
  <path class="fil0" d="M159 9l345 0 0 21 -24 0c-14,0 -23,2 -27,5 -4,4 -6,11 -6,22l0 99c86,1 143,2 143,4 0,3 -132,5 -296,5 -163,0 -296,-2 -296,-5 0,-2 96,-4 226,-5 0,-7 0,-14 0,-21 0,-47 -3,-77 -8,-88 -5,-12 -17,-18 -36,-18l-23 0 0 -21zm231 147l0 -125 -79 0c-21,0 -35,4 -42,12 -7,8 -11,22 -13,42l-6 71c14,0 29,0 44,0 33,0 65,0 95,0zm-95 104c163,0 296,2 296,5 0,2 -57,3 -143,4l0 92c0,12 2,20 6,24 4,4 11,5 23,5l28 0 0 21 -178 0 0 -21 35 0c12,0 20,-2 23,-5 4,-3 6,-11 6,-24l0 -91c-30,0 -62,0 -95,0 -20,0 -39,0 -57,0 -8,49 -17,83 -29,101 -19,30 -43,45 -71,45 -15,0 -27,-5 -37,-14 -10,-9 -15,-22 -15,-39 0,-13 4,-23 10,-31 7,-7 16,-11 28,-11 17,0 28,9 33,26 2,7 4,12 6,14 2,2 5,3 9,3 17,0 30,-25 39,-75 1,-6 2,-13 3,-19 -124,-1 -216,-2 -216,-5 0,-3 132,-5 296,-5z"/>
 </g>
</svg>
