<?xml version="1.0" encoding="UTF-8"?>
<!DOCTYPE svg PUBLIC "-//W3C//DTD SVG 1.1//EN" "http://www.w3.org/Graphics/SVG/1.1/DTD/svg11.dtd">
<!-- Creator: CorelDRAW 2020 (64-Bit) -->
<svg xmlns="http://www.w3.org/2000/svg" xml:space="preserve" width="591px" height="591px" version="1.1" style="shape-rendering:geometricPrecision; text-rendering:geometricPrecision; image-rendering:optimizeQuality; fill-rule:evenodd; clip-rule:evenodd"
viewBox="0 0 591 591"
 xmlns:xlink="http://www.w3.org/1999/xlink"
 xmlns:xodm="http://www.corel.com/coreldraw/odm/2003">
 <defs>
  <style type="text/css">
   <![CDATA[
    .fil0 {fill:#2B2A29;fill-rule:nonzero}
   ]]>
  </style>
 </defs>
 <g id="Layer_x0020_1">
  <metadata id="CorelCorpID_0Corel-Layer"/>
  <path class="fil0" d="M45 9l134 0 55 147c20,0 40,0 61,0 21,0 42,0 62,0l51 -147 137 0 0 21 -33 0c-12,0 -20,2 -24,5 -4,3 -6,9 -6,18l0 104c66,1 109,2 109,4 0,3 -132,5 -296,5 -163,0 -296,-2 -296,-5 0,-1 42,-3 109,-4l0 -108c0,-7 -2,-12 -6,-15 -4,-3 -12,-5 -23,-5l-34 0 0 -21zm133 147l-47 -125 0 126c15,0 31,0 47,0zm117 104c163,0 296,2 296,5 0,1 -42,3 -109,4l0 101c0,6 2,11 7,15 5,3 13,5 25,5l31 0 0 21 -185 0 0 -21 34 0c10,0 17,-2 22,-6 5,-4 7,-8 7,-14l0 -101c-26,0 -54,0 -83,0l-49 141 -19 0 -53 -141c-32,0 -63,0 -90,-1l0 53c0,17 2,30 6,39 4,9 11,15 19,20 8,5 21,7 40,9l0 21 -151 0 0 -21c25,-2 41,-7 50,-16 9,-9 13,-25 13,-48l0 -57c-66,-1 -109,-2 -109,-4 0,-3 132,-5 296,-5zm22 9c-7,0 -15,0 -22,0l-18 0 21 56 19 -56zm63 -114c15,0 30,0 44,0l0 -127 -44 127z"/>
 </g>
</svg>
