<?xml version="1.0" encoding="UTF-8"?>
<!DOCTYPE svg PUBLIC "-//W3C//DTD SVG 1.1//EN" "http://www.w3.org/Graphics/SVG/1.1/DTD/svg11.dtd">
<!-- Creator: CorelDRAW 2020 (64-Bit) -->
<svg xmlns="http://www.w3.org/2000/svg" xml:space="preserve" width="591px" height="591px" version="1.1" style="shape-rendering:geometricPrecision; text-rendering:geometricPrecision; image-rendering:optimizeQuality; fill-rule:evenodd; clip-rule:evenodd"
viewBox="0 0 591 591"
 xmlns:xlink="http://www.w3.org/1999/xlink"
 xmlns:xodm="http://www.corel.com/coreldraw/odm/2003">
 <defs>
  <style type="text/css">
   <![CDATA[
    .fil0 {fill:#2B2A29;fill-rule:nonzero}
   ]]>
  </style>
 </defs>
 <g id="Layer_x0020_1">
  <metadata id="CorelCorpID_0Corel-Layer"/>
  <path class="fil0" d="M410 40l18 -39 17 0 7 155c83,1 138,2 138,4 0,3 -132,5 -296,5 -163,0 -296,-2 -296,-5 0,-2 54,-3 135,-4 4,-17 10,-34 19,-51 17,-35 39,-61 66,-79 27,-18 56,-27 87,-27 17,0 34,3 50,9 16,6 34,16 53,31zm23 116c-12,-42 -26,-74 -43,-94 -22,-27 -49,-41 -80,-41 -34,0 -61,15 -82,45 -14,20 -24,50 -28,89 30,0 63,0 96,0 50,0 97,0 138,1zm-138 104c163,0 296,2 296,5 0,3 -132,5 -296,5 -34,0 -66,0 -97,0 5,36 16,66 33,88 21,27 50,40 87,40 33,0 60,-10 82,-31 22,-21 37,-53 43,-95l19 0c-6,48 -22,85 -49,110 -27,26 -61,39 -103,39 -34,0 -64,-8 -92,-25 -28,-17 -50,-41 -67,-73 -9,-17 -16,-35 -20,-53 -80,-1 -133,-2 -133,-4 0,-3 132,-5 296,-5z"/>
 </g>
</svg>
