<?xml version="1.0" encoding="UTF-8"?>
<!DOCTYPE svg PUBLIC "-//W3C//DTD SVG 1.1//EN" "http://www.w3.org/Graphics/SVG/1.1/DTD/svg11.dtd">
<!-- Creator: CorelDRAW 2020 (64-Bit) -->
<svg xmlns="http://www.w3.org/2000/svg" xml:space="preserve" width="591px" height="591px" version="1.1" style="shape-rendering:geometricPrecision; text-rendering:geometricPrecision; image-rendering:optimizeQuality; fill-rule:evenodd; clip-rule:evenodd"
viewBox="0 0 591 591"
 xmlns:xlink="http://www.w3.org/1999/xlink"
 xmlns:xodm="http://www.corel.com/coreldraw/odm/2003">
 <defs>
  <style type="text/css">
   <![CDATA[
    .fil0 {fill:#2B2A29;fill-rule:nonzero}
   ]]>
  </style>
 </defs>
 <g id="Layer_x0020_1">
  <metadata id="CorelCorpID_0Corel-Layer"/>
  <path class="fil0" d="M126 9l318 0 8 136 -18 0c-7,-43 -19,-73 -34,-90 -16,-17 -36,-25 -61,-25l-79 0c-6,0 -11,2 -14,5 -3,3 -5,9 -5,16l0 106c18,0 36,0 54,0 12,0 24,0 35,0 5,-12 8,-26 8,-44l19 0 0 44c133,0 233,2 233,5 0,3 -132,5 -296,5 -163,0 -296,-2 -296,-5 0,-2 76,-4 183,-4l0 -106c0,-7 -2,-12 -6,-16 -4,-3 -10,-5 -18,-5l-33 0 0 -21zm169 251c163,0 296,2 296,5 0,2 -50,3 -127,4l-6 141 -331 0 0 -21 28 0c11,0 18,-2 23,-6 4,-4 7,-9 7,-16l0 -99c-108,-1 -183,-2 -183,-4 0,-3 132,-5 296,-5zm148 9c-26,0 -55,0 -86,1l0 29 -19 0c0,-11 -1,-20 -3,-29 -13,0 -27,0 -40,0 -19,0 -37,0 -54,0l0 102c0,6 2,10 6,13 4,3 10,5 19,5l62 0c65,0 104,-40 116,-121z"/>
 </g>
</svg>
