<?xml version="1.0" encoding="UTF-8"?>
<!DOCTYPE svg PUBLIC "-//W3C//DTD SVG 1.1//EN" "http://www.w3.org/Graphics/SVG/1.1/DTD/svg11.dtd">
<!-- Creator: CorelDRAW 2020 (64-Bit) -->
<svg xmlns="http://www.w3.org/2000/svg" xml:space="preserve" width="591px" height="591px" version="1.1" style="shape-rendering:geometricPrecision; text-rendering:geometricPrecision; image-rendering:optimizeQuality; fill-rule:evenodd; clip-rule:evenodd"
viewBox="0 0 591 591"
 xmlns:xlink="http://www.w3.org/1999/xlink"
 xmlns:xodm="http://www.corel.com/coreldraw/odm/2003">
 <defs>
  <style type="text/css">
   <![CDATA[
    .fil0 {fill:#2B2A29;fill-rule:nonzero}
   ]]>
  </style>
 </defs>
 <g id="Layer_x0020_1">
  <metadata id="CorelCorpID_0Corel-Layer"/>
  <path class="fil0" d="M203 30l0 -21 185 0 0 21 -32 0c-14,0 -22,2 -26,6 -4,4 -6,11 -6,22l24 0c50,0 90,14 120,43 18,17 30,36 38,57 52,1 85,2 85,3 0,3 -132,5 -296,5 -163,0 -296,-2 -296,-5 0,-1 32,-2 84,-3 7,-22 20,-41 38,-58 31,-28 74,-42 128,-42l15 0 0 -8c0,-7 -2,-12 -7,-15 -4,-3 -13,-5 -26,-5l-31 0zm244 127c-12,-52 -45,-79 -100,-79l-24 0 0 78c45,0 87,0 123,1zm-181 -1l0 -78 -23 0c-54,0 -88,26 -100,79 37,0 78,-1 123,-1zm29 104c163,0 296,2 296,5 0,1 -34,3 -89,3 -7,16 -17,31 -31,45 -29,29 -74,44 -134,44l-13 0 0 6c0,11 2,18 6,21 4,3 11,5 22,5l35 0 0 21 -185 0 0 -21 35 0c11,0 18,-2 22,-5 4,-3 6,-10 6,-21l0 -6 -11 0c-39,0 -70,-6 -95,-17 -25,-11 -45,-28 -60,-51 -5,-7 -8,-14 -12,-21 -55,-1 -89,-2 -89,-3 0,-3 132,-5 296,-5zm149 9c-36,0 -76,1 -120,1l0 67 28 0c48,0 78,-23 92,-68zm-178 1c-43,0 -84,0 -119,-1 5,14 11,26 20,36 19,21 44,32 77,32l23 0 0 -67z"/>
 </g>
</svg>
