<?xml version="1.0" encoding="UTF-8"?>
<!DOCTYPE svg PUBLIC "-//W3C//DTD SVG 1.1//EN" "http://www.w3.org/Graphics/SVG/1.1/DTD/svg11.dtd">
<!-- Creator: CorelDRAW 2020 (64-Bit) -->
<svg xmlns="http://www.w3.org/2000/svg" xml:space="preserve" width="591px" height="591px" version="1.1" style="shape-rendering:geometricPrecision; text-rendering:geometricPrecision; image-rendering:optimizeQuality; fill-rule:evenodd; clip-rule:evenodd"
viewBox="0 0 591 591"
 xmlns:xlink="http://www.w3.org/1999/xlink"
 xmlns:xodm="http://www.corel.com/coreldraw/odm/2003">
 <defs>
  <style type="text/css">
   <![CDATA[
    .fil0 {fill:#2B2A29;fill-rule:nonzero}
   ]]>
  </style>
 </defs>
 <g id="Layer_x0020_1">
  <metadata id="CorelCorpID_0Corel-Layer"/>
  <path class="fil0" d="M282 347l-36 -77c-140,0 -246,-2 -246,-5 0,-3 132,-5 296,-5 163,0 296,2 296,5 0,2 -107,4 -248,5l-34 74c-12,26 -25,45 -38,56 -14,11 -31,16 -54,16 -23,0 -42,-6 -57,-18 -15,-12 -23,-28 -23,-46 0,-12 3,-21 10,-28 6,-7 15,-10 25,-10 10,0 18,3 24,9 6,6 9,13 9,22 0,4 -1,11 -3,20 -1,3 -1,6 -1,8 0,5 3,10 8,15 5,4 12,6 20,6 20,0 38,-15 54,-46zm25 -77l7 16 7 -16 -14 0zm-12 -114c26,0 51,0 75,0l20 -47c8,-18 12,-32 12,-42 0,-13 -5,-22 -15,-28 -10,-6 -20,-10 -30,-10l-20 0 0 -21 154 0 0 21c-28,3 -49,21 -63,53l-34 74c114,1 196,2 196,4 0,3 -132,5 -296,5 -163,0 -296,-2 -296,-5 0,-2 80,-4 193,-4l-44 -94c-10,-22 -24,-33 -42,-33l-8 0 0 -21 167 0 0 21 -20 0c-15,0 -24,1 -29,4 -4,3 -6,7 -6,14 0,4 3,13 9,26l37 83c13,0 26,0 39,0z"/>
 </g>
</svg>
