<?xml version="1.0" encoding="UTF-8"?>
<!DOCTYPE svg PUBLIC "-//W3C//DTD SVG 1.1//EN" "http://www.w3.org/Graphics/SVG/1.1/DTD/svg11.dtd">
<!-- Creator: CorelDRAW 2020 (64-Bit) -->
<svg xmlns="http://www.w3.org/2000/svg" xml:space="preserve" width="591px" height="591px" version="1.1" style="shape-rendering:geometricPrecision; text-rendering:geometricPrecision; image-rendering:optimizeQuality; fill-rule:evenodd; clip-rule:evenodd"
viewBox="0 0 591 591"
 xmlns:xlink="http://www.w3.org/1999/xlink"
 xmlns:xodm="http://www.corel.com/coreldraw/odm/2003">
 <defs>
  <style type="text/css">
   <![CDATA[
    .fil0 {fill:#2B2A29;fill-rule:nonzero}
   ]]>
  </style>
 </defs>
 <g id="Layer_x0020_1">
  <metadata id="CorelCorpID_0Corel-Layer"/>
  <path class="fil0" d="M137 269l0 92c0,12 2,20 6,24 4,4 11,5 23,5l27 0 0 21 -169 0 0 -21 27 0c12,0 20,-2 24,-5 4,-4 5,-11 5,-24l0 -92c-50,-1 -80,-2 -80,-3 0,-3 132,-5 296,-5 163,0 296,2 296,5 0,1 -11,1 -31,2 -8,34 -24,64 -47,90 -36,40 -79,60 -129,60 -47,0 -88,-19 -123,-56 -24,-26 -41,-56 -50,-92 -26,0 -50,0 -73,-1zm357 -1c-53,1 -123,1 -199,1 -7,0 -13,0 -20,0 5,38 15,66 30,85 23,28 49,42 78,42 31,0 58,-14 80,-43 15,-20 25,-48 30,-85zm-199 -113c77,0 147,0 200,1 -4,-40 -14,-70 -29,-91 -21,-30 -48,-45 -80,-45 -31,0 -58,14 -80,42 -16,20 -26,51 -31,92 7,0 14,0 20,0zm266 3c19,1 29,1 29,2 0,3 -132,5 -296,5 -163,0 -296,-2 -296,-5 0,-1 30,-2 80,-3l0 -100c0,-11 -2,-18 -5,-22 -4,-4 -13,-6 -28,-6l-23 0 0 -21 169 0 0 21 -24 0c-14,0 -23,2 -26,5 -4,4 -5,11 -5,22l0 100c22,0 46,0 72,-1 9,-43 28,-78 56,-104 36,-34 75,-51 118,-51 48,0 91,19 128,58 26,27 43,61 51,100z"/>
 </g>
</svg>
