<?xml version="1.0" encoding="UTF-8"?>
<!DOCTYPE svg PUBLIC "-//W3C//DTD SVG 1.1//EN" "http://www.w3.org/Graphics/SVG/1.1/DTD/svg11.dtd">
<!-- Creator: CorelDRAW 2020 (64-Bit) -->
<svg xmlns="http://www.w3.org/2000/svg" xml:space="preserve" width="591px" height="591px" version="1.1" style="shape-rendering:geometricPrecision; text-rendering:geometricPrecision; image-rendering:optimizeQuality; fill-rule:evenodd; clip-rule:evenodd"
viewBox="0 0 591 591"
 xmlns:xlink="http://www.w3.org/1999/xlink"
 xmlns:xodm="http://www.corel.com/coreldraw/odm/2003">
 <defs>
  <style type="text/css">
   <![CDATA[
    .fil0 {fill:#2B2A29;fill-rule:nonzero}
   ]]>
  </style>
 </defs>
 <g id="Layer_x0020_1">
  <metadata id="CorelCorpID_0Corel-Layer"/>
  <path class="fil0" d="M403 270c5,13 10,30 14,51 9,39 19,58 33,58 14,0 22,-19 24,-56l18 0c-3,62 -26,93 -69,93 -14,0 -26,-4 -37,-12 -10,-8 -17,-18 -20,-30 -4,-12 -7,-31 -10,-57 -2,-19 -5,-35 -8,-47 -18,0 -36,0 -55,0 -26,0 -51,0 -74,0l0 98c0,8 2,13 5,17 3,3 10,5 20,5l33 0 0 21 -172 0 0 -21 31 0c17,0 25,-6 25,-19l0 -101c-97,-1 -163,-2 -163,-4 0,-3 132,-5 296,-5 163,0 296,2 296,5 0,2 -77,4 -187,4zm-109 -113c14,0 28,0 42,0 0,-1 0,-2 1,-3 3,-14 5,-31 8,-53 3,-24 7,-43 12,-56 4,-13 12,-24 23,-32 11,-8 24,-12 40,-12 17,0 32,5 44,14 12,9 18,22 18,37 0,11 -3,21 -10,29 -7,8 -15,12 -26,12 -9,0 -16,-3 -23,-9 -6,-6 -10,-13 -10,-21 0,-5 2,-10 5,-15 2,-3 3,-6 3,-8 0,-4 -2,-7 -5,-10 -3,-3 -7,-4 -11,-4 -8,0 -15,5 -21,14 -7,10 -13,36 -19,79 -2,16 -5,29 -7,39 133,0 232,2 232,5 0,3 -132,5 -296,5 -163,0 -296,-2 -296,-5 0,-2 66,-3 163,-4l0 -107c0,-13 -8,-20 -25,-20l-31 0 0 -21 172 0 0 21 -37 0c-5,0 -9,2 -14,5 -5,3 -7,8 -7,15l0 107c24,0 49,0 74,0z"/>
 </g>
</svg>
