<?xml version="1.0" encoding="UTF-8"?>
<!DOCTYPE svg PUBLIC "-//W3C//DTD SVG 1.1//EN" "http://www.w3.org/Graphics/SVG/1.1/DTD/svg11.dtd">
<!-- Creator: CorelDRAW 2020 (64-Bit) -->
<svg xmlns="http://www.w3.org/2000/svg" xml:space="preserve" width="591px" height="591px" version="1.1" style="shape-rendering:geometricPrecision; text-rendering:geometricPrecision; image-rendering:optimizeQuality; fill-rule:evenodd; clip-rule:evenodd"
viewBox="0 0 591 591"
 xmlns:xlink="http://www.w3.org/1999/xlink"
 xmlns:xodm="http://www.corel.com/coreldraw/odm/2003">
 <defs>
  <style type="text/css">
   <![CDATA[
    .fil0 {fill:#2B2A29;fill-rule:nonzero}
   ]]>
  </style>
 </defs>
 <g id="Layer_x0020_1">
  <metadata id="CorelCorpID_0Corel-Layer"/>
  <path class="fil0" d="M127 9l198 0c45,0 79,10 102,30 24,20 35,47 35,80 0,14 -2,27 -6,38 80,1 134,2 134,4 0,3 -132,5 -296,5 -163,0 -296,-2 -296,-5 0,-2 79,-4 191,-4l0 -104c0,-8 -2,-14 -7,-18 -5,-4 -14,-5 -27,-5l-30 0 0 -21zm269 147c3,-11 5,-25 5,-40 0,-23 -3,-41 -10,-53 -7,-12 -17,-21 -30,-27 -13,-6 -35,-9 -66,-9 -20,0 -33,2 -38,6 -5,4 -8,10 -8,20l0 104c15,0 31,0 47,0 35,0 69,0 101,0zm-101 104c163,0 296,2 296,5 0,3 -132,5 -296,5 -16,0 -31,0 -47,0l0 96c0,8 2,14 6,17 5,4 12,6 20,6l46 0 0 21 -193 0 0 -21 40 0c8,0 14,-2 18,-5 4,-3 6,-8 6,-13l0 -103c-112,-1 -191,-2 -191,-4 0,-3 132,-5 296,-5z"/>
 </g>
</svg>
