<?xml version="1.0" encoding="UTF-8"?>
<!DOCTYPE svg PUBLIC "-//W3C//DTD SVG 1.1//EN" "http://www.w3.org/Graphics/SVG/1.1/DTD/svg11.dtd">
<!-- Creator: CorelDRAW 2020 (64-Bit) -->
<svg xmlns="http://www.w3.org/2000/svg" xml:space="preserve" width="591px" height="591px" version="1.1" style="shape-rendering:geometricPrecision; text-rendering:geometricPrecision; image-rendering:optimizeQuality; fill-rule:evenodd; clip-rule:evenodd"
viewBox="0 0 591 591"
 xmlns:xlink="http://www.w3.org/1999/xlink"
 xmlns:xodm="http://www.corel.com/coreldraw/odm/2003">
 <defs>
  <style type="text/css">
   <![CDATA[
    .fil0 {fill:#2B2A29;fill-rule:nonzero}
   ]]>
  </style>
 </defs>
 <g id="Layer_x0020_1">
  <metadata id="CorelCorpID_0Corel-Layer"/>
  <path class="fil0" d="M88 16c46,10 83,16 112,16 14,0 26,-1 38,-4 12,-3 21,-6 27,-9 3,-2 5,-2 6,-2 2,0 3,1 3,4 0,6 -4,15 -12,25 -8,10 -19,19 -33,25 -14,6 -30,9 -48,9 -21,0 -47,-3 -76,-10l-7 88c13,0 26,0 41,0 11,-3 22,-4 33,-4 12,0 23,1 34,4 28,0 59,0 90,0l9 0c-5,-12 -8,-25 -8,-39 0,-28 11,-51 32,-71 21,-20 49,-30 82,-30 23,0 42,4 59,12 17,8 29,18 38,32 9,13 13,27 13,42 0,21 -8,40 -25,56 59,1 95,2 95,3 0,3 -132,5 -296,5 -163,0 -296,-2 -296,-5 0,-1 31,-2 81,-3l4 -51c3,-31 4,-62 4,-91zm206 245c163,0 296,2 296,5 0,1 -20,2 -55,3 1,6 2,13 2,20 0,29 -9,54 -28,76 -24,28 -58,42 -103,42 -39,0 -70,-9 -93,-28 -15,-12 -25,-27 -30,-43l0 0c-6,13 -15,24 -25,34 -26,25 -59,37 -100,37 -31,0 -57,-9 -76,-27 -20,-18 -29,-39 -29,-63 0,-15 3,-26 9,-34 6,-8 14,-12 24,-12 10,0 17,3 23,10 6,6 9,15 9,25 0,8 -1,14 -4,18 -3,4 -8,8 -16,11 -8,3 -12,7 -12,11 0,6 3,12 8,19 5,7 14,13 24,17 11,4 23,7 38,7 28,0 49,-9 63,-26 15,-17 22,-45 22,-84 0,-3 0,-5 0,-7 -137,0 -241,-2 -241,-5 0,-3 132,-5 296,-5zm194 8c-45,1 -101,1 -163,1 -4,10 -7,22 -7,36 0,26 8,45 23,60 15,14 37,21 65,21 30,0 53,-7 70,-21 17,-14 25,-33 25,-56 0,-17 -4,-30 -13,-40zm-112 -112c32,0 61,0 88,1 3,-3 6,-7 8,-10 6,-11 10,-24 10,-41 0,-23 -6,-40 -19,-52 -13,-12 -31,-18 -56,-18 -24,0 -42,6 -55,17 -13,11 -20,26 -20,45 0,18 6,33 17,43 5,5 14,11 27,16z"/>
 </g>
</svg>
