<?xml version="1.0" encoding="UTF-8"?>
<!DOCTYPE svg PUBLIC "-//W3C//DTD SVG 1.1//EN" "http://www.w3.org/Graphics/SVG/1.1/DTD/svg11.dtd">
<!-- Creator: CorelDRAW 2020 (64-Bit) -->
<svg xmlns="http://www.w3.org/2000/svg" xml:space="preserve" width="591px" height="591px" version="1.1" style="shape-rendering:geometricPrecision; text-rendering:geometricPrecision; image-rendering:optimizeQuality; fill-rule:evenodd; clip-rule:evenodd"
viewBox="0 0 591 591"
 xmlns:xlink="http://www.w3.org/1999/xlink"
 xmlns:xodm="http://www.corel.com/coreldraw/odm/2003">
 <defs>
  <style type="text/css">
   <![CDATA[
    .fil0 {fill:#2B2A29;fill-rule:nonzero}
   ]]>
  </style>
 </defs>
 <g id="Layer_x0020_1">
  <metadata id="CorelCorpID_0Corel-Layer"/>
  <path class="fil0" d="M86 16c18,4 37,7 58,7l169 0 0 13c-25,44 -43,80 -56,110 -1,4 -3,7 -4,11 14,0 28,0 42,0 37,0 73,0 106,0l0 -58c0,-5 -2,-10 -6,-13 -4,-4 -9,-5 -16,-5l-60 0 0 -19c28,-4 51,-8 69,-15 18,-6 33,-14 46,-24l13 0 0 134c87,1 145,2 145,4 0,3 -132,5 -296,5 -163,0 -296,-2 -296,-5 0,-2 98,-4 229,-5 4,-8 8,-16 11,-22l38 -69 -147 0c-11,0 -19,4 -24,11 -5,8 -12,30 -19,68l-19 0 19 -129zm209 245c163,0 296,2 296,5 0,2 -58,3 -145,4l0 91c0,5 2,9 5,12 5,4 12,6 19,6l53 0 0 21 -195 0 0 -21 45 0c9,0 16,-2 21,-7 5,-4 7,-10 7,-18l0 -84c-33,0 -68,0 -106,0 -25,0 -49,0 -72,0 -3,18 -4,37 -5,58 -2,30 -4,49 -5,56 -2,7 -5,13 -10,16 -5,4 -11,6 -19,6 -9,0 -16,-3 -21,-9 -5,-6 -8,-16 -8,-29 0,-12 2,-26 6,-44 3,-13 9,-31 18,-54 -105,-1 -179,-2 -179,-4 0,-3 132,-5 296,-5z"/>
 </g>
</svg>
