<?xml version="1.0" encoding="UTF-8"?>
<!DOCTYPE svg PUBLIC "-//W3C//DTD SVG 1.1//EN" "http://www.w3.org/Graphics/SVG/1.1/DTD/svg11.dtd">
<!-- Creator: CorelDRAW 2020 (64-Bit) -->
<svg xmlns="http://www.w3.org/2000/svg" xml:space="preserve" width="591px" height="591px" version="1.1" style="shape-rendering:geometricPrecision; text-rendering:geometricPrecision; image-rendering:optimizeQuality; fill-rule:evenodd; clip-rule:evenodd"
viewBox="0 0 591 591"
 xmlns:xlink="http://www.w3.org/1999/xlink"
 xmlns:xodm="http://www.corel.com/coreldraw/odm/2003">
 <defs>
  <style type="text/css">
   <![CDATA[
    .fil0 {fill:#2B2A29;fill-rule:nonzero}
   ]]>
  </style>
 </defs>
 <g id="Layer_x0020_1">
  <metadata id="CorelCorpID_0Corel-Layer"/>
  <path class="fil0" d="M312 270c0,2 0,4 0,6 0,37 -12,68 -36,93 -24,25 -54,37 -89,37 -25,0 -47,-7 -67,-20 -20,-13 -35,-34 -48,-62 -7,-17 -13,-35 -16,-56 -36,-1 -57,-2 -57,-3 0,-3 132,-5 296,-5 163,0 296,2 296,5 0,1 -20,2 -54,3 0,2 0,4 0,6 0,38 -13,70 -39,94 -26,25 -59,37 -100,37 -31,0 -57,-9 -76,-27 -20,-18 -29,-39 -29,-63 0,-15 3,-26 9,-34 5,-7 12,-11 20,-12l-10 0zm-197 -1c-1,6 -1,12 -1,19 0,32 7,57 21,74 14,17 32,25 53,25 21,0 39,-8 52,-24 13,-16 20,-40 20,-72 0,-7 0,-14 -1,-21 -53,0 -102,0 -143,-1zm366 0c-42,1 -94,1 -151,1 8,1 14,4 19,9 6,6 9,15 9,25 0,8 -1,14 -4,18 -3,4 -8,8 -16,11 -8,3 -12,7 -12,11 0,6 3,12 8,19 5,7 14,13 24,17 11,4 23,7 38,7 28,0 49,-9 63,-26 15,-17 22,-45 22,-84 0,-3 0,-6 0,-8zm-186 -113c9,0 17,0 26,0l4 -49c3,-31 4,-62 4,-91 46,10 83,16 112,16 14,0 26,-1 38,-4 12,-3 21,-6 27,-9 3,-2 5,-2 6,-2 2,0 3,1 3,4 0,6 -4,15 -12,25 -8,10 -19,19 -33,25 -14,6 -30,9 -48,9 -21,0 -47,-3 -76,-10l-7 87c15,0 29,0 43,0 11,-3 21,-4 31,-4 13,0 24,1 35,4 86,1 144,2 144,4 0,3 -132,5 -296,5 -163,0 -296,-2 -296,-5 0,-1 23,-2 62,-3 4,-15 9,-29 15,-43 15,-33 35,-58 58,-74 24,-16 48,-25 74,-25 26,0 49,7 67,22 15,12 23,26 23,42 0,11 -3,20 -10,27 -7,7 -15,11 -25,11 -9,0 -17,-3 -23,-9 -6,-6 -10,-13 -10,-21 0,-5 2,-11 6,-18 4,-6 6,-11 6,-15 0,-5 -2,-9 -7,-12 -7,-4 -15,-6 -27,-6 -18,0 -34,5 -48,16 -14,11 -27,30 -37,57 -6,15 -10,31 -12,49 50,-1 114,-1 183,-1z"/>
 </g>
</svg>
