<?xml version="1.0" encoding="UTF-8"?>
<!DOCTYPE svg PUBLIC "-//W3C//DTD SVG 1.1//EN" "http://www.w3.org/Graphics/SVG/1.1/DTD/svg11.dtd">
<!-- Creator: CorelDRAW 2020 (64-Bit) -->
<svg xmlns="http://www.w3.org/2000/svg" xml:space="preserve" width="591px" height="591px" version="1.1" style="shape-rendering:geometricPrecision; text-rendering:geometricPrecision; image-rendering:optimizeQuality; fill-rule:evenodd; clip-rule:evenodd"
viewBox="0 0 591 591"
 xmlns:xlink="http://www.w3.org/1999/xlink"
 xmlns:xodm="http://www.corel.com/coreldraw/odm/2003">
 <defs>
  <style type="text/css">
   <![CDATA[
    .fil0 {fill:#2B2A29;fill-rule:nonzero}
   ]]>
  </style>
 </defs>
 <g id="Layer_x0020_1">
  <metadata id="CorelCorpID_0Corel-Layer"/>
  <path class="fil0" d="M112 339c-8,11 33,16 122,16 13,0 23,-4 29,-11 6,-7 12,-27 20,-59l19 0 -9 113 -242 0 0 -15 79 -90c8,-9 16,-17 23,-25 -91,-1 -153,-2 -153,-4 0,-3 132,-5 296,-5 163,0 296,2 296,5 0,1 -19,2 -51,3 0,2 0,4 0,7 0,38 -13,70 -39,94 -26,25 -59,37 -100,37 -31,0 -57,-9 -76,-27 -20,-18 -29,-39 -29,-63 0,-15 3,-26 9,-34 5,-7 12,-11 20,-12 -10,0 -20,0 -30,0 -38,0 -74,0 -107,0l-37 31c-18,15 -31,28 -40,39zm372 -70c-42,1 -94,1 -151,1 8,1 14,4 19,9 6,6 9,15 9,25 0,8 -1,14 -4,18 -3,4 -8,8 -16,11 -8,3 -12,7 -12,11 0,6 3,12 8,19 5,7 14,13 24,17 11,4 23,7 38,7 28,0 49,-9 63,-26 15,-17 22,-45 22,-84 0,-3 0,-6 0,-8zm-189 -113c10,0 19,0 29,0l4 -49c3,-31 4,-62 4,-91 46,10 83,16 112,16 14,0 26,-1 38,-4 12,-3 21,-6 27,-9 3,-2 5,-2 6,-2 2,0 3,1 3,4 0,6 -4,15 -12,25 -8,10 -19,19 -33,25 -14,6 -30,9 -48,9 -21,0 -47,-3 -76,-10l-7 87c15,0 29,0 43,0 11,-3 21,-4 31,-4 13,0 24,1 36,4 85,1 141,2 141,4 0,3 -132,5 -296,5 -163,0 -296,-2 -296,-5 0,-1 28,-2 75,-3l0 0c-8,-10 -12,-24 -12,-40 0,-18 5,-35 14,-50 9,-15 24,-28 43,-37 19,-10 40,-15 62,-15 22,0 42,5 61,14 19,9 33,22 42,37 9,15 14,32 14,50 0,13 -2,25 -7,38 0,0 0,1 -1,1l4 0zm-162 1c31,0 65,-1 102,-1 0,-1 1,-2 1,-3 6,-16 9,-31 9,-45 0,-22 -6,-40 -18,-52 -12,-13 -29,-19 -51,-19 -24,0 -44,6 -60,18 -15,12 -23,24 -23,37 0,5 1,8 4,10 2,2 7,4 14,6 18,4 27,15 27,32 0,6 -1,11 -4,16z"/>
 </g>
</svg>
