<?xml version="1.0" encoding="UTF-8"?>
<!DOCTYPE svg PUBLIC "-//W3C//DTD SVG 1.1//EN" "http://www.w3.org/Graphics/SVG/1.1/DTD/svg11.dtd">
<!-- Creator: CorelDRAW 2020 (64-Bit) -->
<svg xmlns="http://www.w3.org/2000/svg" xml:space="preserve" width="591px" height="591px" version="1.1" style="shape-rendering:geometricPrecision; text-rendering:geometricPrecision; image-rendering:optimizeQuality; fill-rule:evenodd; clip-rule:evenodd"
viewBox="0 0 591 591"
 xmlns:xlink="http://www.w3.org/1999/xlink"
 xmlns:xodm="http://www.corel.com/coreldraw/odm/2003">
 <defs>
  <style type="text/css">
   <![CDATA[
    .fil0 {fill:#2B2A29;fill-rule:nonzero}
   ]]>
  </style>
 </defs>
 <g id="Layer_x0020_1">
  <metadata id="CorelCorpID_0Corel-Layer"/>
  <path class="fil0" d="M167 157c0,-4 0,-7 0,-11 0,-36 12,-67 37,-92 25,-25 54,-38 88,-38 37,0 69,16 94,47 19,24 31,55 35,94 100,1 170,2 170,4 0,3 -132,5 -296,5 -163,0 -296,-2 -296,-5 0,-2 69,-3 168,-4zm198 0c1,-7 1,-14 1,-21 0,-31 -7,-55 -22,-73 -15,-18 -32,-27 -53,-27 -20,0 -37,8 -50,25 -13,17 -19,42 -19,76 0,7 0,13 1,20 23,0 46,0 71,0 24,0 48,0 71,0zm-71 104c163,0 296,2 296,5 0,2 -72,4 -175,4 -3,15 -8,29 -13,41 -14,32 -32,56 -55,72 -23,16 -49,23 -77,23 -28,0 -49,-6 -65,-18 -16,-12 -23,-27 -23,-44 0,-11 3,-20 10,-27 6,-7 14,-10 24,-10 9,0 16,3 23,9 6,6 9,13 9,21 0,6 -3,12 -8,19 -3,5 -5,8 -5,12 0,5 3,9 9,13 6,4 16,5 29,5 19,0 35,-5 50,-16 14,-10 26,-27 35,-51 5,-14 9,-31 11,-50 -23,0 -47,0 -72,0 -163,0 -296,-2 -296,-5 0,-3 132,-5 296,-5z"/>
 </g>
</svg>
