<?xml version="1.0" encoding="UTF-8"?>
<!DOCTYPE svg PUBLIC "-//W3C//DTD SVG 1.1//EN" "http://www.w3.org/Graphics/SVG/1.1/DTD/svg11.dtd">
<!-- Creator: CorelDRAW 2020 (64-Bit) -->
<svg xmlns="http://www.w3.org/2000/svg" xml:space="preserve" width="591px" height="591px" version="1.1" style="shape-rendering:geometricPrecision; text-rendering:geometricPrecision; image-rendering:optimizeQuality; fill-rule:evenodd; clip-rule:evenodd"
viewBox="0 0 591 591"
 xmlns:xlink="http://www.w3.org/1999/xlink"
 xmlns:xodm="http://www.corel.com/coreldraw/odm/2003">
 <defs>
  <style type="text/css">
   <![CDATA[
    .fil0 {fill:#2B2A29;fill-rule:nonzero}
   ]]>
  </style>
 </defs>
 <g id="Layer_x0020_1">
  <metadata id="CorelCorpID_0Corel-Layer"/>
  <path class="fil0" d="M191 22l0 134c32,0 67,0 104,0 19,0 37,0 55,0l96 -134 18 0 0 135c77,1 127,2 127,4 0,3 -132,5 -296,5 -163,0 -296,-2 -296,-5 0,-2 59,-3 147,-4l0 -58c0,-5 -2,-10 -6,-13 -4,-4 -9,-5 -16,-5l-60 0 0 -19c28,-4 51,-8 69,-15 18,-6 33,-14 46,-24l13 0zm104 238c163,0 296,2 296,5 0,2 -50,3 -127,4l0 9 62 0 0 23 -62 0 0 58c0,5 2,9 6,12 6,4 12,6 20,6l23 0 0 21 -151 0 0 -21 28 0c9,0 16,-2 21,-6 4,-4 7,-10 7,-17l0 -53 -153 0 0 -26 4 -6c-27,0 -53,0 -77,0l0 91c0,5 2,9 5,12 5,4 12,6 19,6l53 0 0 21 -195 0 0 -21 45 0c9,0 16,-2 21,-7 5,-4 7,-10 7,-18l0 -84c-88,-1 -147,-2 -147,-4 0,-3 132,-5 296,-5zm123 9c-37,0 -79,0 -123,0l-2 0 -6 9 131 0 0 -9zm-43 -113c15,0 29,0 43,0l0 -60 -43 60z"/>
 </g>
</svg>
