<?xml version="1.0" encoding="UTF-8"?>
<!DOCTYPE svg PUBLIC "-//W3C//DTD SVG 1.1//EN" "http://www.w3.org/Graphics/SVG/1.1/DTD/svg11.dtd">
<!-- Creator: CorelDRAW 2020 (64-Bit) -->
<svg xmlns="http://www.w3.org/2000/svg" xml:space="preserve" width="591px" height="591px" version="1.1" style="shape-rendering:geometricPrecision; text-rendering:geometricPrecision; image-rendering:optimizeQuality; fill-rule:evenodd; clip-rule:evenodd"
viewBox="0 0 591 591"
 xmlns:xlink="http://www.w3.org/1999/xlink"
 xmlns:xodm="http://www.corel.com/coreldraw/odm/2003">
 <defs>
  <style type="text/css">
   <![CDATA[
    .fil0 {fill:#2B2A29;fill-rule:nonzero}
   ]]>
  </style>
 </defs>
 <g id="Layer_x0020_1">
  <metadata id="CorelCorpID_0Corel-Layer"/>
  <path class="fil0" d="M249 270c1,9 2,19 2,30 0,31 -7,53 -20,67 -14,14 -35,21 -63,21 -16,0 -30,-2 -41,-6 -11,-4 -19,-9 -24,-16 -5,-7 -8,-13 -8,-18 0,-4 4,-8 11,-12 7,-4 12,-8 15,-13 3,-5 4,-10 4,-17 0,-10 -3,-19 -8,-25 -6,-6 -13,-9 -22,-9 -10,0 -18,4 -25,12 -7,8 -10,19 -10,33 0,17 4,32 13,46 9,14 22,24 39,32 17,8 38,12 63,12 40,0 73,-11 98,-33 15,-13 25,-28 30,-46l0 0c6,14 14,26 23,37 23,28 52,42 87,42 36,0 66,-17 92,-50 17,-22 28,-52 34,-88 34,-1 54,-2 54,-3 0,-3 -132,-5 -296,-5 -163,0 -296,2 -296,5 0,2 108,4 250,5zm237 -1c-3,39 -10,68 -21,86 -13,22 -31,33 -54,33 -23,0 -42,-12 -56,-35 -10,-16 -16,-43 -19,-82 57,0 108,-1 149,-1zm-150 -113c57,0 108,1 150,1 -3,-40 -9,-69 -19,-86 -14,-24 -33,-36 -56,-36 -24,0 -43,11 -56,34 -10,16 -16,45 -18,87zm201 2c33,1 53,2 53,3 0,3 -132,5 -296,5 -163,0 -296,-2 -296,-5 0,-2 101,-4 235,-5 4,-10 6,-22 6,-37 0,-30 -6,-51 -17,-64 -11,-13 -28,-19 -50,-19 -20,0 -36,4 -48,11 -12,7 -18,14 -18,20 0,4 3,9 10,16 10,9 14,18 14,28 0,7 -3,14 -8,19 -5,5 -12,8 -21,8 -9,0 -16,-3 -22,-10 -6,-7 -9,-16 -9,-29 0,-19 7,-36 21,-51 20,-21 48,-31 84,-31 34,0 61,9 82,27 20,18 30,41 30,68 0,17 -4,32 -13,45l8 0c6,-38 18,-70 37,-96 22,-30 51,-45 87,-45 35,0 65,14 88,41 21,25 35,58 40,101z"/>
 </g>
</svg>
