<?xml version="1.0" encoding="UTF-8"?>
<!DOCTYPE svg PUBLIC "-//W3C//DTD SVG 1.1//EN" "http://www.w3.org/Graphics/SVG/1.1/DTD/svg11.dtd">
<!-- Creator: CorelDRAW 2020 (64-Bit) -->
<svg xmlns="http://www.w3.org/2000/svg" xml:space="preserve" width="591px" height="591px" version="1.1" style="shape-rendering:geometricPrecision; text-rendering:geometricPrecision; image-rendering:optimizeQuality; fill-rule:evenodd; clip-rule:evenodd"
viewBox="0 0 591 591"
 xmlns:xlink="http://www.w3.org/1999/xlink"
 xmlns:xodm="http://www.corel.com/coreldraw/odm/2003">
 <defs>
  <style type="text/css">
   <![CDATA[
    .fil0 {fill:#2B2A29;fill-rule:nonzero}
   ]]>
  </style>
 </defs>
 <g id="Layer_x0020_1">
  <metadata id="CorelCorpID_0Corel-Layer"/>
  <path class="fil0" d="M204 22l0 134c29,0 59,0 91,0 34,0 66,0 96,0l0 -58c0,-5 -2,-10 -6,-13 -4,-4 -9,-5 -16,-5l-60 0 0 -19c28,-4 51,-8 69,-15 18,-6 33,-14 46,-24l13 0 0 134c92,1 155,2 155,4 0,3 -132,5 -296,5 -163,0 -296,-2 -296,-5 0,-2 65,-3 160,-4l0 -58c0,-5 -2,-10 -6,-13 -4,-4 -9,-5 -16,-5l-60 0 0 -19c28,-4 51,-8 69,-15 18,-6 33,-14 46,-24l13 0zm91 238c163,0 296,2 296,5 0,2 -62,3 -155,4l0 91c0,5 2,9 5,12 5,4 12,6 19,6l53 0 0 21 -195 0 0 -21 45 0c9,0 16,-2 21,-7 5,-4 7,-10 7,-18l0 -84c-30,0 -62,0 -96,0 -32,0 -62,0 -91,0l0 91c0,5 2,9 5,12 5,4 12,6 19,6l53 0 0 21 -195 0 0 -21 45 0c9,0 16,-2 21,-7 5,-4 7,-10 7,-18l0 -84c-95,-1 -160,-2 -160,-4 0,-3 132,-5 296,-5z"/>
 </g>
</svg>
