<?xml version="1.0" encoding="UTF-8"?>
<!DOCTYPE svg PUBLIC "-//W3C//DTD SVG 1.1//EN" "http://www.w3.org/Graphics/SVG/1.1/DTD/svg11.dtd">
<!-- Creator: CorelDRAW 2020 (64-Bit) -->
<svg xmlns="http://www.w3.org/2000/svg" xml:space="preserve" width="591px" height="591px" version="1.1" style="shape-rendering:geometricPrecision; text-rendering:geometricPrecision; image-rendering:optimizeQuality; fill-rule:evenodd; clip-rule:evenodd"
viewBox="0 0 591 591"
 xmlns:xlink="http://www.w3.org/1999/xlink"
 xmlns:xodm="http://www.corel.com/coreldraw/odm/2003">
 <defs>
  <style type="text/css">
   <![CDATA[
    .fil0 {fill:#2B2A29;fill-rule:nonzero}
   ]]>
  </style>
 </defs>
 <g id="Layer_x0020_1">
  <metadata id="CorelCorpID_0Corel-Layer"/>
  <path class="fil0" d="M191 22l0 134c32,0 66,0 102,0 -5,-12 -8,-25 -8,-39 0,-28 11,-51 32,-71 21,-20 49,-30 82,-30 23,0 42,4 59,12 17,8 29,18 38,32 9,13 13,27 13,42 0,21 -8,40 -24,56 65,1 106,2 106,4 0,3 -132,5 -296,5 -163,0 -296,-2 -296,-5 0,-2 59,-3 146,-4l0 -58c0,-5 -2,-10 -6,-13 -4,-4 -9,-5 -16,-5l-60 0 0 -19c28,-4 51,-8 69,-15 18,-6 33,-14 46,-24l13 0zm104 238c163,0 296,2 296,5 0,1 -25,2 -66,3 1,6 2,13 2,20 0,29 -9,54 -28,76 -24,28 -58,42 -103,42 -39,0 -70,-9 -93,-28 -23,-19 -34,-42 -34,-70 0,-13 3,-26 8,-37 -30,0 -59,0 -85,0l0 91c0,5 2,9 5,12 5,4 12,6 19,6l53 0 0 21 -195 0 0 -21 45 0c9,0 16,-2 21,-7 5,-4 7,-10 7,-18l0 -84c-88,-1 -146,-2 -146,-4 0,-3 132,-5 296,-5zm183 8c-45,1 -102,1 -163,1 -4,10 -7,22 -7,36 0,26 8,45 23,60 15,14 37,21 65,21 30,0 53,-7 70,-21 17,-14 25,-33 25,-56 0,-16 -4,-30 -13,-40zm-112 -113c32,0 61,0 88,1 3,-3 6,-7 8,-10 6,-11 10,-24 10,-41 0,-23 -6,-40 -19,-52 -13,-12 -31,-18 -56,-18 -24,0 -42,6 -55,17 -13,11 -20,26 -20,45 0,18 6,33 17,43 5,5 14,10 27,16z"/>
 </g>
</svg>
