<?xml version="1.0" encoding="UTF-8"?>
<!DOCTYPE svg PUBLIC "-//W3C//DTD SVG 1.1//EN" "http://www.w3.org/Graphics/SVG/1.1/DTD/svg11.dtd">
<!-- Creator: CorelDRAW 2020 (64-Bit) -->
<svg xmlns="http://www.w3.org/2000/svg" xml:space="preserve" width="591px" height="591px" version="1.1" style="shape-rendering:geometricPrecision; text-rendering:geometricPrecision; image-rendering:optimizeQuality; fill-rule:evenodd; clip-rule:evenodd"
viewBox="0 0 591 591"
 xmlns:xlink="http://www.w3.org/1999/xlink"
 xmlns:xodm="http://www.corel.com/coreldraw/odm/2003">
 <defs>
  <style type="text/css">
   <![CDATA[
    .fil0 {fill:#2B2A29;fill-rule:nonzero}
   ]]>
  </style>
 </defs>
 <g id="Layer_x0020_1">
  <metadata id="CorelCorpID_0Corel-Layer"/>
  <path class="fil0" d="M309 270c0,2 0,4 0,6 0,37 -12,68 -36,93 -24,25 -54,37 -89,37 -25,0 -47,-7 -67,-20 -20,-13 -35,-34 -48,-62 -7,-17 -13,-36 -16,-56 -34,-1 -54,-2 -54,-3 0,-3 132,-5 296,-5 163,0 296,2 296,5 0,1 -22,2 -59,3 -3,16 -8,30 -13,43 -14,32 -32,56 -55,72 -23,16 -49,23 -77,23 -28,0 -49,-6 -65,-18 -16,-12 -23,-27 -23,-44 0,-11 3,-20 10,-27 6,-7 14,-10 24,-10 9,0 16,3 23,9 6,6 9,13 9,21 0,6 -3,12 -8,19 -3,5 -5,8 -5,12 0,5 3,9 9,13 6,4 16,5 29,5 19,0 35,-5 50,-16 14,-10 26,-27 35,-51 5,-14 9,-31 11,-51 -48,1 -108,1 -174,1zm-197 -1c-1,6 -1,12 -1,19 0,32 7,57 21,74 14,17 32,25 53,25 21,0 39,-8 52,-24 13,-16 20,-40 20,-72 0,-7 0,-14 -1,-21 -54,0 -103,0 -143,-1zm228 -113c53,0 102,0 142,1 1,-7 1,-14 1,-22 0,-31 -7,-55 -22,-73 -15,-18 -32,-27 -53,-27 -20,0 -37,8 -50,25 -13,17 -19,42 -19,76 0,7 0,13 1,19zm197 2c34,1 53,2 53,3 0,3 -132,5 -296,5 -163,0 -296,-2 -296,-5 0,-1 22,-2 59,-3 4,-15 9,-29 15,-43 15,-33 35,-58 58,-74 24,-16 48,-25 74,-25 26,0 49,7 67,22 15,12 23,26 23,42 0,11 -3,20 -10,27 -7,7 -15,11 -25,11 -9,0 -17,-3 -23,-9 -6,-6 -10,-13 -10,-21 0,-5 2,-11 6,-18 4,-6 6,-11 6,-15 0,-5 -2,-9 -7,-12 -7,-4 -15,-6 -27,-6 -18,0 -34,5 -48,16 -14,11 -27,30 -37,57 -6,15 -10,31 -12,49 48,-1 108,-1 174,-1 0,-4 0,-7 0,-11 0,-36 12,-67 37,-92 25,-25 54,-38 88,-38 37,0 69,16 94,47 19,24 31,56 36,96z"/>
 </g>
</svg>
