<?xml version="1.0" encoding="UTF-8"?>
<!DOCTYPE svg PUBLIC "-//W3C//DTD SVG 1.1//EN" "http://www.w3.org/Graphics/SVG/1.1/DTD/svg11.dtd">
<!-- Creator: CorelDRAW 2020 (64-Bit) -->
<svg xmlns="http://www.w3.org/2000/svg" xml:space="preserve" width="591px" height="591px" version="1.1" style="shape-rendering:geometricPrecision; text-rendering:geometricPrecision; image-rendering:optimizeQuality; fill-rule:evenodd; clip-rule:evenodd"
viewBox="0 0 591 591"
 xmlns:xlink="http://www.w3.org/1999/xlink"
 xmlns:xodm="http://www.corel.com/coreldraw/odm/2003">
 <defs>
  <style type="text/css">
   <![CDATA[
    .fil0 {fill:#FFF;fill-rule:nonzero}
   ]]>
  </style>
 </defs>
 <g id="Layer_x0020_1">
  <metadata id="CorelCorpID_0Corel-Layer"/>
  <path class="fil0" d="M116 9l209 0c41,0 72,9 94,27 22,18 33,41 33,68 0,20 -6,38 -18,52 93,1 157,2 157,4 0,3 -132,5 -296,5 -163,0 -296,-2 -296,-5 0,-2 73,-4 178,-4l0 -104c0,-8 -2,-13 -7,-17 -5,-4 -11,-6 -20,-6l-35 0 0 -21zm262 147c6,-13 9,-30 9,-51 0,-19 -3,-34 -10,-45 -7,-11 -16,-19 -29,-24 -13,-5 -34,-7 -65,-7 -22,0 -35,2 -41,5 -5,3 -8,9 -8,17l0 105c19,0 39,0 59,0 29,0 57,0 83,0zm-83 104c163,0 296,2 296,5 0,2 -48,3 -123,4 4,10 6,21 6,33 0,20 -5,38 -16,53 -11,15 -29,28 -54,39 -25,11 -53,16 -85,16l-203 0 0 -21 33 0c10,0 17,-2 22,-5 5,-3 7,-7 7,-11l0 -104c-105,-1 -178,-2 -178,-4 0,-3 132,-5 296,-5zm108 9c-34,0 -70,0 -108,0 -20,0 -40,0 -59,0l0 98c0,7 2,13 6,16 4,4 12,5 23,5l49 0c32,0 56,-7 71,-21 15,-14 23,-36 23,-66 0,-12 -2,-23 -5,-33z"/>
 </g>
</svg>
