<?xml version="1.0" encoding="UTF-8"?>
<!DOCTYPE svg PUBLIC "-//W3C//DTD SVG 1.1//EN" "http://www.w3.org/Graphics/SVG/1.1/DTD/svg11.dtd">
<!-- Creator: CorelDRAW 2020 (64-Bit) -->
<svg xmlns="http://www.w3.org/2000/svg" xml:space="preserve" width="591px" height="591px" version="1.1" style="shape-rendering:geometricPrecision; text-rendering:geometricPrecision; image-rendering:optimizeQuality; fill-rule:evenodd; clip-rule:evenodd"
viewBox="0 0 591 591"
 xmlns:xlink="http://www.w3.org/1999/xlink"
 xmlns:xodm="http://www.corel.com/coreldraw/odm/2003">
 <defs>
  <style type="text/css">
   <![CDATA[
    .fil0 {fill:#FFF;fill-rule:nonzero}
   ]]>
  </style>
 </defs>
 <g id="Layer_x0020_1">
  <metadata id="CorelCorpID_0Corel-Layer"/>
  <path class="fil0" d="M414 156c2,-9 5,-23 7,-42 5,-31 9,-54 13,-68 4,-14 11,-25 23,-33 11,-9 25,-13 42,-13 17,0 31,5 43,14 12,9 18,23 18,39 0,13 -4,24 -10,30 -7,7 -15,10 -25,10 -9,0 -17,-3 -24,-9 -6,-6 -10,-13 -10,-21 0,-5 1,-11 5,-17 2,-3 3,-6 3,-9 0,-4 -2,-7 -5,-10 -3,-3 -7,-4 -11,-4 -8,0 -15,5 -21,15 -7,10 -13,35 -18,77 -2,16 -5,30 -8,41 92,1 155,2 155,4 0,3 -132,5 -296,5 -163,0 -296,-2 -296,-5 0,-2 62,-3 154,-4 -3,-11 -5,-24 -7,-39 -6,-43 -12,-69 -19,-79 -7,-10 -13,-15 -21,-15 -4,0 -8,1 -11,4 -3,3 -5,6 -5,10 0,3 1,5 3,9 3,6 5,12 5,17 0,8 -3,15 -10,21 -6,6 -14,9 -23,9 -9,0 -17,-3 -24,-10 -7,-7 -11,-17 -11,-30 0,-17 6,-31 18,-40 12,-9 27,-14 43,-14 17,0 30,4 41,13 11,8 19,19 23,33 4,14 8,36 13,69 2,18 5,32 7,42 28,0 58,0 89,0l0 -107c0,-13 -9,-19 -26,-19l-29 0 0 -21 167 0 0 21 -29 0c-17,0 -25,6 -25,19l0 107c33,0 63,0 92,0zm-119 104c163,0 296,2 296,5 0,1 -43,3 -110,4 5,14 10,31 15,52 9,39 20,58 33,58 14,0 23,-19 25,-56l18 0c-3,62 -25,93 -69,93 -18,0 -32,-6 -43,-18 -11,-12 -18,-33 -22,-64 -4,-28 -7,-50 -11,-65 -32,0 -68,0 -105,0l0 101c0,13 9,19 25,19l29 0 0 21 -167 0 0 -21 29 0c17,0 26,-6 26,-19l0 -101c-36,0 -70,0 -102,0 -3,15 -7,37 -11,65 -3,21 -6,36 -10,46 -4,10 -11,19 -20,25 -9,7 -21,10 -34,10 -43,0 -66,-31 -69,-93l18 0c2,37 10,56 24,56 13,0 24,-19 33,-58 5,-21 10,-38 15,-52 -67,-1 -110,-2 -110,-4 0,-3 132,-5 296,-5z"/>
 </g>
</svg>
