<?xml version="1.0" encoding="UTF-8"?>
<!DOCTYPE svg PUBLIC "-//W3C//DTD SVG 1.1//EN" "http://www.w3.org/Graphics/SVG/1.1/DTD/svg11.dtd">
<!-- Creator: CorelDRAW 2020 (64-Bit) -->
<svg xmlns="http://www.w3.org/2000/svg" xml:space="preserve" width="591px" height="591px" version="1.1" style="shape-rendering:geometricPrecision; text-rendering:geometricPrecision; image-rendering:optimizeQuality; fill-rule:evenodd; clip-rule:evenodd"
viewBox="0 0 591 591"
 xmlns:xlink="http://www.w3.org/1999/xlink"
 xmlns:xodm="http://www.corel.com/coreldraw/odm/2003">
 <defs>
  <style type="text/css">
   <![CDATA[
    .fil0 {fill:#FFF;fill-rule:nonzero}
   ]]>
  </style>
 </defs>
 <g id="Layer_x0020_1">
  <metadata id="CorelCorpID_0Corel-Layer"/>
  <path class="fil0" d="M104 9l207 0c31,0 57,5 78,16 27,14 49,37 68,69 11,19 19,40 23,63 67,1 109,2 109,4 0,3 -132,5 -296,5 -163,0 -296,-2 -296,-5 0,-2 69,-3 168,-4l0 -108c0,-6 -2,-10 -6,-13 -4,-3 -10,-5 -17,-5l-41 0 0 -21zm312 147c-5,-37 -16,-67 -31,-88 -20,-26 -50,-39 -90,-39l-46 0c-8,0 -14,2 -18,5 -4,3 -6,9 -6,15l0 106c22,0 46,0 70,0 43,0 84,0 121,0zm-121 104c163,0 296,2 296,5 0,1 -43,3 -111,4 -3,13 -6,25 -11,37 -9,22 -22,42 -39,58 -18,17 -39,29 -64,37 -19,6 -44,9 -76,9l-185 0 0 -21 38 0c10,0 16,-2 20,-5 4,-3 6,-8 6,-14l0 -101c-99,-1 -168,-2 -168,-4 0,-3 132,-5 296,-5zm122 9c-37,0 -78,0 -122,0 -24,0 -47,0 -70,0l0 100c0,7 2,11 7,15 5,3 12,5 23,5l34 0c31,0 57,-8 80,-24 15,-10 26,-25 34,-44 6,-14 10,-32 13,-53z"/>
 </g>
</svg>
