<?xml version="1.0" encoding="UTF-8"?>
<!DOCTYPE svg PUBLIC "-//W3C//DTD SVG 1.1//EN" "http://www.w3.org/Graphics/SVG/1.1/DTD/svg11.dtd">
<!-- Creator: CorelDRAW 2020 (64-Bit) -->
<svg xmlns="http://www.w3.org/2000/svg" xml:space="preserve" width="591px" height="591px" version="1.1" style="shape-rendering:geometricPrecision; text-rendering:geometricPrecision; image-rendering:optimizeQuality; fill-rule:evenodd; clip-rule:evenodd"
viewBox="0 0 591 591"
 xmlns:xlink="http://www.w3.org/1999/xlink"
 xmlns:xodm="http://www.corel.com/coreldraw/odm/2003">
 <defs>
  <style type="text/css">
   <![CDATA[
    .fil0 {fill:#FFF;fill-rule:nonzero}
   ]]>
  </style>
 </defs>
 <g id="Layer_x0020_1">
  <metadata id="CorelCorpID_0Corel-Layer"/>
  <path class="fil0" d="M106 9l164 0 0 21 -20 0c-14,0 -24,1 -28,4 -5,2 -7,5 -7,9 0,3 3,8 8,15l68 99 4 0 16 0 50 -75c8,-12 11,-21 11,-28 0,-7 -3,-13 -10,-17 -6,-4 -19,-6 -37,-6l0 -21 146 0 0 21c-16,0 -28,3 -38,8 -12,7 -24,19 -34,34l-58 84c141,0 249,2 249,5 0,3 -132,5 -296,5 -163,0 -296,-2 -296,-5 0,-2 98,-4 229,-5l-68 -97c-9,-13 -16,-20 -23,-24 -7,-4 -17,-5 -32,-6l0 -21zm189 251c163,0 296,2 296,5 0,2 -94,4 -221,5l73 105c4,5 8,9 13,11 5,2 15,3 28,4l0 21 -159 0 0 -21 22 0c11,0 18,-1 22,-4 4,-3 6,-6 6,-10 0,-4 -3,-10 -8,-18l-61 -88 -12 0c-11,0 -21,0 -31,0l-39 56c-10,14 -14,26 -14,36 0,9 3,16 8,20 6,5 14,7 24,7l15 0 0 21 -153 0 0 -21c16,-1 30,-5 43,-13 13,-8 25,-21 37,-38l48 -69c-133,0 -233,-2 -233,-5 0,-3 132,-5 296,-5z"/>
 </g>
</svg>
