<?xml version="1.0" encoding="UTF-8"?>
<!DOCTYPE svg PUBLIC "-//W3C//DTD SVG 1.1//EN" "http://www.w3.org/Graphics/SVG/1.1/DTD/svg11.dtd">
<!-- Creator: CorelDRAW 2020 (64-Bit) -->
<svg xmlns="http://www.w3.org/2000/svg" xml:space="preserve" width="591px" height="591px" version="1.1" style="shape-rendering:geometricPrecision; text-rendering:geometricPrecision; image-rendering:optimizeQuality; fill-rule:evenodd; clip-rule:evenodd"
viewBox="0 0 591 591"
 xmlns:xlink="http://www.w3.org/1999/xlink"
 xmlns:xodm="http://www.corel.com/coreldraw/odm/2003">
 <defs>
  <style type="text/css">
   <![CDATA[
    .fil0 {fill:#FFF;fill-rule:nonzero}
   ]]>
  </style>
 </defs>
 <g id="Layer_x0020_1">
  <metadata id="CorelCorpID_0Corel-Layer"/>
  <path class="fil0" d="M248 9l178 0 0 21 -25 0c-10,0 -17,2 -21,5 -4,4 -6,9 -6,16l0 105c125,1 217,2 217,5 0,3 -132,5 -296,5 -163,0 -296,-2 -296,-5 0,-3 132,-5 296,-5 7,0 14,0 20,0l0 -105c0,-7 -2,-12 -7,-16 -5,-4 -13,-5 -24,-5l-36 0 0 -21zm47 251c163,0 296,2 296,5 0,2 -92,4 -217,5l0 41c0,20 -5,38 -15,54 -10,16 -24,29 -43,38 -19,10 -40,14 -64,14 -32,0 -59,-9 -79,-28 -20,-19 -31,-42 -31,-69 0,-20 5,-37 15,-49 1,-1 1,-1 2,-2 -95,-1 -160,-2 -160,-4 0,-3 132,-5 296,-5zm20 9c-7,0 -14,0 -20,0 -22,0 -44,0 -65,0 5,7 8,15 8,25 0,10 -3,19 -10,26 -6,7 -14,11 -22,11 -3,0 -8,-1 -13,-3 -5,-1 -8,-2 -10,-2 -3,0 -5,1 -7,4 -2,3 -3,6 -3,11 0,14 7,26 20,37 14,11 30,17 50,17 23,0 40,-8 53,-23 13,-16 19,-37 19,-65l0 -37z"/>
 </g>
</svg>
