<?xml version="1.0" encoding="UTF-8"?>
<!DOCTYPE svg PUBLIC "-//W3C//DTD SVG 1.1//EN" "http://www.w3.org/Graphics/SVG/1.1/DTD/svg11.dtd">
<!-- Creator: CorelDRAW 2020 (64-Bit) -->
<svg xmlns="http://www.w3.org/2000/svg" xml:space="preserve" width="591px" height="591px" version="1.1" style="shape-rendering:geometricPrecision; text-rendering:geometricPrecision; image-rendering:optimizeQuality; fill-rule:evenodd; clip-rule:evenodd"
viewBox="0 0 591 591"
 xmlns:xlink="http://www.w3.org/1999/xlink"
 xmlns:xodm="http://www.corel.com/coreldraw/odm/2003">
 <defs>
  <style type="text/css">
   <![CDATA[
    .fil0 {fill:#FFF;fill-rule:nonzero}
   ]]>
  </style>
 </defs>
 <g id="Layer_x0020_1">
  <metadata id="CorelCorpID_0Corel-Layer"/>
  <path class="fil0" d="M228 22l18 0 0 134c11,0 23,0 34,0 6,-38 18,-70 37,-96 22,-30 51,-45 87,-45 35,0 65,14 88,41 21,25 35,58 40,101 37,1 59,2 59,3 0,3 -132,5 -296,5 -163,0 -296,-2 -296,-5 0,-2 52,-3 132,-4l97 -135zm-29 134l0 -60 -43 61c14,0 28,0 43,0zm96 104c163,0 296,2 296,5 0,1 -22,2 -59,3 -6,36 -17,65 -34,88 -25,33 -56,50 -92,50 -35,0 -63,-14 -87,-42 -20,-24 -33,-55 -39,-94 -12,0 -23,0 -35,0l0 9 62 0 0 23 -62 0 0 58c0,5 2,9 6,12 6,4 12,6 20,6l23 0 0 21 -151 0 0 -21 28 0c9,0 16,-2 21,-6 4,-4 7,-10 7,-17l0 -53 -153 0 0 -26 6 -8c-33,-1 -52,-2 -52,-3 0,-3 132,-5 296,-5zm185 8c-42,1 -93,1 -149,1 3,38 9,66 19,82 14,23 32,35 56,35 24,0 42,-11 54,-33 11,-18 17,-47 21,-86zm-281 1c-48,0 -90,-1 -124,-1l-7 10 131 0 0 -9zm131 -113c56,0 108,0 150,1 -3,-40 -9,-69 -19,-86 -14,-24 -33,-36 -56,-36 -24,0 -43,11 -56,34 -10,16 -16,45 -18,87z"/>
 </g>
</svg>
