<?xml version="1.0" encoding="UTF-8"?>
<!DOCTYPE svg PUBLIC "-//W3C//DTD SVG 1.1//EN" "http://www.w3.org/Graphics/SVG/1.1/DTD/svg11.dtd">
<!-- Creator: CorelDRAW 2020 (64-Bit) -->
<svg xmlns="http://www.w3.org/2000/svg" xml:space="preserve" width="591px" height="591px" version="1.1" style="shape-rendering:geometricPrecision; text-rendering:geometricPrecision; image-rendering:optimizeQuality; fill-rule:evenodd; clip-rule:evenodd"
viewBox="0 0 591 591"
 xmlns:xlink="http://www.w3.org/1999/xlink"
 xmlns:xodm="http://www.corel.com/coreldraw/odm/2003">
 <defs>
  <style type="text/css">
   <![CDATA[
    .fil0 {fill:#FFF;fill-rule:nonzero}
   ]]>
  </style>
 </defs>
 <g id="Layer_x0020_1">
  <metadata id="CorelCorpID_0Corel-Layer"/>
  <path class="fil0" d="M91 16c46,10 83,16 112,16 14,0 26,-1 38,-4 12,-3 21,-6 27,-9 3,-2 5,-2 6,-2 2,0 3,1 3,4 0,6 -4,15 -12,25 -8,10 -19,19 -33,25 -14,6 -30,9 -48,9 -21,0 -47,-3 -76,-10l-7 88c13,0 26,0 41,0 11,-3 22,-4 33,-4 12,0 23,1 34,4 23,0 47,0 72,0 6,-38 18,-70 37,-96 22,-30 51,-45 87,-45 35,0 65,14 88,41 21,25 35,58 40,101 37,1 59,2 59,3 0,3 -132,5 -296,5 -163,0 -296,-2 -296,-5 0,-1 32,-2 84,-3l4 -51c3,-31 4,-62 4,-91zm204 245c163,0 296,2 296,5 0,1 -22,2 -60,3 -6,36 -17,65 -34,88 -25,33 -56,50 -92,50 -35,0 -63,-14 -87,-42 -11,-13 -19,-28 -26,-46l0 0c-6,19 -17,36 -32,50 -26,25 -59,37 -100,37 -31,0 -57,-9 -76,-27 -20,-18 -29,-39 -29,-63 0,-15 3,-26 9,-34 6,-8 14,-12 24,-12 10,0 17,3 23,10 6,6 9,15 9,25 0,8 -1,14 -4,18 -3,4 -8,8 -16,11 -8,3 -12,7 -12,11 0,6 3,12 8,19 5,7 14,13 24,17 11,4 23,7 38,7 28,0 49,-9 63,-26 15,-17 22,-45 22,-84 0,-3 0,-5 0,-7 -139,0 -244,-2 -244,-5 0,-3 132,-5 296,-5zm185 8c-42,1 -93,1 -149,1 3,38 9,66 19,82 14,23 32,35 56,35 24,0 42,-11 54,-33 11,-18 17,-47 20,-86zm-150 -113c56,0 108,0 150,1 -3,-40 -9,-69 -19,-86 -14,-24 -33,-36 -56,-36 -24,0 -43,11 -56,34 -10,16 -16,45 -18,87z"/>
 </g>
</svg>
