<?xml version="1.0" encoding="UTF-8"?>
<!DOCTYPE svg PUBLIC "-//W3C//DTD SVG 1.1//EN" "http://www.w3.org/Graphics/SVG/1.1/DTD/svg11.dtd">
<!-- Creator: CorelDRAW 2020 (64-Bit) -->
<svg xmlns="http://www.w3.org/2000/svg" xml:space="preserve" width="591px" height="591px" version="1.1" style="shape-rendering:geometricPrecision; text-rendering:geometricPrecision; image-rendering:optimizeQuality; fill-rule:evenodd; clip-rule:evenodd"
viewBox="0 0 591 591"
 xmlns:xlink="http://www.w3.org/1999/xlink"
 xmlns:xodm="http://www.corel.com/coreldraw/odm/2003">
 <defs>
  <style type="text/css">
   <![CDATA[
    .fil0 {fill:#FFF;fill-rule:nonzero}
   ]]>
  </style>
 </defs>
 <g id="Layer_x0020_1">
  <metadata id="CorelCorpID_0Corel-Layer"/>
  <path class="fil0" d="M242 270c1,9 2,19 2,30 0,31 -7,53 -20,67 -14,14 -35,21 -63,21 -16,0 -30,-2 -41,-6 -11,-4 -19,-9 -24,-16 -5,-7 -8,-13 -8,-18 0,-4 4,-8 11,-12 7,-4 12,-8 15,-13 3,-5 4,-10 4,-17 0,-10 -3,-19 -8,-25 -6,-6 -13,-9 -22,-9 -10,0 -18,4 -25,12 -7,8 -10,19 -10,33 0,17 4,32 13,46 9,14 22,24 39,32 18,8 38,12 63,12 40,0 73,-11 98,-33 21,-18 32,-42 33,-71l131 0 0 53c0,8 -2,13 -7,17 -4,4 -11,6 -21,6l-28 0 0 21 151 0 0 -21 -23 0c-8,0 -14,-2 -20,-6 -4,-3 -6,-7 -6,-12l0 -58 62 0 0 -23 -62 0 0 -10c70,-1 115,-2 115,-4 0,-3 -132,-5 -296,-5 -163,0 -296,2 -296,5 0,2 104,4 242,5zm188 0l0 9 -131 0 6 -9c45,0 87,0 125,-1zm-135 -113c23,0 45,0 67,0l96 -134 18 0 0 135c70,1 115,2 115,4 0,3 -132,5 -296,5 -163,0 -296,-2 -296,-5 0,-2 97,-4 228,-5 4,-10 6,-22 6,-37 0,-30 -6,-51 -17,-64 -11,-13 -28,-19 -50,-19 -20,0 -36,4 -48,11 -12,7 -18,14 -18,20 0,4 3,9 10,16 10,9 14,18 14,28 0,7 -3,14 -8,19 -5,5 -12,8 -21,8 -9,0 -16,-3 -22,-10 -6,-7 -9,-16 -9,-29 0,-19 7,-36 21,-51 20,-21 48,-31 84,-31 34,0 61,9 82,27 20,18 30,41 30,68 0,17 -4,32 -13,45 8,0 16,0 25,0zm91 0c15,0 29,0 43,0l0 -60 -43 60z"/>
 </g>
</svg>
