<?xml version="1.0" encoding="UTF-8"?>
<!DOCTYPE svg PUBLIC "-//W3C//DTD SVG 1.1//EN" "http://www.w3.org/Graphics/SVG/1.1/DTD/svg11.dtd">
<!-- Creator: CorelDRAW 2020 (64-Bit) -->
<svg xmlns="http://www.w3.org/2000/svg" xml:space="preserve" width="591px" height="591px" version="1.1" style="shape-rendering:geometricPrecision; text-rendering:geometricPrecision; image-rendering:optimizeQuality; fill-rule:evenodd; clip-rule:evenodd"
viewBox="0 0 591 591"
 xmlns:xlink="http://www.w3.org/1999/xlink"
 xmlns:xodm="http://www.corel.com/coreldraw/odm/2003">
 <defs>
  <style type="text/css">
   <![CDATA[
    .fil0 {fill:#FFF;fill-rule:nonzero}
   ]]>
  </style>
 </defs>
 <g id="Layer_x0020_1">
  <metadata id="CorelCorpID_0Corel-Layer"/>
  <path class="fil0" d="M77 16c18,4 37,7 58,7l169 0 0 13c-25,44 -43,80 -56,110 -2,4 -3,7 -4,11 16,0 33,0 51,0 62,0 119,0 166,1 4,-10 6,-23 6,-38 0,-30 -6,-51 -17,-64 -11,-13 -28,-19 -50,-19 -20,0 -36,4 -48,11 -12,7 -18,14 -18,20 0,4 3,9 10,16 10,9 14,18 14,28 0,7 -3,14 -8,19 -5,5 -12,8 -21,8 -9,0 -16,-3 -22,-10 -6,-7 -9,-16 -9,-29 0,-19 7,-36 21,-51 20,-21 48,-31 84,-31 34,0 61,9 82,27 20,18 30,41 30,68 0,18 -5,33 -14,47 54,1 88,2 88,3 0,3 -132,5 -296,5 -163,0 -296,-2 -296,-5 0,-2 93,-4 220,-5 4,-8 8,-16 11,-22l38 -69 -147 0c-11,0 -19,4 -24,11 -5,8 -12,30 -19,68l-19 0 19 -129zm217 245c163,0 296,2 296,5 0,1 -24,2 -63,3 3,9 4,20 4,31 0,31 -11,56 -33,75 -25,22 -58,33 -98,33 -24,0 -45,-4 -63,-12 -17,-8 -31,-19 -39,-32 -9,-14 -13,-29 -13,-46 0,-14 3,-25 10,-33 7,-8 15,-12 25,-12 9,0 16,3 22,9 6,6 8,14 8,25 0,7 -1,12 -4,17 -3,5 -8,9 -15,13 -8,4 -11,8 -11,12 0,5 3,11 8,18 6,7 14,12 24,16 11,4 24,6 41,6 28,0 49,-7 63,-21 14,-14 20,-36 20,-67 0,-11 -1,-21 -2,-30 -50,1 -112,1 -180,1 -28,0 -55,0 -81,0 -3,18 -4,37 -5,58 -2,30 -4,49 -5,56 -2,7 -5,13 -10,16 -5,4 -11,6 -19,6 -9,0 -16,-3 -21,-9 -5,-6 -8,-16 -8,-29 0,-12 2,-26 6,-44 3,-13 9,-31 18,-54 -100,-1 -170,-2 -170,-4 0,-3 132,-5 296,-5z"/>
 </g>
</svg>
