<?xml version="1.0" encoding="UTF-8"?>
<!DOCTYPE svg PUBLIC "-//W3C//DTD SVG 1.1//EN" "http://www.w3.org/Graphics/SVG/1.1/DTD/svg11.dtd">
<!-- Creator: CorelDRAW 2020 (64-Bit) -->
<svg xmlns="http://www.w3.org/2000/svg" xml:space="preserve" width="591px" height="591px" version="1.1" style="shape-rendering:geometricPrecision; text-rendering:geometricPrecision; image-rendering:optimizeQuality; fill-rule:evenodd; clip-rule:evenodd"
viewBox="0 0 591 591"
 xmlns:xlink="http://www.w3.org/1999/xlink"
 xmlns:xodm="http://www.corel.com/coreldraw/odm/2003">
 <defs>
  <style type="text/css">
   <![CDATA[
    .fil0 {fill:#FFF;fill-rule:nonzero}
   ]]>
  </style>
 </defs>
 <g id="Layer_x0020_1">
  <metadata id="CorelCorpID_0Corel-Layer"/>
  <path class="fil0" d="M237 22l18 0 0 134c13,0 27,0 40,0l12 0c-8,-10 -11,-23 -11,-38 0,-18 5,-35 14,-50 9,-15 24,-28 43,-37 19,-10 40,-15 62,-15 22,0 42,5 61,14 19,9 33,22 42,37 9,15 14,32 14,50 0,13 -2,25 -7,38 0,1 -1,2 -1,3 42,1 67,2 67,3 0,3 -132,5 -296,5 -163,0 -296,-2 -296,-5 0,-2 56,-3 141,-4l97 -134zm-29 134l0 -60 -43 60c14,0 28,0 43,0zm86 104c163,0 296,2 296,5 0,2 -69,3 -169,4l-37 31c-18,15 -31,28 -40,39 -8,11 33,16 122,16 13,0 23,-4 29,-11 6,-7 12,-27 20,-59l19 0 -9 113 -242 0 0 -15 79 -90c8,-9 16,-17 22,-25 -28,0 -59,0 -90,0 -14,0 -27,0 -40,0l0 9 62 0 0 23 -62 0 0 58c0,5 2,9 6,12 6,4 12,6 20,6l23 0 0 21 -151 0 0 -21 28 0c9,0 16,-2 21,-6 4,-4 7,-10 7,-17l0 -53 -153 0 0 -26 6 -8c-38,-1 -61,-2 -61,-3 0,-3 132,-5 296,-5zm-86 9c-47,0 -90,-1 -124,-1l-7 10 131 0 0 -9zm158 -113c37,0 71,0 101,1 0,-1 1,-2 1,-3 6,-16 9,-31 9,-45 0,-22 -6,-40 -18,-52 -12,-13 -29,-19 -51,-19 -24,0 -44,6 -60,18 -15,12 -23,24 -23,37 0,5 1,8 4,10 2,2 7,4 14,6 18,4 27,15 27,32 0,6 -1,11 -4,15z"/>
 </g>
</svg>
