<?xml version="1.0" encoding="UTF-8"?>
<!DOCTYPE svg PUBLIC "-//W3C//DTD SVG 1.1//EN" "http://www.w3.org/Graphics/SVG/1.1/DTD/svg11.dtd">
<!-- Creator: CorelDRAW 2020 (64-Bit) -->
<svg xmlns="http://www.w3.org/2000/svg" xml:space="preserve" width="591px" height="591px" version="1.1" style="shape-rendering:geometricPrecision; text-rendering:geometricPrecision; image-rendering:optimizeQuality; fill-rule:evenodd; clip-rule:evenodd"
viewBox="0 0 591 591"
 xmlns:xlink="http://www.w3.org/1999/xlink"
 xmlns:xodm="http://www.corel.com/coreldraw/odm/2003">
 <defs>
  <style type="text/css">
   <![CDATA[
    .fil0 {fill:#FFF;fill-rule:nonzero}
   ]]>
  </style>
 </defs>
 <g id="Layer_x0020_1">
  <metadata id="CorelCorpID_0Corel-Layer"/>
  <path class="fil0" d="M314 270c0,2 0,4 0,6 0,37 -12,68 -36,93 -24,25 -54,37 -89,37 -25,0 -47,-7 -67,-20 -20,-13 -35,-34 -48,-62 -7,-17 -13,-35 -16,-56 -37,-1 -60,-2 -60,-3 0,-3 132,-5 296,-5 163,0 296,2 296,5 0,2 -70,4 -170,4l-37 31c-18,15 -31,28 -40,39 -8,11 33,16 122,16 13,0 23,-4 29,-11 6,-7 12,-27 20,-59l19 0 -9 113 -242 0 0 -15 79 -90c8,-9 16,-17 22,-25 -22,0 -45,0 -69,0zm-197 -1c-1,6 -1,12 -1,19 0,32 7,57 21,74 14,17 32,25 53,25 21,0 39,-8 52,-24 13,-16 20,-40 20,-72 0,-7 0,-14 -1,-21 -53,0 -102,0 -143,-1zm177 -113l11 0c-8,-10 -11,-23 -11,-38 0,-18 5,-35 14,-50 9,-15 24,-28 43,-37 19,-10 40,-15 62,-15 22,0 42,5 61,14 19,9 33,22 42,37 9,15 14,32 14,50 0,13 -2,25 -7,38 0,1 -1,2 -1,3 43,1 68,2 68,3 0,3 -132,5 -296,5 -163,0 -296,-2 -296,-5 0,-1 24,-2 64,-3 4,-15 9,-29 15,-43 15,-33 35,-58 58,-74 24,-16 48,-25 74,-25 26,0 49,7 67,22 15,12 23,26 23,42 0,11 -3,20 -10,27 -7,7 -15,11 -25,11 -9,0 -17,-3 -23,-9 -6,-6 -10,-13 -10,-21 0,-5 2,-11 6,-18 4,-6 6,-11 6,-15 0,-5 -2,-9 -7,-12 -7,-4 -15,-6 -27,-6 -18,0 -34,5 -48,16 -14,11 -27,30 -37,57 -6,15 -10,31 -12,49 50,-1 112,-1 180,-1zm70 0c37,0 71,0 101,1 0,-1 1,-2 1,-3 6,-16 9,-31 9,-45 0,-22 -6,-40 -18,-52 -12,-13 -29,-19 -51,-19 -24,0 -44,6 -60,18 -15,12 -23,24 -23,37 0,5 1,8 4,10 2,2 7,4 14,6 18,4 27,15 27,32 0,6 -1,11 -4,15z"/>
 </g>
</svg>
