<?xml version="1.0" encoding="UTF-8"?>
<!DOCTYPE svg PUBLIC "-//W3C//DTD SVG 1.1//EN" "http://www.w3.org/Graphics/SVG/1.1/DTD/svg11.dtd">
<!-- Creator: CorelDRAW 2020 (64-Bit) -->
<svg xmlns="http://www.w3.org/2000/svg" xml:space="preserve" width="591px" height="591px" version="1.1" style="shape-rendering:geometricPrecision; text-rendering:geometricPrecision; image-rendering:optimizeQuality; fill-rule:evenodd; clip-rule:evenodd"
viewBox="0 0 591 591"
 xmlns:xlink="http://www.w3.org/1999/xlink"
 xmlns:xodm="http://www.corel.com/coreldraw/odm/2003">
 <defs>
  <style type="text/css">
   <![CDATA[
    .fil0 {fill:#FFF;fill-rule:nonzero}
   ]]>
  </style>
 </defs>
 <g id="Layer_x0020_1">
  <metadata id="CorelCorpID_0Corel-Layer"/>
  <path class="fil0" d="M80 16c18,4 37,7 58,7l169 0 0 13c-25,44 -43,80 -56,110 -2,4 -3,7 -4,11 12,0 23,0 35,0 6,-38 18,-70 37,-96 22,-30 51,-45 87,-45 35,0 65,14 88,41 21,25 35,58 40,101 35,1 56,2 56,3 0,3 -132,5 -296,5 -163,0 -296,-2 -296,-5 0,-2 95,-4 223,-5 4,-8 8,-16 11,-22l38 -69 -147 0c-11,0 -19,4 -24,11 -5,8 -12,30 -19,68l-19 0 19 -129zm215 245c163,0 296,2 296,5 0,1 -21,2 -57,3 -6,36 -17,65 -34,88 -25,33 -56,50 -92,50 -35,0 -63,-14 -87,-42 -20,-24 -33,-55 -39,-94 -23,0 -45,0 -66,0 -3,18 -4,37 -5,58 -2,30 -4,49 -5,56 -2,7 -5,13 -10,16 -5,4 -11,6 -19,6 -9,0 -16,-3 -21,-9 -5,-6 -8,-16 -8,-29 0,-12 2,-26 6,-44 3,-13 9,-31 18,-54 -102,-1 -173,-2 -173,-4 0,-3 132,-5 296,-5zm188 8c-42,1 -93,1 -149,1 3,38 9,66 19,82 14,23 32,35 56,35 24,0 42,-11 54,-33 11,-18 17,-47 21,-86zm-150 -113c57,0 108,0 150,1 -3,-40 -9,-69 -19,-86 -14,-24 -33,-36 -56,-36 -24,0 -43,11 -56,34 -10,16 -16,45 -18,87z"/>
 </g>
</svg>
