<?xml version="1.0" encoding="UTF-8"?>
<!DOCTYPE svg PUBLIC "-//W3C//DTD SVG 1.1//EN" "http://www.w3.org/Graphics/SVG/1.1/DTD/svg11.dtd">
<!-- Creator: CorelDRAW 2020 (64-Bit) -->
<svg xmlns="http://www.w3.org/2000/svg" xml:space="preserve" width="591px" height="591px" version="1.1" style="shape-rendering:geometricPrecision; text-rendering:geometricPrecision; image-rendering:optimizeQuality; fill-rule:evenodd; clip-rule:evenodd"
viewBox="0 0 591 591"
 xmlns:xlink="http://www.w3.org/1999/xlink"
 xmlns:xodm="http://www.corel.com/coreldraw/odm/2003">
 <defs>
  <style type="text/css">
   <![CDATA[
    .fil0 {fill:#FFF;fill-rule:nonzero}
   ]]>
  </style>
 </defs>
 <g id="Layer_x0020_1">
  <metadata id="CorelCorpID_0Corel-Layer"/>
  <path class="fil0" d="M90 16c46,10 83,16 112,16 14,0 26,-1 38,-4 12,-3 21,-6 27,-9 3,-2 5,-2 6,-2 2,0 3,1 3,4 0,6 -4,15 -12,25 -8,10 -19,19 -33,25 -14,6 -30,9 -48,9 -21,0 -47,-3 -76,-10l-7 88c13,0 26,0 41,0 11,-3 22,-4 33,-4 12,0 23,1 34,4 23,0 48,0 74,0 0,-4 0,-7 0,-11 0,-36 12,-67 37,-92 25,-25 54,-38 88,-38 37,0 69,16 94,47 19,24 31,56 36,96 36,1 57,2 57,3 0,3 -132,5 -296,5 -163,0 -296,-2 -296,-5 0,-1 32,-2 83,-3l4 -51c3,-31 4,-62 4,-91zm204 245c163,0 296,2 296,5 0,1 -23,2 -62,3 -3,15 -8,30 -13,43 -14,32 -32,56 -55,72 -23,16 -49,23 -77,23 -28,0 -49,-6 -65,-18 -16,-12 -23,-27 -23,-44 0,-11 3,-20 10,-27 6,-7 14,-10 24,-10 9,0 16,3 23,9 6,6 9,13 9,21 0,6 -3,12 -8,19 -3,5 -5,8 -5,12 0,5 3,9 9,13 6,4 16,5 29,5 19,0 35,-5 50,-16 14,-10 26,-27 35,-51 5,-14 9,-31 11,-51 -50,1 -113,1 -181,1 0,1 0,3 0,4 0,38 -13,70 -39,94 -26,25 -59,37 -100,37 -31,0 -57,-9 -76,-27 -20,-18 -29,-39 -29,-63 0,-15 3,-26 9,-34 6,-8 14,-12 24,-12 10,0 17,3 23,10 6,6 9,15 9,25 0,8 -1,14 -4,18 -3,4 -8,8 -16,11 -8,3 -12,7 -12,11 0,6 3,12 8,19 5,7 14,13 24,17 11,4 23,7 38,7 28,0 49,-9 63,-26 15,-17 22,-45 22,-84 0,-3 0,-5 0,-7 -138,0 -243,-2 -243,-5 0,-3 132,-5 296,-5zm42 -104c53,0 102,0 142,1 1,-7 1,-14 1,-22 0,-31 -7,-55 -22,-73 -15,-18 -32,-27 -53,-27 -20,0 -37,8 -50,25 -13,17 -19,42 -19,76 0,7 0,13 1,19z"/>
 </g>
</svg>
