<?xml version="1.0" encoding="UTF-8"?>
<!DOCTYPE svg PUBLIC "-//W3C//DTD SVG 1.1//EN" "http://www.w3.org/Graphics/SVG/1.1/DTD/svg11.dtd">
<!-- Creator: CorelDRAW 2020 (64-Bit) -->
<svg xmlns="http://www.w3.org/2000/svg" xml:space="preserve" width="591px" height="591px" version="1.1" style="shape-rendering:geometricPrecision; text-rendering:geometricPrecision; image-rendering:optimizeQuality; fill-rule:evenodd; clip-rule:evenodd"
viewBox="0 0 591 591"
 xmlns:xlink="http://www.w3.org/1999/xlink"
 xmlns:xodm="http://www.corel.com/coreldraw/odm/2003">
 <defs>
  <style type="text/css">
   <![CDATA[
    .fil0 {fill:#FFF;fill-rule:nonzero}
   ]]>
  </style>
 </defs>
 <g id="Layer_x0020_1">
  <metadata id="CorelCorpID_0Corel-Layer"/>
  <path class="fil0" d="M234 22l18 0 0 134c14,0 29,0 43,0 64,0 124,0 172,1 4,-10 6,-23 6,-38 0,-30 -6,-51 -17,-64 -11,-13 -28,-19 -50,-19 -20,0 -36,4 -48,11 -12,7 -18,14 -18,20 0,4 3,9 10,16 10,9 14,18 14,28 0,7 -3,14 -8,19 -5,5 -12,8 -21,8 -9,0 -16,-3 -22,-10 -6,-7 -9,-16 -9,-29 0,-19 7,-36 21,-51 20,-21 48,-31 84,-31 34,0 61,9 82,27 20,18 30,41 30,68 0,18 -5,33 -14,47 50,1 81,2 81,3 0,3 -132,5 -296,5 -163,0 -296,-2 -296,-5 0,-2 55,-3 138,-4l97 -135zm-29 134l0 -60 -43 60c14,0 28,0 43,0zm90 104c163,0 296,2 296,5 0,1 -21,2 -57,3 3,10 4,20 4,31 0,31 -11,56 -33,75 -25,22 -58,33 -98,33 -24,0 -45,-4 -63,-12 -17,-8 -31,-19 -39,-32 -9,-14 -13,-29 -13,-46 0,-14 3,-25 10,-33 7,-8 15,-12 25,-12 9,0 16,3 22,9 6,6 8,14 8,25 0,7 -1,12 -4,17 -3,5 -8,9 -15,13 -8,4 -11,8 -11,12 0,5 3,11 8,18 6,7 14,12 24,16 11,4 24,6 41,6 28,0 49,-7 63,-21 14,-14 20,-36 20,-67 0,-11 -1,-22 -2,-31 -51,1 -116,1 -186,1 -15,0 -29,0 -43,0l0 9 62 0 0 23 -62 0 0 58c0,5 2,9 6,12 6,4 12,6 20,6l23 0 0 21 -151 0 0 -21 28 0c9,0 16,-2 21,-6 4,-4 7,-10 7,-17l0 -53 -153 0 0 -26 6 -8c-37,-1 -58,-2 -58,-3 0,-3 132,-5 296,-5zm-90 9c-48,0 -90,-1 -124,-1l-7 10 131 0 0 -9z"/>
 </g>
</svg>
