<?xml version="1.0" encoding="UTF-8"?>
<!DOCTYPE svg PUBLIC "-//W3C//DTD SVG 1.1//EN" "http://www.w3.org/Graphics/SVG/1.1/DTD/svg11.dtd">
<!-- Creator: CorelDRAW 2020 (64-Bit) -->
<svg xmlns="http://www.w3.org/2000/svg" xml:space="preserve" width="591px" height="591px" version="1.1" style="shape-rendering:geometricPrecision; text-rendering:geometricPrecision; image-rendering:optimizeQuality; fill-rule:evenodd; clip-rule:evenodd"
viewBox="0 0 591 591"
 xmlns:xlink="http://www.w3.org/1999/xlink"
 xmlns:xodm="http://www.corel.com/coreldraw/odm/2003">
 <defs>
  <style type="text/css">
   <![CDATA[
    .fil0 {fill:#2B2A29;fill-rule:nonzero}
   ]]>
  </style>
 </defs>
 <g id="Layer_x0020_1">
  <metadata id="CorelCorpID_0Corel-Layer"/>
  <path class="fil0" d="M154 316l112 0 0 -46c-40,0 -78,0 -112,-1l0 47zm159 -46l0 46 112 0 0 -46c-34,0 -72,0 -112,0zm159 -1l0 23c0,11 2,18 5,22 4,4 10,6 19,6l31 0 0 97 -17 0c-1,-53 -31,-80 -90,-80l-359 0 0 -17 22 0c10,0 16,-2 19,-5 3,-3 4,-10 4,-20l0 -27c-66,-1 -108,-2 -108,-4 0,-3 132,-5 296,-5 163,0 296,2 296,5 0,2 -46,3 -117,4zm-159 -113c40,0 78,0 112,0l0 -109c0,-10 -2,-16 -5,-19 -3,-3 -10,-4 -22,-4l-20 0 0 -17 139 0 0 17 -19 0c-12,0 -20,2 -23,5 -3,3 -4,9 -4,18l0 109c71,1 117,2 117,4 0,3 -132,5 -296,5 -163,0 -296,-2 -296,-5 0,-1 42,-3 108,-4l0 -110c0,-9 -1,-15 -4,-18 -3,-3 -10,-5 -22,-5l-19 0 0 -17 138 0 0 17 -19 0c-12,0 -19,1 -22,4 -3,3 -4,9 -4,18l0 109c34,0 72,0 112,-1l0 -109c0,-9 -1,-15 -4,-18 -3,-3 -10,-5 -22,-5l-15 0 0 -17 130 0 0 17 -15 0c-11,0 -19,1 -22,4 -3,3 -4,9 -4,18l0 109z"/>
 </g>
</svg>
