<?xml version="1.0" encoding="UTF-8"?>
<!DOCTYPE svg PUBLIC "-//W3C//DTD SVG 1.1//EN" "http://www.w3.org/Graphics/SVG/1.1/DTD/svg11.dtd">
<!-- Creator: CorelDRAW 2020 (64-Bit) -->
<svg xmlns="http://www.w3.org/2000/svg" xml:space="preserve" width="591px" height="591px" version="1.1" style="shape-rendering:geometricPrecision; text-rendering:geometricPrecision; image-rendering:optimizeQuality; fill-rule:evenodd; clip-rule:evenodd"
viewBox="0 0 591 591"
 xmlns:xlink="http://www.w3.org/1999/xlink"
 xmlns:xodm="http://www.corel.com/coreldraw/odm/2003">
 <defs>
  <style type="text/css">
   <![CDATA[
    .fil0 {fill:#2B2A29;fill-rule:nonzero}
   ]]>
  </style>
 </defs>
 <g id="Layer_x0020_1">
  <metadata id="CorelCorpID_0Corel-Layer"/>
  <path class="fil0" d="M29 9l134 0 0 21 -9 0c-14,0 -23,1 -27,3 -4,2 -6,6 -6,10 0,3 1,8 4,15l2 5 30 93c31,0 65,0 101,-1l22 -74c-8,-26 -15,-42 -19,-46 -4,-4 -13,-7 -27,-7l-24 0 0 -21 167 0 0 21 -17 0c-15,0 -25,1 -29,4 -5,2 -7,6 -7,11 0,4 1,7 2,10l32 102c36,0 70,0 99,1l20 -67c3,-9 4,-17 4,-25 0,-12 -3,-21 -8,-27 -6,-6 -14,-9 -25,-9l-13 0 0 -21 126 0 0 21c-11,1 -20,4 -26,8 -6,4 -12,9 -17,17 -5,7 -10,19 -14,36l-20 67c65,1 107,2 107,4 0,3 -132,5 -296,5 -163,0 -296,-2 -296,-5 0,-1 39,-3 102,-4l-30 -94c-5,-14 -10,-23 -15,-27 -6,-4 -15,-7 -27,-7l0 -21zm266 251c163,0 296,2 296,5 0,2 -56,3 -141,4l-45 151 -19 0 -47 -150c-14,0 -29,0 -44,0 -15,0 -30,0 -45,0l-45 150 -20 0 -48 -151c-83,-1 -137,-2 -137,-4 0,-3 132,-5 296,-5zm128 9c-10,0 -20,0 -30,0l15 49 15 -49zm-200 0c-10,0 -20,0 -30,0l16 49 15 -49zm72 -114l8 0 -10 -31 -9 31 11 0z"/>
 </g>
</svg>
