<?xml version="1.0" encoding="UTF-8"?>
<!DOCTYPE svg PUBLIC "-//W3C//DTD SVG 1.1//EN" "http://www.w3.org/Graphics/SVG/1.1/DTD/svg11.dtd">
<!-- Creator: CorelDRAW 2020 (64-Bit) -->
<svg xmlns="http://www.w3.org/2000/svg" xml:space="preserve" width="591px" height="591px" version="1.1" style="shape-rendering:geometricPrecision; text-rendering:geometricPrecision; image-rendering:optimizeQuality; fill-rule:evenodd; clip-rule:evenodd"
viewBox="0 0 591 591"
 xmlns:xlink="http://www.w3.org/1999/xlink"
 xmlns:xodm="http://www.corel.com/coreldraw/odm/2003">
 <defs>
  <style type="text/css">
   <![CDATA[
    .fil0 {fill:#2B2A29;fill-rule:nonzero}
   ]]>
  </style>
 </defs>
 <g id="Layer_x0020_1">
  <metadata id="CorelCorpID_0Corel-Layer"/>
  <path class="fil0" d="M89 9l411 0 0 21 -30 0c-10,0 -17,2 -20,6 -4,4 -5,15 -5,31l0 90c87,1 146,2 146,4 0,3 -132,5 -296,5 -163,0 -296,-2 -296,-5 0,-2 59,-3 146,-4l0 -93c0,-14 -1,-24 -4,-28 -3,-4 -10,-6 -22,-6l-29 0 0 -21zm297 147l0 -124 -184 0 0 124c29,0 60,0 92,0 32,0 63,0 92,0zm-92 104c163,0 296,2 296,5 0,2 -59,3 -146,4l0 86c0,12 1,20 2,23 1,3 4,6 9,8 5,2 11,3 18,3l27 0 0 21 -170 0 0 -21 29 0c12,0 19,-2 22,-7 3,-5 5,-15 5,-29l0 -84c-29,0 -60,0 -92,0 -32,0 -63,0 -92,0l0 86c0,13 0,20 1,23 1,3 4,5 8,8 4,3 10,4 17,4l32 0 0 21 -172 0 0 -21 33 0c7,0 12,-1 15,-4 3,-3 5,-5 6,-8 1,-2 2,-11 2,-25l0 -84c-87,-1 -146,-2 -146,-4 0,-3 132,-5 296,-5z"/>
 </g>
</svg>
