<?xml version="1.0" encoding="UTF-8"?>
<!DOCTYPE svg PUBLIC "-//W3C//DTD SVG 1.1//EN" "http://www.w3.org/Graphics/SVG/1.1/DTD/svg11.dtd">
<!-- Creator: CorelDRAW 2020 (64-Bit) -->
<svg xmlns="http://www.w3.org/2000/svg" xml:space="preserve" width="591px" height="591px" version="1.1" style="shape-rendering:geometricPrecision; text-rendering:geometricPrecision; image-rendering:optimizeQuality; fill-rule:evenodd; clip-rule:evenodd"
viewBox="0 0 591 591"
 xmlns:xlink="http://www.w3.org/1999/xlink"
 xmlns:xodm="http://www.corel.com/coreldraw/odm/2003">
 <defs>
  <style type="text/css">
   <![CDATA[
    .fil0 {fill:#2B2A29;fill-rule:nonzero}
   ]]>
  </style>
 </defs>
 <g id="Layer_x0020_1">
  <metadata id="CorelCorpID_0Corel-Layer"/>
  <path class="fil0" d="M89 9l172 0 0 21 -32 0c-11,0 -18,2 -22,6 -3,4 -5,13 -5,28l0 92c29,0 60,0 92,0 32,0 62,0 90,0l0 -92c0,-16 -2,-25 -5,-29 -3,-4 -11,-5 -23,-5l-29 0 0 -21 172 0 0 21 -31 0c-8,0 -13,1 -16,3 -3,2 -6,5 -8,10 -1,3 -2,11 -2,24l0 90c88,1 147,2 147,4 0,3 -132,5 -296,5 -163,0 -296,-2 -296,-5 0,-2 59,-3 146,-4l0 -93c0,-15 -2,-24 -5,-28 -3,-4 -11,-6 -22,-6l-29 0 0 -21zm205 251c163,0 296,2 296,5 0,2 -59,3 -147,4l0 86c0,14 1,22 4,25 5,6 13,9 26,9l28 0 0 21 -172 0 0 -21 29 0c12,0 20,-3 24,-9 2,-3 4,-13 4,-27l0 -84c-28,0 -59,0 -90,0 -32,0 -63,0 -92,0l0 86c0,14 1,23 3,25 5,6 12,9 23,9l32 0 0 21 -172 0 0 -21 33 0c6,0 10,-1 14,-4 4,-2 6,-6 8,-10 1,-3 1,-11 1,-23l0 -84c-87,-1 -146,-2 -146,-4 0,-3 132,-5 296,-5z"/>
 </g>
</svg>
