<?xml version="1.0" encoding="UTF-8"?>
<!DOCTYPE svg PUBLIC "-//W3C//DTD SVG 1.1//EN" "http://www.w3.org/Graphics/SVG/1.1/DTD/svg11.dtd">
<!-- Creator: CorelDRAW 2020 (64-Bit) -->
<svg xmlns="http://www.w3.org/2000/svg" xml:space="preserve" width="591px" height="591px" version="1.1" style="shape-rendering:geometricPrecision; text-rendering:geometricPrecision; image-rendering:optimizeQuality; fill-rule:evenodd; clip-rule:evenodd"
viewBox="0 0 591 591"
 xmlns:xlink="http://www.w3.org/1999/xlink"
 xmlns:xodm="http://www.corel.com/coreldraw/odm/2003">
 <defs>
  <style type="text/css">
   <![CDATA[
    .fil0 {fill:#2B2A29;fill-rule:nonzero}
   ]]>
  </style>
 </defs>
 <g id="Layer_x0020_1">
  <metadata id="CorelCorpID_0Corel-Layer"/>
  <path class="fil0" d="M92 9l169 0 0 21 -29 0c-12,0 -20,1 -25,4 -4,3 -6,7 -6,12 0,4 2,9 5,16l2 6 35 89c17,0 34,0 52,0 29,0 57,0 84,0l28 -76c2,-5 3,-11 3,-18 0,-10 -3,-18 -9,-24 -6,-6 -14,-8 -24,-8l-27 0 0 -21 148 0 0 21 -12 0c-9,0 -18,4 -27,13 -9,8 -17,22 -24,42l-27 72c108,1 183,2 183,4 0,3 -132,5 -296,5 -163,0 -296,-2 -296,-5 0,-2 78,-4 187,-4l-38 -96c-5,-12 -11,-20 -17,-24 -7,-5 -15,-7 -27,-7l-13 0 0 -21zm203 251c163,0 296,2 296,5 0,2 -96,4 -225,5l-56 150 -19 0 -59 -150c-133,0 -232,-2 -232,-5 0,-3 132,-5 296,-5zm43 9c-14,0 -28,0 -43,0l-8 0 26 67 24 -67z"/>
 </g>
</svg>
