<?xml version="1.0" encoding="UTF-8"?>
<!DOCTYPE svg PUBLIC "-//W3C//DTD SVG 1.1//EN" "http://www.w3.org/Graphics/SVG/1.1/DTD/svg11.dtd">
<!-- Creator: CorelDRAW 2020 (64-Bit) -->
<svg xmlns="http://www.w3.org/2000/svg" xml:space="preserve" width="591px" height="591px" version="1.1" style="shape-rendering:geometricPrecision; text-rendering:geometricPrecision; image-rendering:optimizeQuality; fill-rule:evenodd; clip-rule:evenodd"
viewBox="0 0 591 591"
 xmlns:xlink="http://www.w3.org/1999/xlink"
 xmlns:xodm="http://www.corel.com/coreldraw/odm/2003">
 <defs>
  <style type="text/css">
   <![CDATA[
    .fil0 {fill:#2B2A29;fill-rule:nonzero}
   ]]>
  </style>
 </defs>
 <g id="Layer_x0020_1">
  <metadata id="CorelCorpID_0Corel-Layer"/>
  <path class="fil0" d="M291 1c34,0 66,9 95,27 30,18 53,43 69,75 9,17 16,35 20,55 70,1 115,2 115,4 0,3 -132,5 -296,5 -163,0 -296,-2 -296,-5 0,-2 45,-3 115,-4 4,-19 11,-38 20,-55 17,-32 39,-57 68,-75 29,-18 59,-27 90,-27zm118 156c-2,-22 -6,-40 -12,-55 -10,-27 -24,-47 -42,-60 -18,-13 -38,-20 -60,-20 -35,0 -64,15 -86,44 -16,21 -26,51 -30,91 35,0 74,0 115,0 41,0 80,0 115,0zm-115 104c163,0 296,2 296,5 0,2 -46,3 -116,4 -4,17 -10,34 -18,49 -17,32 -40,57 -69,75 -29,18 -61,27 -94,27 -32,0 -62,-9 -91,-27 -28,-18 -51,-43 -68,-76 -8,-16 -14,-32 -19,-49 -71,-1 -116,-2 -116,-4 0,-3 132,-5 296,-5zm115 9c-35,0 -74,0 -115,0 -41,0 -79,0 -115,0 5,40 15,70 30,89 23,28 50,41 83,41 23,0 44,-6 61,-19 18,-13 32,-32 42,-59 6,-15 10,-32 12,-52z"/>
 </g>
</svg>
