<?xml version="1.0" encoding="UTF-8"?>
<!DOCTYPE svg PUBLIC "-//W3C//DTD SVG 1.1//EN" "http://www.w3.org/Graphics/SVG/1.1/DTD/svg11.dtd">
<!-- Creator: CorelDRAW 2020 (64-Bit) -->
<svg xmlns="http://www.w3.org/2000/svg" xml:space="preserve" width="591px" height="591px" version="1.1" style="shape-rendering:geometricPrecision; text-rendering:geometricPrecision; image-rendering:optimizeQuality; fill-rule:evenodd; clip-rule:evenodd"
viewBox="0 0 591 591"
 xmlns:xlink="http://www.w3.org/1999/xlink"
 xmlns:xodm="http://www.corel.com/coreldraw/odm/2003">
 <defs>
  <style type="text/css">
   <![CDATA[
    .fil0 {fill:#2B2A29;fill-rule:nonzero}
   ]]>
  </style>
 </defs>
 <g id="Layer_x0020_1">
  <metadata id="CorelCorpID_0Corel-Layer"/>
  <path class="fil0" d="M166 9l274 0 0 21 -81 127c132,0 231,2 231,5 0,3 -132,5 -296,5 -163,0 -296,-2 -296,-5 0,-3 132,-5 296,-5l2 0 81 -126 -83 0c-23,0 -40,3 -53,8 -17,7 -31,20 -42,38 -11,18 -18,42 -23,73l-19 0 8 -139zm129 251c163,0 296,2 296,5 0,2 -59,3 -147,4l-7 141 -291 0 0 -18 78 -122c-129,-1 -225,-2 -225,-5 0,-3 132,-5 296,-5zm128 9c-39,0 -82,0 -128,0l-8 0 -76 120 87 0c25,0 45,-4 61,-12 16,-8 29,-20 39,-36 9,-15 17,-39 25,-72z"/>
 </g>
</svg>
