<?xml version="1.0" encoding="UTF-8"?>
<!DOCTYPE svg PUBLIC "-//W3C//DTD SVG 1.1//EN" "http://www.w3.org/Graphics/SVG/1.1/DTD/svg11.dtd">
<!-- Creator: CorelDRAW 2020 (64-Bit) -->
<svg xmlns="http://www.w3.org/2000/svg" xml:space="preserve" width="591px" height="591px" version="1.1" style="shape-rendering:geometricPrecision; text-rendering:geometricPrecision; image-rendering:optimizeQuality; fill-rule:evenodd; clip-rule:evenodd"
viewBox="0 0 591 591"
 xmlns:xlink="http://www.w3.org/1999/xlink"
 xmlns:xodm="http://www.corel.com/coreldraw/odm/2003">
 <defs>
  <style type="text/css">
   <![CDATA[
    .fil0 {fill:#2B2A29;fill-rule:nonzero}
   ]]>
  </style>
 </defs>
 <g id="Layer_x0020_1">
  <metadata id="CorelCorpID_0Corel-Layer"/>
  <path class="fil0" d="M117 410l0 -21 27 0c12,0 19,-2 23,-6 4,-4 6,-10 6,-17l0 -97c-102,-1 -173,-2 -173,-4 0,-3 132,-5 296,-5 163,0 296,2 296,5 0,2 -49,3 -124,4 4,10 6,22 6,34 0,30 -14,55 -41,76 -27,21 -65,31 -114,31l-201 0zm113 -141l0 98c0,14 10,22 29,22l53 0c32,0 55,-7 71,-21 16,-14 23,-36 23,-67 0,-12 -1,-23 -4,-33 -33,0 -70,0 -108,0 -22,0 -44,0 -65,0zm65 -114c163,0 296,2 296,5 0,3 -132,5 -296,5 -163,0 -296,-2 -296,-5 0,-2 71,-4 173,-4l0 -104c0,-15 -9,-23 -27,-23l-29 0 0 -21 327 0 5 138 -19 0c-7,-44 -18,-74 -33,-91 -14,-17 -39,-25 -75,-25l-92 0 0 125c21,0 43,0 65,0z"/>
 </g>
</svg>
