<?xml version="1.0" encoding="UTF-8"?>
<!DOCTYPE svg PUBLIC "-//W3C//DTD SVG 1.1//EN" "http://www.w3.org/Graphics/SVG/1.1/DTD/svg11.dtd">
<!-- Creator: CorelDRAW 2020 (64-Bit) -->
<svg xmlns="http://www.w3.org/2000/svg" xml:space="preserve" width="591px" height="591px" version="1.1" style="shape-rendering:geometricPrecision; text-rendering:geometricPrecision; image-rendering:optimizeQuality; fill-rule:evenodd; clip-rule:evenodd"
viewBox="0 0 591 591"
 xmlns:xlink="http://www.w3.org/1999/xlink"
 xmlns:xodm="http://www.corel.com/coreldraw/odm/2003">
 <defs>
  <style type="text/css">
   <![CDATA[
    .fil0 {fill:#2B2A29;fill-rule:nonzero}
   ]]>
  </style>
 </defs>
 <g id="Layer_x0020_1">
  <metadata id="CorelCorpID_0Corel-Layer"/>
  <path class="fil0" d="M198 270c1,11 3,21 5,29 5,18 12,34 23,49 10,15 23,26 38,35 15,9 33,13 53,13 34,0 62,-10 84,-32 22,-21 36,-52 42,-92l19 0c-5,47 -22,84 -50,109 -28,25 -62,38 -102,38 -52,0 -96,-19 -131,-57 -24,-26 -40,-57 -48,-91 -80,-1 -133,-2 -133,-4 0,-3 132,-5 296,-5 163,0 296,2 296,5 0,3 -132,5 -296,5 -34,0 -66,0 -97,0zm97 -114c50,0 97,0 138,1 -24,-89 -65,-134 -124,-134 -33,0 -60,16 -81,47 -15,23 -25,52 -30,87 30,0 63,0 97,0zm158 1c83,1 138,2 138,4 0,3 -132,5 -296,5 -163,0 -296,-2 -296,-5 0,-2 54,-3 135,-4 8,-33 23,-64 45,-91 34,-43 77,-65 127,-65 35,0 70,13 104,39l19 -39 17 0 7 155z"/>
 </g>
</svg>
