<?xml version="1.0" encoding="UTF-8"?>
<!DOCTYPE svg PUBLIC "-//W3C//DTD SVG 1.1//EN" "http://www.w3.org/Graphics/SVG/1.1/DTD/svg11.dtd">
<!-- Creator: CorelDRAW 2020 (64-Bit) -->
<svg xmlns="http://www.w3.org/2000/svg" xml:space="preserve" width="591px" height="591px" version="1.1" style="shape-rendering:geometricPrecision; text-rendering:geometricPrecision; image-rendering:optimizeQuality; fill-rule:evenodd; clip-rule:evenodd"
viewBox="0 0 591 591"
 xmlns:xlink="http://www.w3.org/1999/xlink"
 xmlns:xodm="http://www.corel.com/coreldraw/odm/2003">
 <defs>
  <style type="text/css">
   <![CDATA[
    .fil0 {fill:#2B2A29;fill-rule:nonzero}
   ]]>
  </style>
 </defs>
 <g id="Layer_x0020_1">
  <metadata id="CorelCorpID_0Corel-Layer"/>
  <path class="fil0" d="M392 156c-4,-35 -14,-64 -30,-87 -21,-31 -48,-47 -81,-47 -59,0 -100,45 -124,134 41,0 88,-1 138,-1 34,0 67,0 97,0zm-254 0l7 -156 17 0 19 39c34,-26 68,-39 103,-39 51,0 93,22 127,65 22,27 37,58 45,91 81,1 135,2 135,4 0,3 -132,5 -296,5 -163,0 -296,-2 -296,-5 0,-2 55,-3 138,-4zm158 104c163,0 296,2 296,5 0,2 -53,3 -133,4 -8,35 -24,65 -48,91 -35,38 -79,57 -131,57 -40,0 -74,-13 -102,-38 -28,-25 -44,-62 -50,-109l19 0c6,41 20,71 42,92 22,21 50,32 84,32 20,0 38,-4 53,-13 15,-9 28,-20 38,-35 10,-15 18,-31 23,-49 2,-8 4,-17 5,-29 -30,0 -63,0 -97,0 -163,0 -296,-2 -296,-5 0,-3 132,-5 296,-5z"/>
 </g>
</svg>
