<?xml version="1.0" encoding="UTF-8"?>
<!DOCTYPE svg PUBLIC "-//W3C//DTD SVG 1.1//EN" "http://www.w3.org/Graphics/SVG/1.1/DTD/svg11.dtd">
<!-- Creator: CorelDRAW 2020 (64-Bit) -->
<svg xmlns="http://www.w3.org/2000/svg" xml:space="preserve" width="591px" height="591px" version="1.1" style="shape-rendering:geometricPrecision; text-rendering:geometricPrecision; image-rendering:optimizeQuality; fill-rule:evenodd; clip-rule:evenodd"
viewBox="0 0 591 591"
 xmlns:xlink="http://www.w3.org/1999/xlink"
 xmlns:xodm="http://www.corel.com/coreldraw/odm/2003">
 <defs>
  <style type="text/css">
   <![CDATA[
    .fil0 {fill:#2B2A29;fill-rule:nonzero}
   ]]>
  </style>
 </defs>
 <g id="Layer_x0020_1">
  <metadata id="CorelCorpID_0Corel-Layer"/>
  <path class="fil0" d="M483 9l0 21 -31 0c-10,0 -17,2 -20,6 -3,4 -5,10 -5,19l0 101c97,1 163,2 163,4 0,3 -132,5 -296,5 -163,0 -296,-2 -296,-5 0,-2 68,-3 167,-4 -9,-14 -13,-31 -13,-48 0,-32 13,-57 37,-74 25,-17 54,-25 88,-25l204 0zm-114 147l0 -102c0,-10 -2,-17 -7,-20 -5,-3 -18,-5 -39,-5l-20 0c-34,0 -57,6 -70,19 -13,12 -19,35 -19,68 0,15 2,29 7,39 23,0 48,0 73,0 26,0 51,0 74,0zm-74 104c163,0 296,2 296,5 0,2 -66,3 -163,4l0 101c0,13 8,19 25,19l31 0 0 21 -170 0 0 -21 30 0c17,0 25,-6 25,-19l0 -101c-24,0 -49,0 -74,0 -16,0 -32,0 -47,0 -4,10 -7,22 -10,36 -6,31 -11,54 -16,68 -4,13 -11,24 -21,32 -10,8 -21,11 -35,11 -14,0 -26,-4 -36,-13 -10,-8 -16,-19 -20,-31 -3,-12 -5,-29 -5,-50l17 0c1,34 8,52 22,52 6,0 10,-3 13,-8 3,-5 9,-21 17,-46 7,-21 13,-38 20,-50 -115,-1 -197,-2 -197,-4 0,-3 132,-5 296,-5z"/>
 </g>
</svg>
